<?xml version="1.0" encoding="UTF-8"?>
<svg width="18px" height="18px" viewBox="0 0 18 18" version="1.1" xmlns="http://www.w3.org/2000/svg" xmlns:xlink="http://www.w3.org/1999/xlink">
    <title>alipay</title>
    <g id="设计规范" stroke="none" stroke-width="1" fill="none" fill-rule="evenodd">
        <g id="ICON" transform="translate(-492.000000, -607.000000)" fill-rule="nonzero">
            <g id="支付宝" transform="translate(492.000000, 607.000000)">
                <rect id="矩形" fill="#000000" opacity="0" x="0" y="0" width="18" height="18"></rect>
                <path d="M4.05,10.134 C3.834,10.305 3.609,10.557 3.546,10.872 C3.456,11.304 3.528,11.844 3.942,12.276 C4.446,12.789 5.22,12.933 5.553,12.96 C6.453,13.023 7.416,12.573 8.145,12.069 C8.433,11.871 8.919,11.466 9.378,10.845 C8.334,10.305 7.029,9.711 5.643,9.765 C4.932,9.792 4.419,9.936 4.05,10.134 Z M17.28,12.519 C17.739,11.439 18,10.251 18,9 C18,4.041 13.959,0 9,0 C4.041,0 0,4.041 0,9 C0,13.959 4.041,18 9,18 C11.997,18 14.652,16.524 16.29,14.274 C14.742,13.509 12.195,12.24 10.62,11.475 C9.873,12.33 8.766,13.185 7.515,13.554 C6.732,13.788 6.021,13.878 5.283,13.725 C4.545,13.572 4.005,13.23 3.69,12.888 C3.528,12.708 3.348,12.492 3.213,12.222 C3.222,12.24 3.231,12.258 3.231,12.276 C3.231,12.276 3.15,12.141 3.096,11.934 C3.069,11.826 3.042,11.727 3.033,11.619 C3.024,11.547 3.024,11.466 3.033,11.394 C3.024,11.259 3.033,11.115 3.06,10.971 C3.132,10.611 3.285,10.197 3.681,9.819 C4.545,8.973 5.697,8.928 6.3,8.937 C7.182,8.946 8.73,9.333 10.026,9.792 C10.386,9.027 10.62,8.208 10.764,7.659 L5.364,7.659 L5.364,7.074 L8.136,7.074 L8.136,5.904 L4.788,5.904 L4.788,5.31 L8.136,5.31 L8.136,4.14 C8.136,3.978 8.172,3.852 8.424,3.852 L9.738,3.852 L9.738,5.31 L13.383,5.31 L13.383,5.895 L9.738,5.895 L9.738,7.065 L12.654,7.065 C12.654,7.065 12.357,8.694 11.448,10.305 C13.473,11.025 16.335,12.141 17.28,12.519 L17.28,12.519 Z" id="形状" fill="#06B4FD"></path>
            </g>
        </g>
    </g>
</svg>