<?xml version="1.0" encoding="UTF-8"?>
<svg width="24px" height="24px" viewBox="0 0 24 24" version="1.1" xmlns="http://www.w3.org/2000/svg" xmlns:xlink="http://www.w3.org/1999/xlink">
    <title>基础</title>
    <defs>
        <linearGradient x1="0%" y1="17.2404993%" x2="100%" y2="82.7595007%" id="linearGradient-1">
            <stop stop-color="#E8E7E7" offset="0%"></stop>
            <stop stop-color="#CCCACB" offset="100%"></stop>
        </linearGradient>
    </defs>
    <g id="设计规范" stroke="none" stroke-width="1" fill="none" fill-rule="evenodd">
        <g id="ICON" transform="translate(-150.000000, -273.000000)" fill-rule="nonzero">
            <g id="基础会员" transform="translate(150.000000, 273.000000)">
                <rect id="矩形" fill="#000000" opacity="0" x="0" y="0" width="24" height="24"></rect>
                <path d="M11.9755102,19.4938776 C11.4244898,19.4938776 10.9102041,19.2612245 10.5306122,18.8571429 L3.25714287,10.9714286 C2.58367348,10.2367347 2.55918368,9.11020409 3.22040817,8.35102041 L5.9755102,5.17959183 C6.34285713,4.75102041 6.88163264,4.50612244 7.45714287,4.50612244 L16.5306122,4.50612244 C17.0938775,4.50612244 17.632653,4.75102041 18,5.17959183 L20.7673469,8.35102041 C21.4285714,9.11020409 21.4163265,10.2367347 20.7306122,10.9714286 L13.4081633,18.8571429 C13.0408163,19.2612245 12.5142857,19.4938776 11.9755102,19.4938776 L11.9755102,19.4938776 Z" id="路径" fill="url(#linearGradient-1)"></path>
                <path d="M11.877551,15.0612245 C11.755102,15.0612245 11.6204081,15.0122449 11.522449,14.9142857 L6.74693878,10.0163265 C6.5632653,9.82040815 6.5632653,9.51428571 6.75918368,9.31836734 C6.95510205,9.13469386 7.26122449,9.13469386 7.45714287,9.33061223 L11.8897959,13.8734694 L16.555102,9.31836734 C16.7510204,9.13469386 17.0571428,9.13469386 17.2530612,9.33061223 C17.4367347,9.52653061 17.4367347,9.83265305 17.2408163,10.0285714 L12.2204082,14.9265306 C12.122449,15.0122449 12,15.0612245 11.877551,15.0612245 L11.877551,15.0612245 Z" id="路径" fill="#FFF7E1"></path>
            </g>
        </g>
    </g>
</svg>