<?xml version="1.0" encoding="UTF-8"?>
<svg width="18px" height="18px" viewBox="0 0 18 18" version="1.1" xmlns="http://www.w3.org/2000/svg" xmlns:xlink="http://www.w3.org/1999/xlink">
    <title>卡片视图</title>
    <g id="设计规范" stroke="none" stroke-width="1" fill="none" fill-rule="evenodd">
        <g id="ICON" transform="translate(-1185.000000, -607.000000)" fill-rule="nonzero">
            <g id="列表-copy-5" transform="translate(1185.000000, 607.000000)">
                <rect id="Rectangle" fill="#3280FE" opacity="0" x="0" y="0" width="18" height="18"></rect>
                <path d="M6.60473437,8.41369922 L3.02197852,8.41369922 C2.03421094,8.41369922 1.23046875,7.60992188 1.23046875,6.62218945 L1.23046875,3.03943359 C1.23046875,2.05178906 2.03421094,1.24804688 3.02197852,1.24804688 L6.60473437,1.24804688 C7.59237891,1.24804688 8.39612109,2.05178906 8.39612109,3.03955664 L8.39612109,6.6223125 C8.39612109,7.60992188 7.59236133,8.41369922 6.60473437,8.41369922 L6.60473437,8.41369922 L6.60473437,8.41369922 Z M3.02197852,2.44235742 C2.69286328,2.44235742 2.42481445,2.7105293 2.42481445,3.03955664 L2.42481445,6.6223125 C2.42481445,6.95128711 2.69296875,7.21945898 3.02197852,7.21945898 L6.60473437,7.21945898 C6.93370898,7.21945898 7.20189844,6.95128711 7.20189844,6.6223125 L7.20189844,3.03955664 C7.20189844,2.71044141 6.93370898,2.44235742 6.60473437,2.44235742 L3.02197852,2.44235742 L3.02197852,2.44235742 Z M6.60473437,16.7736445 L3.02197852,16.7736445 C2.03421094,16.7736445 1.23046875,15.9699023 1.23046875,14.9822754 L1.23046875,11.3993965 C1.23046875,10.411752 2.03421094,9.6079043 3.02197852,9.6079043 L6.60473437,9.6079043 C7.59237891,9.6079043 8.39612109,10.411752 8.39612109,11.3993965 L8.39612109,14.9822754 C8.39612109,15.9697969 7.59236133,16.7736445 6.60473437,16.7736445 L6.60473437,16.7736445 L6.60473437,16.7736445 Z M3.02197852,10.8023203 C2.69286328,10.8023203 2.42481445,11.0697363 2.42481445,11.3993965 L2.42481445,14.9822754 C2.42481445,15.3117773 2.69296875,15.5792988 3.02197852,15.5792988 L6.60473437,15.5792988 C6.93370898,15.5792988 7.20189844,15.3117773 7.20189844,14.9822754 L7.20189844,11.3993965 C7.20189844,11.0697363 6.93370898,10.8023203 6.60473437,10.8023203 L3.02197852,10.8023203 L3.02197852,10.8023203 Z" id="Shape" fill="#AAADB8"></path>
                <path d="M15.4992656,8.29065234 L11.9165098,8.29065234 C10.9287422,8.29065234 10.125,7.486875 10.125,6.49914258 L10.125,2.91638672 C10.125,1.92874219 10.9287422,1.125 11.9165098,1.125 L15.4992656,1.125 C16.4869102,1.125 17.2906523,1.92874219 17.2906523,2.91650977 L17.2906523,6.49926563 C17.2906523,7.486875 16.4868926,8.29065234 15.4992656,8.29065234 L15.4992656,8.29065234 L15.4992656,8.29065234 Z M11.9165098,2.31931055 C11.5873945,2.31931055 11.3193457,2.58748242 11.3193457,2.91650977 L11.3193457,6.49926563 C11.3193457,6.82824023 11.5875,7.09641211 11.9165098,7.09641211 L15.4992656,7.09641211 C15.8282402,7.09641211 16.0964297,6.82824023 16.0964297,6.49926563 L16.0964297,2.91650977 C16.0964297,2.58739453 15.8282402,2.31931055 15.4992656,2.31931055 L11.9165098,2.31931055 L11.9165098,2.31931055 Z M15.4992656,16.6505977 L11.9165098,16.6505977 C10.9287422,16.6505977 10.125,15.8468555 10.125,14.8592285 L10.125,11.2763496 C10.125,10.2887051 10.9287422,9.48485742 11.9165098,9.48485742 L15.4992656,9.48485742 C16.4869102,9.48485742 17.2906523,10.2887051 17.2906523,11.2763496 L17.2906523,14.8592285 C17.2906523,15.84675 16.4868926,16.6505977 15.4992656,16.6505977 L15.4992656,16.6505977 L15.4992656,16.6505977 Z M11.9165098,10.6792734 C11.5873945,10.6792734 11.3193457,10.9466895 11.3193457,11.2763496 L11.3193457,14.8592285 C11.3193457,15.1887305 11.5875,15.456252 11.9165098,15.456252 L15.4992656,15.456252 C15.8282402,15.456252 16.0964297,15.1887305 16.0964297,14.8592285 L16.0964297,11.2763496 C16.0964297,10.9466895 15.8282402,10.6792734 15.4992656,10.6792734 L11.9165098,10.6792734 L11.9165098,10.6792734 Z" id="Shape-Copy" fill="#AAADB8"></path>
            </g>
        </g>
    </g>
</svg>