<?xml version="1.0" encoding="UTF-8"?>
<svg width="24px" height="24px" viewBox="0 0 24 24" version="1.1" xmlns="http://www.w3.org/2000/svg" xmlns:xlink="http://www.w3.org/1999/xlink">
    <defs>
        <linearGradient x1="72.281901%" y1="100%" x2="18.3463542%" y2="0%" id="linearGradient-1">
            <stop stop-color="#FF0808" offset="0%"></stop>
            <stop stop-color="#FFA3A3" offset="100%"></stop>
        </linearGradient>
        <linearGradient x1="9.05902142%" y1="2.03342007%" x2="85.3146332%" y2="91.6750193%" id="linearGradient-2">
            <stop stop-color="#FFFFFF" stop-opacity="0.263193837" offset="0%"></stop>
            <stop stop-color="#FFFFFF" stop-opacity="0.194585498" offset="99.6922705%"></stop>
            <stop stop-color="#FFFFFF" stop-opacity="0.0893247378" offset="100%"></stop>
        </linearGradient>
        <linearGradient x1="50%" y1="0%" x2="50%" y2="100%" id="linearGradient-3">
            <stop stop-color="#F5515F" offset="0%"></stop>
            <stop stop-color="#9F041B" offset="100%"></stop>
        </linearGradient>
        <linearGradient x1="50%" y1="100%" x2="50%" y2="-34.8722458%" id="linearGradient-4">
            <stop stop-color="#FFEEB0" offset="0%"></stop>
            <stop stop-color="#FFD005" offset="100%"></stop>
        </linearGradient>
    </defs>
    <g id="设计规范" stroke="none" stroke-width="1" fill="none" fill-rule="evenodd">
        <g id="ICON" transform="translate(-860.000000, -273.000000)">
            <g id="编组" transform="translate(860.000000, 273.000000)">
                <rect id="矩形" fill="#000000" fill-rule="nonzero" opacity="0" x="0" y="0" width="24" height="24"></rect>
                <path d="M11.9835937,2 C6.47020089,2 1.98359375,6.48660714 1.98359375,12 C1.98359375,17.5133929 6.47020089,22 11.9835937,22 C17.4969866,22 21.9835937,17.5133929 21.9835937,12 C21.9835937,6.48660714 17.4992187,2 11.9835937,2 Z" id="路径" fill="url(#linearGradient-1)"></path>
                <path d="M12,2 C15.0113556,2 17.715315,3.33737336 19.5499066,5.44905887 C17.7942235,3.92419388 15.5033251,3 13,3 C7.48660714,3 3,7.48660714 3,13 C3,15.502784 3.92454253,17.7939811 5.44998404,19.5499478 C3.33779277,17.7150562 2,15.0106089 2,12 C2,6.48660714 6.48660714,2 12,2 Z" id="形状结合" fill="url(#linearGradient-2)"></path>
                <path d="M17.7164063,14.9320313 L13.265625,12.3773438 L13.265625,6.6328125 C13.265625,6.28359375 12.9820313,6 12.6328125,6 C12.2835938,6 12,6.28359375 12,6.6328125 L12,12.7429688 C12,12.75 12.0023438,12.7570313 12.0023438,12.7640625 C12.0023438,12.7875 12.0070313,12.8085938 12.009375,12.8320313 C12.0117188,12.8507813 12.0140625,12.8695313 12.01875,12.890625 C12.0234375,12.9117188 12.0304688,12.9304688 12.0375,12.9492188 C12.0445313,12.9679688 12.0515625,12.9890625 12.0585938,13.0054688 C12.0679688,13.0242188 12.0773438,13.040625 12.0867188,13.059375 C12.0960938,13.0757813 12.1054688,13.0945313 12.1171875,13.1109375 C12.1289063,13.1273438 12.1429688,13.14375 12.1570313,13.1578125 C12.1710938,13.1742188 12.1828125,13.1882813 12.1992188,13.2023438 C12.2132813,13.2164063 12.2296875,13.228125 12.24375,13.2398438 C12.2625,13.2539063 12.2789063,13.2679688 12.2976563,13.2796875 C12.3046875,13.284375 12.309375,13.2890625 12.3140625,13.2914063 L17.08125,16.0265625 C17.1796875,16.0851563 17.2898438,16.1109375 17.3976563,16.1109375 C17.615625,16.1109375 17.8289063,15.9984375 17.9460938,15.7945313 C18.121875,15.4921875 18.01875,15.1054688 17.7164063,14.9320313 L17.7164063,14.9320313 Z" id="路径备份-15" fill="url(#linearGradient-3)" fill-rule="nonzero" opacity="0.2"></path>
                <path d="M17.0671875,14.1890625 L12.6164062,11.634375 L12.6164062,5.88984375 C12.6164062,5.540625 12.3328125,5.25703125 11.9835937,5.25703125 C11.634375,5.25703125 11.3507812,5.540625 11.3507812,5.88984375 L11.3507812,12 C11.3507812,12.0070312 11.353125,12.0140625 11.353125,12.0210937 C11.353125,12.0445312 11.3578125,12.065625 11.3601562,12.0890625 C11.3625,12.1078125 11.3648437,12.1265625 11.3695312,12.1476562 C11.3742187,12.16875 11.38125,12.1875 11.3882812,12.20625 C11.3953125,12.225 11.4023437,12.2460938 11.409375,12.2625 C11.41875,12.28125 11.428125,12.2976562 11.4375,12.3164062 C11.446875,12.3328125 11.45625,12.3515625 11.4679687,12.3679687 C11.4796875,12.384375 11.49375,12.4007812 11.5078125,12.4148437 C11.521875,12.43125 11.5335937,12.4453125 11.55,12.459375 C11.5640625,12.4734375 11.5804687,12.4851562 11.5945312,12.496875 C11.6132812,12.5109375 11.6296875,12.525 11.6484375,12.5367187 C11.6554687,12.5414063 11.6601562,12.5460937 11.6648437,12.5484375 L16.4320312,15.2835937 C16.5304687,15.3421875 16.640625,15.3679687 16.7484375,15.3679687 C16.9664062,15.3679687 17.1796875,15.2554688 17.296875,15.0515625 C17.4726562,14.7492188 17.3695312,14.3625 17.0671875,14.1890625 L17.0671875,14.1890625 Z" id="路径" fill="url(#linearGradient-4)" fill-rule="nonzero"></path>
            </g>
            <g id="编组" transform="translate(860.000000, 273.000000)">
                <rect id="矩形" fill="#000000" fill-rule="nonzero" opacity="0" x="0" y="0" width="24" height="24"></rect>
                <path d="M11.9835937,2 C6.47020089,2 1.98359375,6.48660714 1.98359375,12 C1.98359375,17.5133929 6.47020089,22 11.9835937,22 C17.4969866,22 21.9835937,17.5133929 21.9835937,12 C21.9835937,6.48660714 17.4992187,2 11.9835937,2 Z" id="路径" fill="url(#linearGradient-1)"></path>
                <path d="M12,2 C15.0113556,2 17.715315,3.33737336 19.5499066,5.44905887 C17.7942235,3.92419388 15.5033251,3 13,3 C7.48660714,3 3,7.48660714 3,13 C3,15.502784 3.92454253,17.7939811 5.44998404,19.5499478 C3.33779277,17.7150562 2,15.0106089 2,12 C2,6.48660714 6.48660714,2 12,2 Z" id="形状结合" fill="url(#linearGradient-2)"></path>
                <path d="M17.7164063,14.9320313 L13.265625,12.3773438 L13.265625,6.6328125 C13.265625,6.28359375 12.9820313,6 12.6328125,6 C12.2835938,6 12,6.28359375 12,6.6328125 L12,12.7429688 C12,12.75 12.0023438,12.7570313 12.0023438,12.7640625 C12.0023438,12.7875 12.0070313,12.8085938 12.009375,12.8320313 C12.0117188,12.8507813 12.0140625,12.8695313 12.01875,12.890625 C12.0234375,12.9117188 12.0304688,12.9304688 12.0375,12.9492188 C12.0445313,12.9679688 12.0515625,12.9890625 12.0585938,13.0054688 C12.0679688,13.0242188 12.0773438,13.040625 12.0867188,13.059375 C12.0960938,13.0757813 12.1054688,13.0945313 12.1171875,13.1109375 C12.1289063,13.1273438 12.1429688,13.14375 12.1570313,13.1578125 C12.1710938,13.1742188 12.1828125,13.1882813 12.1992188,13.2023438 C12.2132813,13.2164063 12.2296875,13.228125 12.24375,13.2398438 C12.2625,13.2539063 12.2789063,13.2679688 12.2976563,13.2796875 C12.3046875,13.284375 12.309375,13.2890625 12.3140625,13.2914063 L17.08125,16.0265625 C17.1796875,16.0851563 17.2898438,16.1109375 17.3976563,16.1109375 C17.615625,16.1109375 17.8289063,15.9984375 17.9460938,15.7945313 C18.121875,15.4921875 18.01875,15.1054688 17.7164063,14.9320313 L17.7164063,14.9320313 Z" id="路径备份-15" fill="url(#linearGradient-3)" fill-rule="nonzero" opacity="0.2"></path>
                <path d="M17.0671875,14.1890625 L12.6164062,11.634375 L12.6164062,5.88984375 C12.6164062,5.540625 12.3328125,5.25703125 11.9835937,5.25703125 C11.634375,5.25703125 11.3507812,5.540625 11.3507812,5.88984375 L11.3507812,12 C11.3507812,12.0070312 11.353125,12.0140625 11.353125,12.0210937 C11.353125,12.0445312 11.3578125,12.065625 11.3601562,12.0890625 C11.3625,12.1078125 11.3648437,12.1265625 11.3695312,12.1476562 C11.3742187,12.16875 11.38125,12.1875 11.3882812,12.20625 C11.3953125,12.225 11.4023437,12.2460938 11.409375,12.2625 C11.41875,12.28125 11.428125,12.2976562 11.4375,12.3164062 C11.446875,12.3328125 11.45625,12.3515625 11.4679687,12.3679687 C11.4796875,12.384375 11.49375,12.4007812 11.5078125,12.4148437 C11.521875,12.43125 11.5335937,12.4453125 11.55,12.459375 C11.5640625,12.4734375 11.5804687,12.4851562 11.5945312,12.496875 C11.6132812,12.5109375 11.6296875,12.525 11.6484375,12.5367187 C11.6554687,12.5414063 11.6601562,12.5460937 11.6648437,12.5484375 L16.4320312,15.2835937 C16.5304687,15.3421875 16.640625,15.3679687 16.7484375,15.3679687 C16.9664062,15.3679687 17.1796875,15.2554688 17.296875,15.0515625 C17.4726562,14.7492188 17.3695312,14.3625 17.0671875,14.1890625 L17.0671875,14.1890625 Z" id="路径" fill="url(#linearGradient-4)" fill-rule="nonzero"></path>
            </g>
        </g>
    </g>
</svg>