<?xml version="1.0" encoding="UTF-8"?>
<svg width="18px" height="18px" viewBox="0 0 18 18" version="1.1" xmlns="http://www.w3.org/2000/svg" xmlns:xlink="http://www.w3.org/1999/xlink">
    <title>换肤</title>
    <defs>
        <linearGradient x1="9.57769532%" y1="21.2691686%" x2="88.0433971%" y2="86.3343187%" id="linearGradient-1">
            <stop stop-color="#FFD075" offset="0%"></stop>
            <stop stop-color="#FF8B8B" offset="100%"></stop>
        </linearGradient>
    </defs>
    <g id="设计规范" stroke="none" stroke-width="1" fill="none" fill-rule="evenodd">
        <g id="ICON" transform="translate(-321.000000, -659.000000)" fill-rule="nonzero">
            <g id="皮肤" transform="translate(321.000000, 659.000000)">
                <rect id="矩形" fill="#000000" opacity="0" x="0" y="0" width="18" height="18"></rect>
                <path d="M5.11875,1.6875 L4.5,1.6875 C4.10625,1.6875 3.825,1.8 3.628125,2.025 L0.759375,4.865625 C0.309375,5.315625 0.309375,6.01875 0.759375,6.440625 L2.41875,8.1 C2.615625,8.296875 2.896875,8.409375 3.15,8.409375 C3.403125,8.409375 3.684375,8.296875 3.88125,8.1 L3.909375,8.1 C3.9375,8.1 3.9375,8.1 3.9375,8.128125 L3.9375,14.0625 C3.9375,15.3 4.95,16.3125 6.1875,16.3125 L11.8125,16.3125 C13.05,16.3125 14.0625,15.3 14.0625,14.0625 L14.0625,8.128125 C14.0625,8.1 14.0625,8.1 14.090625,8.1 L14.11875,8.1 C14.315625,8.296875 14.596875,8.409375 14.85,8.409375 C15.13125,8.409375 15.384375,8.296875 15.58125,8.1 L17.240625,6.440625 C17.690625,5.990625 17.690625,5.2875 17.240625,4.865625 L14.4,2.025 C14.175,1.8 13.89375,1.6875 13.584375,1.6875 L12.88125,1.6875 C12.4875,1.6875 12.15,1.884375 11.925,2.221875 C11.334375,3.09375 10.2375,3.65625 8.971875,3.65625 C7.70625,3.65625 6.609375,3.065625 6.01875,2.221875 C5.85,1.884375 5.484375,1.6875 5.11875,1.6875 Z" id="路径" fill="url(#linearGradient-1)"></path>
            </g>
        </g>
    </g>
</svg>