<?xml version="1.0" encoding="UTF-8"?>
<svg width="24px" height="24px" viewBox="0 0 24 24" version="1.1" xmlns="http://www.w3.org/2000/svg" xmlns:xlink="http://www.w3.org/1999/xlink">
    <title>德国</title>
    <defs>
        <path d="M0.282166863,7.34118519 C1.19783741,3.55944618 4.30568312,0.704444879 8.15136264,0.11220208 C11.9970422,-0.480040719 15.8198681,1.30762246 17.8309182,4.63864028 C19.8419684,7.9696581 19.6434509,12.1851448 17.3282635,15.3124295 C15.0130761,18.4397143 11.0391701,19.8602103 7.26616686,18.9091852 C4.80388079,18.3048819 2.68341867,16.7452988 1.37303324,14.5748323 C0.0626478048,12.4043657 -0.329866767,9.80156119 0.282166863,7.34118519" id="path-1"></path>
    </defs>
    <g id="设计规范" stroke="none" stroke-width="1" fill="none" fill-rule="evenodd">
        <g id="ICON" transform="translate(-282.000000, -1078.000000)">
            <g id="德国" transform="translate(282.000000, 1078.000000)">
                <rect id="矩形" fill="#000000" fill-rule="nonzero" opacity="0" x="0" y="0" width="24" height="24"></rect>
                <g id="国旗" transform="translate(2.441833, 2.366815)">
                    <mask id="mask-2" fill="white">
                        <use xlink:href="#path-1"></use>
                    </mask>
                    <use id="蒙版" fill="#E72D14" fill-rule="nonzero" xlink:href="#path-1"></use>
                    <g id="德国" mask="url(#mask-2)" fill-rule="nonzero">
                        <g transform="translate(-2.441833, -2.366815)">
                            <rect id="矩形" fill="#000000" opacity="0" x="0" y="0" width="24" height="24"></rect>
                            <path d="M21.228,8.4 L2.748,8.4 C4.188,4.704 7.776,2.088 11.988,2.088 C16.188,2.088 19.788,4.704 21.228,8.4 Z" id="路径" fill="#000000"></path>
                            <path d="M21.372,15.18 C20.04,19.092 16.344,21.9 11.988,21.9 C8.508,21.9 5.448,20.112 3.684,17.4 C3.228,16.704 2.868,15.96 2.604,15.18 L21.372,15.18 Z" id="路径" fill="#FFCE00"></path>
                            <path d="M21.9,11.988 C21.9,13.104 21.72,14.172 21.372,15.18 L2.604,15.18 C2.256,14.148 2.076,13.08 2.076,11.988 C2.076,10.716 2.316,9.504 2.748,8.4 L21.216,8.4 C21.66,9.516 21.9,10.728 21.9,11.988 L21.9,11.988 Z" id="路径" fill="#DD0000"></path>
                        </g>
                    </g>
                </g>
            </g>
        </g>
    </g>
</svg>