<?xml version="1.0" encoding="UTF-8"?>
<svg width="18px" height="18px" viewBox="0 0 18 18" version="1.1" xmlns="http://www.w3.org/2000/svg" xmlns:xlink="http://www.w3.org/1999/xlink">
    <title>移除</title>
    <g id="设计规范" stroke="none" stroke-width="1" fill="none" fill-rule="evenodd">
        <g id="ICON" transform="translate(-378.000000, -659.000000)" fill-rule="nonzero">
            <g id="编组" transform="translate(378.000000, 659.000000)">
                <rect id="矩形" fill="#000000" opacity="0" x="0" y="0" width="18" height="18"></rect>
                <path d="M7.3125,6.75 C6.975,6.75 6.75,6.975 6.75,7.3125 L6.75,12.9375 C6.75,13.275 6.975,13.5 7.3125,13.5 C7.65,13.5 7.875,13.275 7.875,12.9375 L7.875,7.3125 C7.875,6.975 7.65,6.75 7.3125,6.75 Z M16.3125,3.375 L12.375,3.375 L12.375,2.8125 C12.375,1.85625 11.64375,1.125 10.6875,1.125 L7.3125,1.125 C6.35625,1.125 5.625,1.85625 5.625,2.8125 L5.625,3.375 L1.6875,3.375 C1.35,3.375 1.125,3.6 1.125,3.9375 C1.125,4.275 1.35,4.5 1.6875,4.5 L2.8125,4.5 L2.8125,15.1875 C2.8125,16.14375 3.54375,16.875 4.5,16.875 L13.5,16.875 C14.45625,16.875 15.1875,16.14375 15.1875,15.1875 L15.1875,4.5 L16.3125,4.5 C16.65,4.5 16.875,4.275 16.875,3.9375 C16.875,3.6 16.65,3.375 16.3125,3.375 Z M6.75,2.8125 C6.75,2.475 6.975,2.25 7.3125,2.25 L10.6875,2.25 C11.025,2.25 11.25,2.475 11.25,2.8125 L11.25,3.375 L6.75,3.375 L6.75,2.8125 Z M14.0625,15.1875 C14.0625,15.525 13.8375,15.75 13.5,15.75 L4.5,15.75 C4.1625,15.75 3.9375,15.525 3.9375,15.1875 L3.9375,4.5 L14.0625,4.5 L14.0625,15.1875 Z M10.6875,6.75 C10.35,6.75 10.125,6.975 10.125,7.3125 L10.125,12.9375 C10.125,13.275 10.35,13.5 10.6875,13.5 C11.025,13.5 11.25,13.275 11.25,12.9375 L11.25,7.3125 C11.25,6.975 11.025,6.75 10.6875,6.75 Z" id="形状" fill="#FFFFFF"></path>
            </g>
        </g>
    </g>
</svg>