<?xml version="1.0" encoding="UTF-8"?>
<svg width="18px" height="18px" viewBox="0 0 18 18" version="1.1" xmlns="http://www.w3.org/2000/svg" xmlns:xlink="http://www.w3.org/1999/xlink">
    <title>编辑</title>
    <g id="设计规范" stroke="none" stroke-width="1" fill="none" fill-rule="evenodd">
        <g id="ICON" transform="translate(-435.000000, -659.000000)" fill-rule="nonzero">
            <g id="编辑" transform="translate(435.000000, 659.000000)">
                <rect id="矩形" fill="#000000" opacity="0" x="0" y="0" width="18" height="18"></rect>
                <path d="M2.12727273,16.0363636 L15.9545455,16.0363636 L15.9545455,17.1818182 L2.12727273,17.1818182 L2.12727273,16.0363636 Z M3.1090909,13.7454545 L3.27272727,13.7454545 L6.87272727,12.6 C6.95454544,12.6 7.03636363,12.5181818 7.11818183,12.4363636 L15.3,4.25454546 C15.3818182,4.17272729 15.4636364,4.00909092 15.4636364,3.84545454 C15.4636364,3.68181816 15.3818182,3.51818181 15.3,3.43636363 L12.7636364,0.9 C12.5181818,0.654545461 12.1909091,0.654545461 11.9454545,0.9 L3.76363637,9.08181817 C3.68181819,9.16363635 3.68181819,9.24545454 3.6,9.32727273 L2.45454546,12.9272727 C2.37272729,13.1727273 2.45454546,13.3363636 2.61818183,13.5 C2.78181819,13.6636364 2.94545456,13.7454545 3.1090909,13.7454545 Z M4.74545454,9.81818183 L12.3545455,2.2090909 L14.0727273,3.92727273 L6.46363637,11.5363636 L4.0090909,12.2727273 L4.74545454,9.81818183 Z" id="形状" fill="#FFFFFF"></path>
            </g>
        </g>
    </g>
</svg>