<?xml version="1.0" encoding="UTF-8"?>
<svg width="24px" height="24px" viewBox="0 0 24 24" version="1.1" xmlns="http://www.w3.org/2000/svg" xmlns:xlink="http://www.w3.org/1999/xlink">
    <title>英国</title>
    <defs>
        <path d="M0.282166863,7.34118519 C1.19783741,3.55944618 4.30568312,0.704444879 8.15136264,0.11220208 C11.9970422,-0.480040719 15.8198681,1.30762246 17.8309182,4.63864028 C19.8419684,7.9696581 19.6434509,12.1851448 17.3282635,15.3124295 C15.0130761,18.4397143 11.0391701,19.8602103 7.26616686,18.9091852 C4.80388079,18.3048819 2.68341867,16.7452988 1.37303324,14.5748323 C0.0626478048,12.4043657 -0.329866767,9.80156119 0.282166863,7.34118519" id="path-1"></path>
    </defs>
    <g id="设计规范" stroke="none" stroke-width="1" fill="none" fill-rule="evenodd">
        <g id="ICON" transform="translate(-216.000000, -1126.000000)">
            <g id="英国" transform="translate(216.000000, 1126.000000)">
                <rect id="矩形" fill="#000000" fill-rule="nonzero" opacity="0" x="0" y="0" width="24" height="24"></rect>
                <g id="国旗" transform="translate(2.441833, 2.366815)">
                    <mask id="mask-2" fill="white">
                        <use xlink:href="#path-1"></use>
                    </mask>
                    <use id="蒙版" fill="#E72D14" fill-rule="nonzero" xlink:href="#path-1"></use>
                    <g id="英国" mask="url(#mask-2)" fill-rule="nonzero">
                        <g transform="translate(-0.441833, -0.366815)">
                            <rect id="矩形" fill="#000000" opacity="0" x="0" y="0" width="20" height="20"></rect>
                            <path d="M0,10 C0,15.5228475 4.4771525,20 10,20 C15.5228475,20 20,15.5228475 20,10 C20,4.4771525 15.5228475,0 10,0 C4.4771525,0 0,4.4771525 0,10 Z" id="路径" fill="#F0F0F0"></path>
                            <path d="M2.0671875,3.91179687 C1.28167969,4.93378906 0.689375,6.11171875 0.344492187,7.39136719 L5.54675781,7.39136719 L2.0671875,3.91179687 Z M19.6555078,7.39136719 C19.310625,6.11175781 18.7182813,4.93382812 17.9328125,3.91183594 L14.4533203,7.39136719 L19.6555078,7.39136719 L19.6555078,7.39136719 Z M0.344492187,12.60875 C0.689414062,13.8883594 1.28171875,15.0662891 2.0671875,16.0882422 L5.54664062,12.60875 L0.344492187,12.60875 Z M16.0882031,2.06722656 C15.0662109,1.28171875 13.8883203,0.689414062 12.6086719,0.344492187 L12.6086719,5.54671875 L16.0882031,2.06722656 L16.0882031,2.06722656 Z M3.91179687,17.9327734 C4.93378906,18.7182812 6.11171875,19.3105859 7.39132813,19.6555078 L7.39132813,14.4533203 L3.91179687,17.9327734 Z M7.39128906,0.344492187 C6.11167969,0.689414062 4.93375,1.28171875 3.91179687,2.0671875 L7.39128906,5.54667969 L7.39128906,0.344492187 Z M12.6087109,19.6555078 C13.8883203,19.3105859 15.06625,18.7182812 16.0882031,17.9328125 L12.6087109,14.4533203 L12.6087109,19.6555078 Z M14.4533203,12.60875 L17.9328125,16.0882812 C18.7182812,15.0663281 19.310625,13.8883594 19.6555078,12.60875 L14.4533203,12.60875 L14.4533203,12.60875 Z" id="形状" fill="#0052B4"></path>
                            <path d="M19.9153516,8.69566406 L11.304375,8.69566406 L11.304375,0.0846484375 C10.8718672,0.0282970723 10.4361633,0 10,0 C9.56384952,0 9.12815838,0.0282932539 8.69566406,0.0846484375 L8.69566406,8.695625 L0.0846484375,8.695625 C0.0282970723,9.12813278 0,9.56383667 0,10 C0,10.4421484 0.0290625,10.8773828 0.0846484375,11.3043359 L8.695625,11.3043359 L8.695625,19.9153516 C9.56153304,20.0282161 10.4384279,20.0282161 11.3043359,19.9153516 L11.3043359,11.304375 L19.9153516,11.304375 C19.9717054,10.8718675 20,10.4361634 20,10 C20,9.55792969 19.9709375,9.12261719 19.9153516,8.69566406 Z" id="路径" fill="#D80027"></path>
                            <path d="M12.6087109,12.6087109 L17.0710547,17.0710937 C17.2761947,16.8657078 17.4723171,16.6515086 17.6588672,16.4291016 L13.8384766,12.6087109 L12.6087109,12.6087109 L12.6087109,12.6087109 Z M7.39128906,12.60875 L7.39121094,12.60875 L2.92890625,17.0710547 C3.13429218,17.2761947 3.34849144,17.4723171 3.57089844,17.6588672 L7.39128906,13.8383984 L7.39128906,12.60875 L7.39128906,12.60875 Z M7.39128906,7.39136719 L7.39128906,7.39128906 L2.92894531,2.92890625 C2.72380526,3.13429218 2.52768293,3.34849144 2.34113281,3.57089844 L6.1615625,7.39136719 L7.39128906,7.39136719 L7.39128906,7.39136719 Z M12.6087109,7.39136719 L17.0710937,2.92894531 C16.8657175,2.72380759 16.6515177,2.52769787 16.4291016,2.34117187 L12.6087109,6.16160156 L12.6087109,7.39136719 Z" id="形状" fill="#D80027"></path>
                        </g>
                    </g>
                </g>
            </g>
        </g>
    </g>
</svg>