<?xml version="1.0" encoding="UTF-8"?>
<svg width="24px" height="24px" viewBox="0 0 24 24" version="1.1" xmlns="http://www.w3.org/2000/svg" xmlns:xlink="http://www.w3.org/1999/xlink">
    <title>西班牙</title>
    <defs>
        <path d="M0.282166863,7.34118519 C1.19783741,3.55944618 4.30568312,0.704444879 8.15136264,0.11220208 C11.9970422,-0.480040719 15.8198681,1.30762246 17.8309182,4.63864028 C19.8419684,7.9696581 19.6434509,12.1851448 17.3282635,15.3124295 C15.0130761,18.4397143 11.0391701,19.8602103 7.26616686,18.9091852 C4.80388079,18.3048819 2.68341867,16.7452988 1.37303324,14.5748323 C0.0626478048,12.4043657 -0.329866767,9.80156119 0.282166863,7.34118519" id="path-1"></path>
    </defs>
    <g id="设计规范" stroke="none" stroke-width="1" fill="none" fill-rule="evenodd">
        <g id="ICON" transform="translate(-216.000000, -1174.000000)">
            <g id="西班牙" transform="translate(216.000000, 1174.000000)">
                <rect id="矩形" fill="#000000" fill-rule="nonzero" opacity="0" x="0" y="0" width="24" height="24"></rect>
                <g id="国旗" transform="translate(2.441833, 2.366815)">
                    <mask id="mask-2" fill="white">
                        <use xlink:href="#path-1"></use>
                    </mask>
                    <use id="蒙版" fill="#E72D14" fill-rule="nonzero" xlink:href="#path-1"></use>
                    <g id="西班牙" mask="url(#mask-2)" fill-rule="nonzero">
                        <g transform="translate(-1.441833, -1.366815)">
                            <rect id="矩形" fill="#000000" opacity="0" x="0" y="0" width="22" height="22"></rect>
                            <path d="M2.784375,15.8683594 C2.67050781,15.7910156 2.63828125,15.6578125 2.57597656,15.5482422 C2.24941406,14.9703125 2.00449219,14.3558594 1.81328125,13.7199219 C1.50605469,12.7037109 1.38789062,11.6638672 1.42441406,10.6046875 C1.47382812,9.23828125 1.80898437,7.94277344 2.41269531,6.71816406 C2.56953125,6.39804687 2.74570312,6.08867187 2.94550781,5.79433594 C3.025,5.74277344 3.11523437,5.7578125 3.20332031,5.7578125 L18.7966797,5.7578125 C18.8804687,5.7578125 18.9642578,5.74492187 19.0416016,5.7921875 C19.3380859,6.21328125 19.5701172,6.67089844 19.7763672,7.14355469 C20.4337891,8.64746094 20.6851562,10.2179687 20.5390625,11.8529297 C20.4703125,12.6263672 20.315625,13.3826172 20.0578125,14.1152344 C19.8558594,14.6888672 19.6109375,15.2431641 19.2994141,15.7652344 C19.2757812,15.8039062 19.2607422,15.8511719 19.2113281,15.8683594" id="路径" fill="#FDC200"></path>
                            <path d="M19.1060547,15.8769531 C19.146875,15.8769531 19.1898438,15.8726562 19.2306641,15.8726562 C19.2220703,16.0058594 19.1232422,16.0960937 19.0566406,16.1970703 C18.1800781,17.5419922 17.0414063,18.6054687 15.6363281,19.3789062 C14.6544922,19.9203125 13.6103516,20.2769531 12.4996094,20.4466797 C11.2427734,20.6400391 9.99453125,20.5949219 8.76132813,20.2984375 C7.50449219,19.9976562 6.35507813,19.45625 5.31523437,18.6828125 C4.38066406,17.9888672 3.59863281,17.1509766 2.96269531,16.1755859 C2.90039062,16.0810547 2.81875,15.9929687 2.80585937,15.8726562 L19.1060547,15.8769531 Z M4.8640625,3.64375 C5.5859375,3.03789062 6.37871094,2.54804687 7.24453125,2.17851562 C7.99433594,1.85839844 8.76992187,1.63496094 9.57773438,1.51679687 C10.3404297,1.40507812 11.1117188,1.38144531 11.8787109,1.44804687 C12.9873047,1.54472656 14.0486328,1.82832031 15.05625,2.29667969 C16.2035156,2.83164062 17.2068359,3.56425781 18.0619141,4.49667969 C18.4185547,4.88554687 18.7537109,5.29375 19.0308594,5.74492187 C18.9642578,5.79003906 18.8869141,5.77070312 18.8138672,5.77070312 C14.3193359,5.77285156 9.82265625,5.77070312 5.328125,5.77070312 C4.60839844,5.77070312 3.89082031,5.77070312 3.17109375,5.76855469 C3.11738281,5.77285156 3.04433594,5.80507812 3.01425781,5.7234375 C3.52558594,4.93710937 4.14648437,4.24746094 4.8640625,3.64375 Z" id="形状" fill="#C40B1E"></path>
                            <path d="M10.6992188,12.3814453 C10.6669922,12.1751953 10.7078125,11.9710938 10.7207031,11.7669922 C10.7228516,11.7519531 10.725,11.7369141 10.7292969,11.721875 C10.7701172,11.6445312 10.8367187,11.584375 10.8882812,11.5134766 C11.0300781,11.4103516 11.1783203,11.3222656 11.3630859,11.3308594 C11.3953125,11.3330078 11.4232422,11.3136719 11.4533203,11.3029297 C11.7605469,11.3845703 11.9431641,11.5822266 12.0033203,11.89375 C12.0140625,11.9517578 12.0205078,12.0162109 12.0892578,12.0419922 C12.4072266,12.0699219 12.7273437,12.0505859 13.0453125,12.0527344 C13.4019531,12.0548828 13.3417969,12.0785156 13.3439453,12.3449219 C13.3460937,12.6048828 13.3332031,12.8626953 13.3482422,13.1226563 C13.3675781,13.475 13.3095703,13.8015625 13.0947266,14.0894531 C13.0882812,14.0958984 13.0796875,14.0980469 13.0710937,14.0980469 C12.9271484,14.1861328 12.7875,14.2785156 12.6242188,14.3257813 C12.4953125,14.3923828 12.3535156,14.3537109 12.2160156,14.3601563 C12.1601562,14.3623047 12.1042969,14.3601563 12.0505859,14.3601563 C11.8701172,14.3730469 11.7519531,14.2527344 11.6208984,14.1582031 C11.6037109,14.1453125 11.5908203,14.1302734 11.5757813,14.1152344 C11.5306641,14.0486328 11.4769531,13.9927734 11.4275391,13.9304688 C11.3716797,13.8445313 11.0322266,14.1539063 10.9806641,14.0658203 C10.9419922,13.8832031 10.9570313,13.5824219 10.9441406,13.3976563 C10.9398438,13.3417969 10.9248047,12.6736328 10.9162109,12.6199219" id="路径" fill="#AA1619"></path>
                            <path d="M11.9796875,11.9410156 C11.9238281,11.6939453 11.8378906,11.4705078 11.5585938,11.3996094 C11.5177734,11.3888672 11.5091797,11.3136719 11.4490234,11.3501953 C11.3566406,11.3458984 11.3029297,11.309375 11.3029297,11.2083984 C11.3029297,10.8023437 11.2986328,10.3962891 11.3050781,9.99023437 C11.3050781,9.96660156 11.3115234,9.94511719 11.3201172,9.92363281 C11.3652344,9.84414062 11.4404297,9.83125 11.5220703,9.82910156 C12.0806641,9.8140625 12.6414062,9.85273437 13.2,9.83984375 C13.3224609,9.83769531 13.3396484,9.90859375 13.3460937,10.0095703 C13.3632812,10.3791016 13.3525391,10.7486328 13.3611328,11.1181641 C13.4126953,11.2921875 13.3998047,11.4640625 13.3460937,11.6337891 C13.3826172,11.75625 13.3332031,11.8787109 13.3417969,12.0011719 C13.3460937,12.0591797 13.3074219,12.0785156 13.2515625,12.0763672 C12.8455078,12.0720703 12.4394531,12.0914062 12.0355469,12.0699219 C11.9775391,12.0441406 11.9925781,11.9882812 11.9796875,11.9410156 Z" id="路径" fill="#DADADA"></path>
                            <path d="M12.6607422,9.70449219 C12.7080078,9.865625 12.4501953,9.79257812 12.3685547,9.82480469 C12.3449219,9.83339844 12.8541016,9.80546875 12.8304687,9.82910156 C13.0904297,9.82910156 12.8949219,9.8140625 13.1548828,9.8140625 C13.3697266,9.8140625 13.3697266,9.8140625 13.3697266,10.0353516 L13.3761719,11.1181641 C13.3654297,11.1289062 13.3546875,11.1289062 13.3439453,11.1181641 C13.3375,10.7486328 13.3246094,10.3791016 13.3246094,10.0095703 C13.3246094,9.89785156 13.2859375,9.865625 13.1806641,9.865625 C12.6220703,9.86777344 10.3318359,9.86992187 9.96875,9.865625 C9.69804687,9.75820312 10.003125,9.45742187 9.934375,9.53046875 L12.58125,9.53046875 C12.5339844,9.5734375 12.6478516,9.659375 12.6607422,9.70449219 Z" id="路径" fill="#9F8604"></path>
                            <path d="M11.1589844,7.66132812 C11.1890625,7.65273437 11.2191406,7.65273437 11.2513672,7.65488281 C11.3416016,7.6484375 11.4232422,7.68925781 11.5091797,7.70859375 C11.6144531,7.67207031 11.7197266,7.64628906 11.8314453,7.63339844 C12.0505859,7.60546875 12.2009766,7.74511719 12.375,7.83320312 C12.3964844,7.84394531 12.3943359,7.88261719 12.4373047,7.871875 C12.6736328,7.81171875 12.8992187,7.84394531 13.1140625,7.95566406 C13.3246094,8.06523437 13.4513672,8.284375 13.4341797,8.46914062 C13.4363281,8.70761719 12.9787109,9.32636719 12.5833984,9.53261719 L9.934375,9.53261719 C9.73671875,9.50898437 8.86230469,8.421875 9.10722656,8.0609375" id="路径" fill="#9F8604"></path>
                            <path d="M9.08789062,8.08242188 C9.28554687,7.65488281 10.0546875,7.84609375 10.1148438,7.85039063 C10.1964844,7.85683594 10.2716797,7.734375 10.3253906,7.66992188 C10.3253906,7.66992188 10.5402344,7.52597656 10.6712891,7.61191406 C10.8216797,7.67636719 11.0085938,7.73222656 11.1589844,7.66132813" id="路径" fill="#9F8604"></path>
                            <path d="M14.0078125,11.5134766 C13.9755859,11.5005859 13.95625,11.4511719 13.9132812,11.4683594 C13.7736328,11.5263672 13.6232422,11.5048828 13.4771484,11.5328125 C13.40625,11.5457031 13.371875,11.5800781 13.3439453,11.6337891 C13.3289062,11.4619141 13.3267578,11.2900391 13.3439453,11.1160156 L13.3761719,11.1160156 C13.5673828,11.1052734 13.7585937,11.0923828 13.9498047,11.0816406 C13.9712891,11.0708984 13.990625,11.0601562 14.0164062,11.0558594 C14.0787109,11.0494141 14.1410156,11.0515625 14.2011719,11.0623047 C14.3451172,11.1074219 14.5019531,11.0494141 14.64375,11.1160156 C14.7447266,11.2212891 14.8929687,11.240625 15.0089844,11.3201172 C15.1056641,11.3845703 15.1443359,11.4511719 15.0992188,11.5628906 C15.0820313,11.6015625 15.0734375,11.6423828 15.0626953,11.6810547 C15.0068359,11.8744141 14.8886719,11.9882812 14.678125,11.9839844" id="路径" fill="#AB2C17"></path>
                            <path d="M14.6630859,12.3341797 C14.7017578,12.3492187 14.7425781,12.3621094 14.7791016,12.3771484 C15.1142578,12.5210937 15.0734375,12.6027344 14.9982422,12.9078125 C14.9746094,13.0023437 14.85,13.0152344 14.8285156,13.1162109 C14.8263672,13.1291016 14.7876953,13.1076172 14.7769531,13.0861328 C14.746875,13.028125 14.7189453,12.9636719 14.7597656,12.9013672 C14.8220703,12.8025391 14.7748047,12.753125 14.6867187,12.7166016 C14.6738281,12.7230469 14.6609375,12.7251953 14.6480469,12.7251953 C14.5664062,12.6972656 14.4847656,12.6693359 14.4009766,12.6435547 C14.2914062,12.5984375 14.1839844,12.5490234 14.0722656,12.5060547 C13.9992187,12.4931641 13.9884766,12.409375 13.9304687,12.3771484 C13.9025391,12.3599609 13.8746094,12.3449219 13.8488281,12.3255859 C13.6833984,12.2009766 13.6361328,11.9882812 13.7457031,11.8164062 C13.7736328,11.7734375 13.8230469,11.7347656 13.8832031,11.7326172 C13.9326172,11.7326172 13.9734375,11.7154297 14.0078125,11.6810547" id="路径" fill="#AB1719"></path>
                            <path d="M8.84941406,12.2804687 C8.76347656,12.3212891 8.38105469,12.5876953 8.29082031,12.6199219 C8.21132812,12.6607422 8.12324219,12.6800781 8.04375,12.71875 C8.01367188,12.7337891 7.98144531,12.7251953 7.94921875,12.7230469 C7.86757812,12.7660156 7.87617188,12.8326172 7.90195313,12.9013672 C7.92558594,12.9658203 7.93847656,13.0345703 7.86972656,13.0753906 C7.79667969,13.1205078 7.65058594,12.8240234 7.60546875,12.7896484 C7.45292969,12.6714844 7.72792969,12.3792969 7.90195313,12.2890625 C8.12753906,12.1300781 8.61308594,11.7304687 8.66679688,11.6917969" id="路径" fill="#AA1819"></path>
                            <path d="M8.65605469,11.6595703 C8.75488281,11.6789062 8.92246094,11.7755859 8.9375,11.8894531 C8.95683594,12.0333984 9.02128906,12.1902344 8.83652344,12.2890625" id="路径" fill="#AA1819"></path>
                            <path d="M9.315625,11.4447266 C8.68613281,11.2470703 8.17050781,11.9861328 8.02011719,11.9861328 C7.81816406,11.9560547 7.44863281,11.6746094 7.48300781,11.4769531 C7.50234375,11.3695312 7.89550781,11.1890625 7.98789062,11.1460937 C8.02226562,11.0945312 9.19960937,11.0236328 9.315625,11.1117187" id="路径" fill="#A9231A"></path>
                            <path d="M8.86445313,14.0378906 C8.83867188,14.0701172 8.80429688,14.0787109 8.765625,14.0787109 C8.47773438,14.0851563 8.19199219,14.0851563 7.90410156,14.0787109 C7.86542969,14.0765625 7.83105469,14.0701172 7.80527344,14.0378906 C7.82246094,13.8660156 7.92988281,13.7285156 7.97714844,13.5673828 C7.99433594,13.5523438 8.01582031,13.5351563 8.03730469,13.5394531 C8.25,13.5802734 8.46269531,13.5373047 8.67539062,13.5394531 C8.70976562,13.5695313 8.73125,13.6511719 8.73125,13.6511719" id="路径" fill="#B9A303"></path>
                            <path d="M9.55839844,13.8982422 C9.56054688,13.3804687 9.55839844,12.8626953 9.55839844,12.3470703 C9.55839844,12.3105469 9.55625,12.271875 9.56054688,12.2353516 C9.56699219,12.1794922 9.57988281,12.1171875 9.64003906,12.1021484 C9.71523437,12.0828125 9.68300781,12.1666016 9.71738281,12.1923828 C9.728125,12.2009766 9.74316406,12.2009766 9.75605469,12.2052734 C9.796875,12.2460937 9.79257812,12.2998047 9.79257812,12.3492187 C9.79472656,12.9099609 9.79472656,13.4707031 9.79042969,14.0314453 C9.79042969,14.1001953 9.82265625,14.2226562 9.67011719,14.1818359 L9.53476563,14.0421875 C9.57773437,13.9992187 9.55839844,13.9455078 9.55839844,13.8982422 Z" id="路径" fill="#A31518"></path>
                            <path d="M11.6230469,14.1216797 C11.75625,14.1775391 11.8335937,14.3386719 12.0033203,14.3214844 C12.1,14.3623047 12.2052734,14.3429687 12.3019531,14.3708984 C12.3470703,14.3837891 12.4201172,14.3988281 12.3341797,14.4611328 C12.1773437,14.471875 12.0355469,14.5427734 11.8830078,14.5707031 C11.4189453,14.6673828 10.9613281,14.6373047 10.5080078,14.5126953 C10.4736328,14.4826172 10.4242187,14.4933594 10.3833984,14.4761719 C10.3382812,14.4568359 10.2931641,14.4310547 10.3125,14.3666016 C10.3339844,14.3472656 10.5208984,14.3558594 10.5488281,14.3537109 C10.6089844,14.3494141 10.8087891,14.2634766 10.8667969,14.2462891 C10.8925781,14.2398437 11.2556641,13.9820312 11.3416016,13.7607422" id="路径" fill="#CECECB"></path>
                            <path d="M14.6458984,12.7101562 L14.6867187,12.7144531 C14.6888672,13.028125 14.6523437,13.3417969 14.7082031,13.6533203 C14.7189453,13.7070312 14.7404297,13.7457031 14.7683594,13.7886719 C14.7554687,13.8660156 14.6888672,13.8574219 14.6373047,13.8595703 C14.4246094,13.8660156 14.2119141,13.8681641 13.9992187,13.8574219 C13.9433594,13.8552734 13.8595703,13.8660156 13.8746094,13.7607422 C13.9669922,13.6855469 13.9455078,13.5695312 13.9498047,13.4792969 C13.9648437,13.1376953 13.95625,12.7939453 13.95625,12.4501953 C13.95625,12.4244141 13.9390625,12.3986328 13.9304687,12.3728516 C13.9992187,12.3707031 14.0078125,12.4523437 14.0636719,12.4673828 C14.0507812,12.753125 14.0572266,13.0410156 14.0572266,13.3267578 C14.0572266,13.4835937 14.0701172,13.4921875 14.2205078,13.4964844 C14.2892578,13.4986328 14.3580078,13.4943359 14.4289062,13.4986328 C14.609375,13.4878906 14.6115234,13.4878906 14.6115234,13.3074219 C14.6136719,13.1613281 14.6115234,13.0152344 14.6115234,12.8669922 C14.6136719,12.8132812 14.6072266,12.7574219 14.6458984,12.7101562 Z" id="路径" fill="#A8920A"></path>
                            <path d="M9.53046875,12.2546875 C9.52402344,12.7337891 9.52617187,13.2150391 9.52832031,13.6941406 C9.52832031,13.7972656 9.52402344,13.8939453 9.47675781,13.9863281 C9.38652344,13.9390625 9.37363281,13.8423828 9.34140625,13.7607422 C9.35214844,13.7457031 9.36289062,13.7285156 9.35859375,13.7091797 C9.27050781,13.2107422 9.35,12.7101562 9.32421875,12.2095703 C9.32421875,12.1666016 9.33496094,12.1279297 9.3671875,12.0957031 C9.49824219,12.0699219 9.53261719,12.1279297 9.53046875,12.2546875 Z" id="路径" fill="#B8A100"></path>
                            <path d="M7.87617188,9.61425781 C7.940625,9.5734375 8.02441406,9.62070313 8.08671875,9.56914062 C8.27148438,9.590625 8.24570313,9.44023437 8.27792969,9.33710938 C8.32949219,9.30488281 8.353125,9.33496094 8.3703125,9.37792969 C8.42617188,9.521875 8.42617188,9.521875 8.53359375,9.41230469 L8.66679688,9.42734375 C8.63457031,9.50683594 8.61738281,9.57773437 8.73554688,9.59921875 C8.75273437,9.60136719 8.76347656,9.62070312 8.75273437,9.6421875 L8.66894531,9.75605469 C8.57871094,9.89570312 8.72265625,9.86347656 8.77636719,9.9 L8.77851563,9.94941406 C8.76347656,9.97734375 8.74199219,9.99023437 8.70976563,9.98378906 C8.5078125,9.94511719 8.30371094,9.97089844 8.09960938,9.96230469 C8.04160156,9.96015625 7.98144531,9.96230469 7.93847656,9.91503906 C7.95996094,9.86777344 8.00722656,9.89140625 8.0265625,9.86347656 C8.03945313,9.74316406 7.89550781,9.71523438 7.87617188,9.61425781 Z" id="路径" fill="#6D5703"></path>
                            <path d="M14.2914063,12.1773438 C14.0292969,12.0828125 14.0292969,12.0828125 14.0164062,11.8185547 C14.0142578,11.7734375 14.0099609,11.7283203 14.0078125,11.6810547 C14.0078125,11.6251953 14.0099609,11.5693359 14.0099609,11.5113281 C14.0421875,11.4726563 14.0722656,11.4339844 14.1259766,11.48125 C14.1861328,11.5070313 14.2441406,11.5263672 14.3107422,11.5220703 C14.4052734,11.5177734 14.4589844,11.5693359 14.4675781,11.6595703 C14.4804688,11.8013672 14.4804688,11.9453125 14.4675781,12.0871094 C14.4568359,12.2095703 14.3837891,12.2138672 14.2914063,12.1773438 Z" id="路径" fill="#D9D8D8"></path>
                            <path d="M14.0142578,11.0837891 L13.9498047,11.0816406 C13.9605469,10.8861328 13.9863281,10.6884766 13.9777344,10.4929687 C13.9734375,10.3769531 13.9777344,10.2480469 13.9003906,10.1449219 C13.9111328,10.0740234 13.9712891,10.0783203 14.0185547,10.0761719 C14.2119141,10.0675781 14.4052734,10.0675781 14.5986328,10.0783203 C14.6501953,10.0804687 14.7318359,10.0740234 14.7082031,10.1728516 C14.6480469,10.2136719 14.7017578,10.2566406 14.7017578,10.2996094 C14.7017578,10.3511719 14.6910156,10.4070312 14.6566406,10.4521484 C14.5148438,10.4349609 14.3751953,10.4285156 14.2333984,10.4371094 C14.0658203,10.4478516 14.0572266,10.4542969 14.0550781,10.6240234 C14.0529297,10.7292969 14.0572266,10.8367187 14.0529297,10.9419922 C14.0529297,10.9914062 14.0550781,11.0451172 14.0142578,11.0837891 Z" id="路径" fill="#A38F09"></path>
                            <path d="M14.7103516,10.1728516 C14.7082031,10.1341797 14.6867188,10.1169922 14.6480469,10.1169922 C14.4160156,10.1169922 14.1818359,10.1169922 13.9498047,10.1191406 C13.9347656,10.1191406 13.9197266,10.1363281 13.9046875,10.1449219 C13.8166016,10.1041016 13.8058594,10.0267578 13.8294922,9.94941406 C13.8574219,9.85058594 13.9476562,9.86777344 14.0228516,9.865625 C14.1087891,9.82265625 14.1904297,9.87851563 14.2785156,9.86992188 C14.4095703,9.85703125 14.5384766,9.85058594 14.6544922,9.7796875 C14.6609375,9.80976563 14.6544922,9.84199219 14.6910156,9.86132813 C14.8306641,9.94296875 14.8371094,10.0611328 14.7103516,10.1728516 Z" id="路径" fill="#C1A900"></path>
                            <path d="M13.8746094,13.7628906 C13.8789062,13.7994141 13.9003906,13.81875 13.9390625,13.81875 C14.1990234,13.81875 14.4611328,13.81875 14.7210937,13.8166016 C14.7361328,13.8166016 14.7511719,13.7994141 14.7662109,13.7908203 C14.8134766,13.8681641 14.7791016,13.9712891 14.85,14.0421875 C14.8242187,14.0722656 14.7876953,14.0808594 14.7490234,14.0830078 C14.471875,14.0894531 14.1925781,14.0916016 13.9154297,14.0808594 C13.8767578,14.0787109 13.8402344,14.0722656 13.8166016,14.0400391 C13.8402344,13.9476563 13.7714844,13.8359375 13.8746094,13.7628906 Z" id="路径" fill="#C1AB01"></path>
                            <path d="M8.73769531,10.0697266 C8.69902344,10.1792969 8.72050781,10.4048828 8.66894531,10.5123047 C8.56796875,10.4349609 8.44980469,10.4349609 8.32949219,10.4328125 C8.21992187,10.4306641 8.10605469,10.4650391 8.00507812,10.4005859 C7.9234375,10.3425781 7.98359375,10.140625 7.940625,10.071875" id="路径" fill="#A48F08"></path>
                            <path d="M7.99003906,11.1460937 L8.00292969,10.3984375 C8.19199219,10.3962891 8.37890625,10.3962891 8.56796875,10.3898437 C8.66464844,10.3855469 8.63671875,10.4693359 8.66894531,10.5101562 C8.66894531,10.5724609 8.66679687,10.6369141 8.66679687,10.6992187 C8.64316406,10.7830078 8.65390625,10.8689453 8.6625,10.9548828 C8.66679687,11 8.67753906,11.0451172 8.6453125,11.0859375 L7.99003906,11.1460937 Z" id="路径" fill="#B7B2AB"></path>
                            <path d="M8.64746094,10.1148437 L8.02226562,10.1148437 C7.97929687,10.1148437 7.94921875,10.1255859 7.94277344,10.1728516 C7.85253906,10.1212891 7.80742187,10.0460938 7.83964844,9.94296875 C7.86757812,9.85273438 7.95136719,9.86347656 8.02441406,9.86132812 L7.96640625,9.91074219 C8.24140625,9.93652344 8.51210937,9.89140625 8.77851562,9.94511719 C8.82148437,10.0375 8.79570312,10.1105469 8.72695312,10.1728516 C8.72050781,10.1255859 8.69042969,10.1148437 8.64746094,10.1148437 Z" id="路径" fill="#BDA600"></path>
                            <path d="M14.2914062,12.1773437 C14.3966797,12.1923828 14.4417969,12.1537109 14.4332031,12.0398437 C14.4246094,11.9259766 14.4289062,11.8099609 14.4310547,11.6939453 C14.4332031,11.584375 14.3902344,11.5285156 14.2763672,11.5349609 C14.2205078,11.5371094 14.1646484,11.5306641 14.1259766,11.4833984 L14.5191406,11.5242187 C14.5363281,11.515625 14.5535156,11.5199219 14.5685547,11.5306641 C14.7167969,11.6552734 14.6373047,11.8335937 14.6802734,11.9839844 C14.6501953,12.0978516 14.6566406,12.2160156 14.6630859,12.3320312 C14.5255859,12.3126953 14.4160156,12.2267578 14.2914062,12.1773437 Z" id="路径" fill="#BEB7B1"></path>
                            <path d="M14.2376953,10.3984375 C14.3429687,10.3984375 14.4503906,10.3984375 14.5556641,10.3941406 C14.6029297,10.3919922 14.6373047,10.4070312 14.6566406,10.45 L14.6458984,11.1138672 C14.4976563,11.1353516 14.3494141,11.1224609 14.2054687,11.0902344 C14.3880859,11.0429687 14.4117188,10.9097656 14.3945312,10.7507812 C14.3902344,10.7099609 14.3902344,10.6669922 14.3945312,10.6261719 C14.4009766,10.5359375 14.3880859,10.4607422 14.2785156,10.4435547 C14.2527344,10.4435547 14.2355469,10.4263672 14.2376953,10.3984375 Z" id="路径" fill="#C3C3C0"></path>
                            <path d="M13.7306641,14.3859375 C13.6683594,14.2699219 13.68125,14.2376953 13.7886719,14.1947266 C13.921875,14.1410156 14.0529297,14.1367187 14.1925781,14.1796875 C14.2935547,14.2119141 14.403125,14.2076172 14.5041016,14.1667969 C14.6458984,14.1109375 14.8457031,14.1689453 14.9208984,14.2742187 C14.9402344,14.3042969 14.9380859,14.3365234 14.9316406,14.36875" id="路径" fill="#1C5DA4"></path>
                            <path d="M14.6501953,9.7796875 C14.4632812,9.97949219 14.2398437,9.91289062 14.0207031,9.865625 C14.0164062,9.79472656 13.9798828,9.74316406 13.9261719,9.70234375 C14.1195312,9.58203125 14.334375,9.590625 14.5492188,9.61640625 C14.6007813,9.62285156 14.6523438,9.65292969 14.6845703,9.70234375 L14.6501953,9.7796875 Z" id="路径" fill="#685303"></path>
                            <path d="M14.9294922,14.4353516 C14.9402344,14.5298828 14.9359375,14.5964844 14.8070312,14.540625 C14.6888672,14.4890625 14.5621094,14.4998047 14.4417969,14.540625 C14.36875,14.5642578 14.2978516,14.5792969 14.2269531,14.5492187 C14.0873047,14.4912109 13.9476562,14.4912109 13.8080078,14.5427734 C13.7542969,14.5621094 13.7070312,14.575 13.6941406,14.4976562 C13.6962891,14.4675781 13.6876953,14.4332031 13.7199219,14.4138672 C13.8789062,14.3558594 14.0421875,14.334375 14.2054687,14.3902344 C14.3021484,14.4224609 14.4009766,14.4052734 14.4912109,14.3773437 C14.6501953,14.3300781 14.7898437,14.3666016 14.9294922,14.4353516 Z" id="路径" fill="#27639F"></path>
                            <path d="M8.91171875,14.0636719 C8.97617188,14.2097656 8.96542969,14.3837891 8.9546875,14.5642578 C8.82578125,14.5191406 8.5765625,14.4912109 8.44550781,14.5449219 C8.36816406,14.5771484 8.29511719,14.5664062 8.215625,14.5427734 C8.08242188,14.5019531 7.90839844,14.4933594 7.77089844,14.5427734 C7.62695313,14.5621094 7.73007813,14.0958984 7.72578125,14.0400391" id="路径" fill="#2C6498"></path>
                            <path d="M13.9261719,9.70234375 C13.9003906,9.69375 13.8810547,9.67011719 13.8746094,9.64433594 C13.8681641,9.53046875 13.9326172,9.44453125 14.0486328,9.45957031 C14.2398437,9.48320312 14.4289063,9.45097656 14.6179688,9.47890625 C14.678125,9.4875 14.7425781,9.49824219 14.7683594,9.56269531 C14.7962891,9.63789062 14.7232422,9.66367187 14.6845703,9.70449219 L14.2033203,9.64433594 C14.1066406,9.64433594 14.0292969,9.73242188 13.9261719,9.70234375 Z" id="路径" fill="#7E2F0E"></path>
                            <path d="M14.5857422,9.50898437 C14.50625,9.50683594 14.4138672,9.44882812 14.3429687,9.53691406 C14.2720703,9.47246094 14.1818359,9.51328125 14.1001953,9.49394531 C13.990625,9.46601562 13.8982422,9.53261719 13.8746094,9.64433594 C13.8294922,9.52402344 13.8660156,9.45742187 13.9734375,9.41660156 C14.0787109,9.37792969 14.2076172,9.39941406 14.2871094,9.29414062 C14.3042969,9.27050781 14.3386719,9.27265625 14.3623047,9.2984375 C14.4396484,9.38652344 14.5470703,9.41015625 14.6544922,9.42089844 C14.7275391,9.42734375 14.7833984,9.44882812 14.7898438,9.53046875 C14.7962891,9.60996094 14.7984375,9.69160156 14.6845703,9.70449219 C14.7833984,9.56054687 14.7640625,9.51328125 14.5857422,9.50898437 Z" id="路径" fill="#986C02"></path>
                            <path d="M13.6941406,14.4976562 C13.6855469,14.3580078 13.6748047,14.2205078 13.6984375,14.0830078 C13.7070312,14.0873047 13.7177734,14.09375 13.7242187,14.0916016 C13.9970703,14.0164062 14.2699219,14.1646484 14.5449219,14.0787109 C14.6759766,14.0378906 14.8113281,14.0744141 14.9273437,14.1539062 C14.9402344,14.1947266 14.9359375,14.2355469 14.91875,14.2742187 C14.7683594,14.2226562 14.6330078,14.1173828 14.4568359,14.2248047 C14.3730469,14.2742187 14.2548828,14.2634766 14.1603516,14.2140625 C14.0078125,14.1324219 13.8724609,14.2097656 13.7371094,14.2505859 C13.68125,14.2677734 13.6941406,14.3322266 13.7349609,14.3730469 C13.7521484,14.403125 13.7242187,14.4160156 13.7134766,14.4332031 L13.6941406,14.4976562 Z" id="路径" fill="#AFB2B6"></path>
                            <path d="M8.8,14.4138672 C8.68398437,14.3880859 8.56367187,14.3751953 8.45195312,14.4310547 C8.40039062,14.4546875 8.34667969,14.4632813 8.29082031,14.4482422 C8.13613281,14.4009766 7.97929687,14.3773437 7.8203125,14.4353516 C7.79238281,14.4460937 7.75585938,14.4332031 7.72578125,14.4310547 L7.72578125,14.3730469 C7.90625,14.2957031 8.08457031,14.2570312 8.2671875,14.3666016 C8.30800781,14.3902344 8.36386719,14.3902344 8.40039062,14.3666016 C8.56796875,14.265625 8.73339844,14.2935547 8.90097656,14.3601563 C8.92890625,14.3708984 8.94394531,14.3537109 8.95898438,14.3408203 C8.96113281,14.36875 8.96113281,14.3988281 8.96113281,14.4289063 C8.90527344,14.4375 8.85371094,14.4267578 8.8,14.4138672 Z" id="路径" fill="#A4B2C1"></path>
                            <path d="M11.5091797,7.70859375 C11.4662109,7.70644531 11.4533203,7.67207031 11.4103516,7.66992187 C11.3974609,7.66777344 11.3373047,7.67421875 11.3265625,7.66992187 C11.2986328,7.65917969 11.1417969,7.66992187 11.1181641,7.6484375 C11.1117188,7.63769531 11.1353516,7.50664062 11.1332031,7.49375 C11.1439453,7.44003906 11.2341797,7.39921875 11.2019531,7.35625 C11.2427734,7.31113281 11.2126953,7.2703125 11.1933594,7.22949219 C11.1546875,7.14570312 11.1697266,7.07695312 11.2535156,7.0296875 C11.3072266,6.99960937 11.3544922,6.98457031 11.3953125,7.05117187 C11.4361328,7.11777344 11.5306641,7.17148437 11.4167969,7.25527344 C11.3759766,7.28535156 11.4060547,7.321875 11.4275391,7.35195312 C11.4253906,7.390625 11.3888672,7.43359375 11.4318359,7.46796875 C11.4597656,7.48945312 11.4833984,7.46152344 11.5048828,7.44648437 C11.5414063,7.52597656 11.5005859,7.61191406 11.6037109,7.66992187 C11.584375,7.66992187 11.5285156,7.70859375 11.5091797,7.70859375 Z" id="路径" fill="#B79401"></path>
                            <path d="M14.7662109,14.1302924 C14.6845703,14.0852184 14.5986328,14.0919795 14.5126953,14.1302924 C14.4052734,14.1798738 14.2849609,14.1821275 14.1753906,14.1393072 C14.0464844,14.0919795 13.9240234,14.0784573 13.8037109,14.1528294 C13.7263672,14.2001571 13.6962891,14.170859 13.6984375,14.0852184 C13.7263672,14.0401443 13.7757812,14.0446517 13.81875,14.0378906 L14.8521484,14.0401443 C14.9230469,14.0491591 14.9595703,14.080711 14.9273437,14.1618442 C14.8736328,14.1550831 14.8199219,14.1595905 14.7662109,14.1302924 Z" id="路径" fill="#1F5E9B"></path>
                            <path d="M8.26503906,14.1474609 C8.34023437,14.1775391 8.43691406,14.1603516 8.52285156,14.128125 C8.59160156,14.1044922 8.66679687,14.0808594 8.73984375,14.1087891 C8.78925781,14.128125 8.87304687,14.1474609 8.85371094,14.2054687 C8.82792969,14.2806641 8.77207031,14.2076172 8.73125,14.1947266 C8.68183594,14.1775391 8.62597656,14.1646484 8.58085937,14.1861328 C8.41972656,14.2634766 8.2671875,14.2505859 8.10390625,14.1882812 C8.03730469,14.1625 7.95136719,14.1582031 7.87832031,14.2119141 C7.83320312,14.2462891 7.77734375,14.2527344 7.71933594,14.2419922 L7.72363281,14.1496094 C7.90410156,14.1130859 8.08027344,14.0701172 8.26503906,14.1474609 Z" id="路径" fill="#ABB4BE"></path>
                            <path d="M13.7371094,14.3810817 C13.8660156,14.3033412 13.9970703,14.2960531 14.1367188,14.3397821 C14.2376953,14.3713642 14.3408203,14.4053756 14.4460938,14.3494997 C14.6115234,14.264471 14.7705078,14.3446409 14.9316406,14.376223 L14.9337891,14.4491047 C14.5255859,14.4102344 14.1195313,14.4053756 13.7134766,14.4491047 C13.7220703,14.4272402 13.7285156,14.4053756 13.7371094,14.3810817 Z" id="路径" fill="#A8B7C6"></path>
                            <path d="M8.80644531,11.3072266 C8.66679688,11.2277344 8.76777344,11.1869141 8.83007813,11.1353516 C8.84296875,11.1246094 8.8515625,11.1052734 8.86230469,11.0902344 L8.94824219,11.0923828 C8.91816406,11.1955078 8.96328125,11.2986328 8.95039063,11.4039063" id="路径" fill="#B7610D"></path>
                            <path d="M8.63886719,11.5091797 C8.65820312,11.5671875 8.63457031,11.6337891 8.66679687,11.6896484 C8.66035156,11.790625 8.63027344,11.8894531 8.65605469,11.9904297 C8.67109375,12.0484375 8.63027344,12.0591797 8.58515625,12.065625 C8.51640625,12.0677734 8.49707031,12.0183594 8.49277344,11.9667969 C8.48203125,11.8421875 8.47773437,11.7175781 8.49492187,11.5951172 C8.5078125,11.5199219 8.54648437,11.4640625 8.63886719,11.5091797 Z" id="路径" fill="#CFCBC8"></path>
                            <path d="M8.73186267,9.88295607 C8.79982845,10.4945928 8.6795813,10.6846961 8.26133035,10.5855118 C8.13585507,10.4367353 8.05743301,10.2301012 7.96855469,10.0399979 C8.16722389,9.68458739 8.49659651,9.88295607 8.7214064,9.62672986 C8.72663454,9.70938348 8.7214064,9.80030245 8.73186267,9.88295607 Z M9.0612353,10.4450006 C8.88870678,10.4036738 8.83119727,10.1474476 8.88347864,9.86642534 C8.9200756,9.65979131 8.81551286,9.64326059 8.72663454,9.6184645 C8.7214064,9.45315728 8.71095012,9.27131933 8.84688168,9.23825788 C8.93576001,9.2134618 8.98281324,9.35397294 8.99849765,9.47795336 C9.02986647,9.79203709 9.28081704,9.66805667 9.34355469,9.91601751 C9.29127332,10.155713 9.28604518,10.5028582 9.0612353,10.4450006 Z" id="形状" fill="#945409"></path>
                            <path d="M7.96640625,9.44453125 C8.05019531,9.45527344 8.06953125,9.51972656 8.08671875,9.58632812 L7.87617188,9.61425781 C7.85039063,9.52617187 7.88261719,9.4703125 7.96640625,9.44453125 Z" id="路径" fill="#9E2D11"></path>
                            <path d="M8.70761719,9.61855469 C8.66035156,9.61210937 8.60449219,9.62070313 8.58945312,9.55410156 C8.57226562,9.48535156 8.62382812,9.45957031 8.66679687,9.42734375 C8.75488281,9.47675781 8.834375,9.52832031 8.75273437,9.64433594 C8.73769531,9.63574219 8.72480469,9.62070312 8.70761719,9.61855469 Z" id="路径" fill="#9D400E"></path>
                            <path d="M12.31054,8.72910156 C12.1664146,8.72910156 12.0526313,8.60878906 12.0147036,8.28222656 C11.9767758,7.86972656 11.9691903,7.45722656 12.2119279,7.35410156 C12.3029545,7.59472656 12.4015667,7.83535156 12.4925933,8.09316406 C12.4850077,8.38535156 12.5001788,8.71191406 12.31054,8.72910156 Z M11.4154451,7.37128906 C11.8478215,7.42285156 11.7416238,7.95566406 11.6126694,8.52285156 C11.4154451,8.84941406 11.248563,8.76347656 11.1196086,8.31660156 C11.096852,7.80097656 11.2713196,7.61191406 11.4154451,7.37128906 Z" id="形状" fill="#7C7F43"></path>
                            <path d="M8.77636719,9.9 C8.72050781,9.89785156 8.66679687,9.89355469 8.60878906,9.89140625 C8.60664062,9.83125 8.63027344,9.79042969 8.66894531,9.75605469 C8.63671875,9.85703125 8.73769531,9.85488281 8.77636719,9.9 Z" id="路径" fill="#BDA600"></path>
                            <path d="M11.9732422,12.8884766 C11.8507813,12.8541016 11.8615234,12.7080078 11.8207031,12.6113281 C11.8078125,12.58125 11.859375,12.5511719 11.8894531,12.5769531 C11.9839844,12.6564453 12.1601563,12.6521484 12.1580078,12.8369141 C12.1580078,12.8927734 12.2138672,12.9572266 12.2632813,12.9400391 C12.3169922,12.9207031 12.3041016,12.8369141 12.2740234,12.7960938 C12.2138672,12.7123047 12.1837891,12.6414063 12.2525391,12.5447266 C12.2826172,12.5017578 12.2375,12.4566406 12.2052734,12.4265625 C12.1666016,12.3921875 12.1386719,12.4265625 12.1107422,12.4501953 C12.0591797,12.4953125 11.9904297,12.5103516 11.9496094,12.4652344 C11.9087891,12.4179688 11.9474609,12.3449219 11.9753906,12.2976563 C12.0119141,12.2375 12.0720703,12.2955078 12.1150391,12.2933594 C12.2611328,12.2826172 12.4072266,12.3083984 12.5533203,12.2890625 C12.5791016,12.2847656 12.6048828,12.2632813 12.6306641,12.2632813 C12.7595703,12.2654297 12.8777344,12.3492188 13.0238281,12.2761719 C13.0882813,12.2439453 13.1527344,12.3535156 13.0947266,12.44375 C13.0388672,12.5296875 13.0345703,12.6048828 13.1033203,12.6822266 C13.1269531,12.7080078 13.13125,12.7445312 13.1205078,12.7746094 C13.0517578,12.9808594 13.1183594,13.1892578 13.1054688,13.3933594 C13.096875,13.5458984 13.0238281,13.7048828 12.9421875,13.8380859 C12.8992187,13.9089844 12.7832031,13.9390625 12.7509766,14.0400391 C12.7488281,14.0486328 12.7380859,14.059375 12.7316406,14.059375 C12.5640625,14.0765625 12.409375,14.1882812 12.2310547,14.1345703 C12.2267578,14.1324219 12.2224609,14.128125 12.2181641,14.128125 C11.9861328,14.1603516 11.8744141,13.9605469 11.7132812,13.8617187 C11.6896484,13.8488281 11.6552734,13.8208984 11.6574219,13.8058594 C11.6789062,13.6339844 11.5693359,13.4900391 11.5714844,13.3138672 C11.5736328,13.1677734 11.6123047,13.0152344 11.5757812,12.8734375 C11.5585938,12.8068359 11.5542969,12.7746094 11.6123047,12.7746094 C11.6832031,12.7724609 11.7003906,12.6414062 11.7669922,12.7037109 C11.8271484,12.7617188 11.7326172,12.8132813 11.7132813,12.8712891 C11.6960938,12.9271484 11.6875,12.9916016 11.7283203,13.0431641 C11.7583984,13.0796875 11.8164063,13.0882812 11.8421875,13.0689453 L12.2052734,13.0689453 C12.1408203,12.9916016 12.0828125,12.9185547 11.9732422,12.8884766 Z" id="路径" fill="#C29C04"></path>
                            <path d="M10.8560547,12.0097656 C10.8646484,11.8013672 10.9419922,11.6273438 11.1460937,11.5285156 C11.3416016,11.4339844 11.5994141,11.5306641 11.7068359,11.7412109 C11.8550781,12.03125 11.7541016,12.3857422 11.4919922,12.5189453 C11.3673828,12.5705078 11.2470703,12.5833984 11.1246094,12.5210938 C10.9291016,12.4072266 10.8474609,12.2267578 10.8560547,12.0097656 Z" id="路径" fill="#0359B7"></path>
                            <path d="M10.6154297,11.8679687 C10.2544922,11.8679687 9.659375,11.8851562 9.66582031,11.7820312 C9.67441406,11.7003906 9.71523438,10.346875 9.85488281,10.1492187 C9.93007813,10.0310547 10.7207031,10.0525391 10.8195313,10.1728516 C10.8775391,10.24375 11.1439453,11.1632812 10.8367187,11.4833984" id="路径" fill="#6D5F03"></path>
                            <path d="M10.725,14.2978516 C10.65625,14.2849609 10.6734375,14.23125 10.6734375,14.1882812 L10.6734375,12.4802734 C10.6734375,12.4351562 10.6605469,12.3814453 10.7314453,12.375 C10.9076172,12.6027344 10.8710938,12.8712891 10.8710938,13.13125 C10.8710938,13.4449219 10.8710938,13.7585938 10.8732422,14.0722656 C10.8710938,14.1173828 10.8646484,14.1646484 10.9162109,14.1904297 C10.8732422,14.2613281 10.7894531,14.2613281 10.725,14.2978516 Z" id="路径" fill="#C2AB00"></path>
                            <path d="M11.1740234,13.9025391 C11.1396484,13.8466797 11.1203125,13.7886719 11.1203125,13.7199219 C11.1203125,13.4535156 11.1138672,13.1849609 11.1138672,12.9185547 C11.1138672,12.8669922 11.0859375,12.7917969 11.1890625,12.7917969 C11.2771484,12.7917969 11.3158203,12.8347656 11.3136719,12.9185547 C11.3072266,13.1248047 11.3287109,13.3332031 11.3029297,13.5394531 C11.2964844,13.5845703 11.3072266,13.6296875 11.3115234,13.6748047 C11.3394531,13.7800781 11.2857422,13.8509766 11.2126953,13.9154297 C11.1998047,13.9175781 11.1847656,13.9132812 11.1740234,13.9025391 Z" id="路径" fill="#BBA501"></path>
                            <path d="M12.6220703,10.7056641 C12.6048828,10.6884766 12.6005859,10.6691406 12.5962891,10.6455078 C12.5919922,10.5251953 12.5597656,10.4048828 12.6070312,10.2888672 C12.6585937,10.2480469 12.7230469,10.2244141 12.7660156,10.1707031 C12.8046875,10.2330078 12.8455078,10.2609375 12.9207031,10.2072266 C12.9615234,10.1792969 13.0324219,10.1427734 13.0732422,10.1900391 C13.1183594,10.2416016 13.1054687,10.3167969 13.0560547,10.3662109 C12.8734375,10.5445312 12.9121094,10.7378906 12.9916016,10.9462891 C13.0302734,11.0472656 12.9808594,11.1417969 12.8798828,11.1976562 C12.71875,11.2857422 12.71875,11.2878906 12.8197266,11.4361328 C12.8648437,11.5005859 12.8369141,11.5478516 12.7939453,11.5951172 C12.7316406,11.5263672 12.6994141,11.4404297 12.6542969,11.3630859 C12.5962891,11.2642578 12.6951172,11.2212891 12.7488281,11.1632813 C12.6435547,11.1310547 12.6435547,11.1310547 12.6349609,11.0515625" id="路径" fill="#B57E96"></path>
                            <path d="M12.8326172,11.1525391 C12.7896484,11.1826172 12.7445313,11.2019531 12.7101563,11.2384766 C12.6585938,11.2900391 12.6478516,11.3265625 12.7037109,11.3867188 C12.7552734,11.4425781 12.7939453,11.515625 12.7917969,11.5972656 L12.7832031,11.7841797 C12.6908203,11.8099609 12.6371094,11.721875 12.5597656,11.7046875 C12.5167969,11.5994141 12.6285156,11.6144531 12.6693359,11.5650391 C12.6220703,11.5070312 12.4652344,11.61875 12.4845703,11.4554687 C12.4587891,11.4146484 12.4652344,11.3673828 12.4716797,11.3244141 C12.5039063,11.1353516 12.5017578,11.1310547 12.3126953,11.1160156 L12.2869141,11.0386719 C12.2525391,10.9849609 12.2052734,10.9291016 12.2654297,10.8646484 C12.3384766,10.7851562 12.4287109,10.79375 12.5210938,10.8173828 C12.5984375,10.8818359 12.6306641,10.9634766 12.6242188,11.0623047 C12.6585938,11.1632813 12.7703125,11.0880859 12.8326172,11.1525391 Z" id="路径" fill="#E173A5"></path>
                            <path d="M12.6220703,10.6455078 C12.5039063,10.8087891 12.4394531,10.8238281 12.2611328,10.7142578 C12.2181641,10.6884766 12.1730469,10.6648437 12.1279297,10.6433594 C12.0806641,10.6197266 12.0548828,10.5875 12.0978516,10.5359375 C12.1472656,10.5273437 12.2074219,10.5466797 12.2310547,10.4800781 C12.2589844,10.4048828 12.3191406,10.3490234 12.3492188,10.2695312 C12.3707031,10.2115234 12.4931641,10.2179687 12.5726563,10.2072266 C12.6070313,10.2244141 12.6392578,10.2394531 12.6220703,10.2867187 L12.6220703,10.6455078 Z" id="路径" fill="#E56FA5"></path>
                            <path d="M11.928125,10.7013672 L11.9216797,10.7035156 C11.8421875,10.7142578 11.790625,10.6755859 11.7541016,10.6068359 C11.7433594,10.5875 11.7326172,10.553125 11.7197266,10.5509766 C11.6037109,10.5380859 11.584375,10.5101562 11.6144531,10.3791016 C11.6337891,10.2910156 11.6058594,10.2458984 11.7175781,10.2738281 C11.7433594,10.2802734 11.7605469,10.2630859 11.7777344,10.2458984 C11.8035156,10.2201172 11.825,10.1792969 11.8679688,10.2136719 C11.8958984,10.2351562 11.9023438,10.2738281 11.8830078,10.3017578 C11.8378906,10.3769531 11.9066406,10.4177734 11.9259766,10.4736328" id="路径" fill="#AA7489"></path>
                            <path d="M12.4007812,11.4103516 C12.375,11.6166016 12.375,11.6166016 12.1773437,11.5628906 C12.1300781,11.5542969 12.0849609,11.5349609 12.0634766,11.4919922 C12.0376953,11.4404297 12.0183594,11.3759766 12.1214844,11.3974609 C12.2203125,11.4490234 12.2332031,11.3910156 12.2224609,11.3136719 C12.2138672,11.2599609 12.1837891,11.1955078 12.2460938,11.1654297 C12.3083984,11.1332031 12.3835937,11.1267578 12.4480469,11.1568359 C12.5619141,11.2083984 12.4652344,11.2771484 12.4501953,11.3373047 C12.4115234,11.3458984 12.4050781,11.3738281 12.4007812,11.4103516 Z" id="路径" fill="#E173A5"></path>
                            <path d="M12.3857422,10.2673828 C12.3728516,10.2587891 12.3578125,10.2738281 12.3621094,10.2888672 C12.4007812,10.4091797 12.2933594,10.4306641 12.2310547,10.484375 C12.203125,10.4220703 12.1365234,10.415625 12.0892578,10.3833984 C12.0591797,10.3619141 12.0291016,10.3361328 12.0398437,10.2931641 C12.0505859,10.2544922 12.0871094,10.2630859 12.1193359,10.2544922 C12.2632812,10.2222656 12.4179687,10.1986328 12.4544922,10.0160156 C12.4910156,10.0847656 12.5318359,10.1535156 12.5640625,10.2287109 C12.5017578,10.2265625 12.4587891,10.3146484 12.3857422,10.2673828 Z" id="路径" fill="#A96571"></path>
                            <path d="M11.8701172,11.0988281 C11.8529297,11.1589844 11.8357422,11.1611328 11.7755859,11.1267578 C11.6617187,11.0601562 11.6681641,10.9591797 11.6660156,10.8582031 C11.6638672,10.8023437 11.7154297,10.8109375 11.7498047,10.8130859 C11.8099609,10.8173828 11.8679687,10.828125 11.928125,10.8367187 C11.9453125,10.8753906 11.9195312,10.896875 11.89375,10.9119141 C11.8335937,10.9505859 11.8679687,10.9763672 11.8958984,11.0064453 C11.8873047,11.0386719 11.8787109,11.06875 11.8701172,11.0988281 Z" id="路径" fill="#A67C8D"></path>
                            <path d="M12.1042969,11.4962891 C12.1300781,11.5177734 12.1751953,11.5134766 12.1751953,11.5607422 C12.1,11.6982422 12.1193359,11.6724609 12.0033203,11.5865234 C11.8830078,11.4962891 11.9818359,11.4232422 11.9732422,11.34375 C11.9689453,11.3136719 12.0119141,11.3115234 12.0398437,11.309375 C12.1,11.3115234 12.1300781,11.3351563 12.1214844,11.3953125 C12.0441406,11.4167969 12.0570312,11.4576172 12.1042969,11.4962891 Z" id="路径" fill="#AC6986"></path>
                            <path d="M11.7927734,10.9699219 C11.7820313,10.9183594 11.8271484,10.9033203 11.8679688,10.8925781 C11.8958984,10.8861328 11.9130859,10.8646484 11.9238281,10.8367188 L11.9474609,10.8130859 C12.0183594,10.8496094 12.0849609,10.7464844 12.1580078,10.8066406 C12.1751953,10.8216797 12.2181641,10.8066406 12.2160156,10.8474609 C12.2138672,10.8775391 12.1837891,10.8882812 12.1558594,10.8925781 C12.0677734,10.9076172 11.9839844,10.9291016 11.9216797,10.9978516 L11.8958984,11.0064453 C11.859375,11 11.8035156,11.0279297 11.7927734,10.9699219 Z" id="路径" fill="#DB6D9F"></path>
                            <path d="M11.7669922,10.4800781 C11.7433594,10.4671875 11.7326172,10.4478516 11.7498047,10.4242187 C11.7691406,10.3984375 11.790625,10.4113281 11.8078125,10.4285156 C11.8421875,10.4650391 11.8808594,10.484375 11.9302734,10.4757812 C11.9496094,10.5058594 12.0076172,10.4693359 12.0119141,10.5230469 C12.0119141,10.5445312 12.0076172,10.5703125 12.0162109,10.5896484 C12.03125,10.6240234 12.0849609,10.6433594 12.0527344,10.6927734 C12.0140625,10.7507812 11.9689453,10.6970703 11.928125,10.7013672 C11.8529297,10.6433594 11.8507813,10.5316406 11.7669922,10.4800781 Z" id="路径" fill="#DD6DA0"></path>
                            <path d="M12.7810547,11.7841797 C12.7810547,11.8271484 12.7681641,11.8873047 12.7208984,11.8615234 C12.6564453,11.8271484 12.5189453,11.8507812 12.5576172,11.7046875 C12.6585937,11.6574219 12.6994141,11.7755859 12.7810547,11.7841797 Z" id="路径" fill="#8B5765"></path>
                            <path d="M10.8775391,8.91601562 C10.8646484,8.9203125 10.8710938,8.93964844 10.8689453,8.95253906 C10.7916016,9.109375 10.6626953,9.13730469 10.5058594,9.03203125 C10.4564453,8.92460937 10.5380859,8.90527344 10.6089844,8.87734375 C10.6519531,8.85585938 10.6884766,8.82792969 10.6927734,8.77421875 C10.6755859,8.70976563 10.6240234,8.71621094 10.5746094,8.7140625 C10.5423828,8.71191406 10.4994141,8.72695313 10.5015625,8.66894531 C10.4886719,8.58730469 10.3898438,8.54863281 10.415625,8.43691406 C10.4328125,8.36601562 10.45,8.30585937 10.5015625,8.25644531 C10.6712891,8.13613281 10.8710938,8.1296875 11.0666016,8.1125 C11.1697266,8.11894531 11.1546875,8.18554688 11.1332031,8.25 C11.1117188,8.31445312 11.1074219,8.36171875 11.1783203,8.39824219 C11.2943359,8.45839844 11.1332031,8.52285156 11.1761719,8.58515625 C11.171875,8.6625 11.103125,8.63242187 11.0644531,8.65390625 C11.0107422,8.6796875 10.9333984,8.69257812 10.9806641,8.7828125 C11.0515625,8.83867187 11.1332031,8.82792969 11.2148438,8.82792969 C11.275,8.86445312 11.2578125,8.92246094 11.2556641,8.97402344 L11.2298828,9.00410156 L10.9140625,8.94609375 C10.9033203,8.93535156 10.8990234,8.90957031 10.8775391,8.91601562 Z" id="路径" fill="#A91718"></path>
                            <path d="M11.4791016,8.4046875 C11.5113281,8.36386719 11.515625,8.31875 11.5091797,8.27363281 C11.4962891,8.1640625 11.5478516,8.1296875 11.6466797,8.14257812 C11.8013672,8.12324219 11.9496094,8.1296875 12.0699219,8.25 C12.0892578,8.29726562 12.1537109,8.26289063 12.1751953,8.30585938 C12.2396484,8.58085938 12.2396484,8.58085938 11.9839844,8.72265625 C11.9044922,8.765625 11.8916016,8.81074219 11.9796875,8.86015625 C11.9925781,8.86445313 12.0054687,8.87089844 12.0162109,8.87519531 C12.0785156,8.90097656 12.1966797,8.86660156 12.1472656,9.00410156 C12.0935547,9.12226563 11.9882812,9.08789062 11.8958984,9.08359375 C11.8164062,9.07929688 11.7992187,9.01269531 11.7884766,8.94609375 C11.7820312,8.93105469 11.7863281,8.90527344 11.7669922,8.903125 C11.7519531,8.903125 11.7476562,8.92890625 11.7347656,8.94179688 C11.7283203,9.00410156 11.6638672,9.02988281 11.6445312,9.08359375 C11.5285156,9.09648438 11.446875,9.04707031 11.3931641,8.94394531 C11.3716797,8.89882813 11.3738281,8.86015625 11.4253906,8.83652344 C11.4425781,8.83007812 11.4597656,8.82792969 11.4791016,8.82578125 C11.5328125,8.81933594 11.6037109,8.82792969 11.6251953,8.76992187 C11.6466797,8.71621094 11.5521484,8.72050781 11.5371094,8.66894531 C11.4125,8.61308594 11.3888672,8.51640625 11.4791016,8.4046875 Z" id="路径" fill="#AA1819"></path>
                            <path d="M9.52832031,8.44980469 C9.58847656,8.35742187 9.6765625,8.3359375 9.7796875,8.35742187 C9.83554687,8.36816406 9.88710937,8.35527344 9.94082031,8.34453125 C10.071875,8.31875 10.1943359,8.32304687 10.2566406,8.47128906 C10.2673828,8.47988281 10.2867187,8.49277344 10.2845703,8.49921875 C10.2501953,8.60234375 10.2652344,8.72050781 10.1771484,8.80429687 C10.1148437,8.88378906 10.1427734,8.92246094 10.2351562,8.92675781 C10.2673828,8.92890625 10.2996094,8.91816406 10.3318359,8.93105469 C10.3984375,8.98046875 10.4005859,9.03203125 10.3425781,9.09003906 C10.2330078,9.20820312 10.2050781,9.20820312 10.0052734,9.06640625 C9.96445312,9.11152344 10.003125,9.20390625 9.92148437,9.22109375 C9.86777344,9.23398437 9.82265625,9.21035156 9.78398437,9.17382812 L9.76679687,9.11796875 C9.57558594,9.0921875 9.53691406,9.01054687 9.47890625,8.84726562 L9.45097656,8.64316406 C9.44023437,8.5765625 9.45742187,8.49707031 9.52832031,8.44980469 Z" id="路径" fill="#AA1719"></path>
                            <path d="M12.2869141,9.08789062 C12.2632812,8.93535156 12.2632812,8.93105469 12.4007812,8.96972656 C12.4458984,8.98261719 12.4652344,8.95039062 12.4974609,8.9375 C12.5082031,8.93105469 12.5189453,8.92460937 12.5296875,8.9203125 C12.5962891,8.8859375 12.5511719,8.83867187 12.5232422,8.82792969 C12.4029297,8.77636719 12.3814453,8.66035156 12.3341797,8.56152344 C12.3298828,8.54863281 12.3298828,8.53574219 12.3298828,8.52285156 C12.3341797,8.50136719 12.3513672,8.490625 12.3685547,8.47988281 C12.4222656,8.34453125 12.5296875,8.32089844 12.6564453,8.34882812 C12.7101562,8.35957031 12.7638672,8.3703125 12.8175781,8.36171875 C12.9400391,8.34453125 13.0474609,8.36601562 13.1162109,8.48203125 C13.2042969,8.55292969 13.165625,8.6625 13.1978516,8.75273437 C13.2064453,8.77636719 13.0044922,8.91171875 12.9722656,8.90742187 C12.9400391,8.903125 12.9078125,8.89453125 12.8777344,8.89667969 C12.8304687,8.89882812 12.7810547,8.90742187 12.7660156,8.96113281 C12.753125,9.01054687 12.8068359,9.02988281 12.8261719,9.06425781 C12.8476562,9.10078125 12.9335937,9.07929687 12.9121094,9.13300781 C12.8927734,9.18242187 12.8412109,9.23183594 12.7724609,9.2296875 C12.7251953,9.2296875 12.6671875,9.25117187 12.6457031,9.18027344 C12.6392578,9.15878906 12.6263672,9.13945312 12.615625,9.11796875 C12.615625,9.109375 12.6134766,9.09648437 12.6091797,9.09648437 C12.5984375,9.0921875 12.6027344,9.10507812 12.5984375,9.11367187 C12.4566406,9.20175781 12.3878906,9.19746094 12.2869141,9.08789062 Z" id="路径" fill="#A91718"></path>
                            <path d="M12.1472656,9.58203125 C12.2998047,9.58847656 12.3298828,9.66367187 12.1171875,9.70878906 C11.9517578,9.70878906 11.3351563,9.75175781 11.3351563,9.75175781 C11.0107422,9.75175781 10.4714844,9.71308594 10.4371094,9.70449219 C10.2587891,9.65507812 10.2287109,9.59921875 10.5423828,9.53691406 C10.6863281,9.53046875 10.9914063,9.48964844 11.3351563,9.48964844 L12.1472656,9.58203125 Z" id="路径" fill="#931B14"></path>
                            <path d="M10.51875,7.84394531 C10.6884766,7.79023437 10.8625,7.78808594 11.0365234,7.82675781 C11.1074219,7.84179687 11.1375,7.88046875 11.1482422,7.94492187 C11.1611328,8.02011719 11.1460937,8.08027344 11.06875,8.10820312 L10.3382812,8.12753906 C10.3253906,8.01796875 10.4070312,7.88046875 10.51875,7.84394531 Z" id="路径" fill="#FAC100"></path>
                            <path d="M12.0720703,8.71249977 C11.9367187,8.59721262 11.790625,8.56305346 11.6488281,8.49900505 C11.6273437,8.36663832 11.5199219,8.44349642 11.5091797,8.26843075 C11.4962891,8.04639624 11.48125,7.87987036 11.6423828,7.82436173 C11.8550781,7.74750363 12.0441406,7.76458321 12.2052734,8.0762855 C12.2761719,8.21292212 12.3191406,8.379448 12.2783203,8.57586315 C12.2396484,8.75946861 12.1451172,8.69969008 12.0720703,8.71249977 Z M12.8197266,8.92172459 C12.7552734,8.85340628 12.6822266,8.81924713 12.6070312,8.82351702 C12.4888672,8.83632671 12.4609375,8.66126103 12.4910156,8.52035452 C12.5189453,8.39225769 12.5039062,8.11044465 12.6542969,8.18303286 C12.7789062,8.23854149 12.9035156,8.27697054 13.0259766,8.36663832 C13.1548828,8.460576 13.2042969,8.64845135 13.2322266,8.87048586 C13.2537109,9.03701174 13.2193359,9.16510858 13.1183594,9.16083868 C13.028125,9.03274185 12.925,8.97296333 12.8197266,8.92172459 Z M9.7796875,8.92172459 C9.69804688,8.9900429 9.60351563,8.9900429 9.52832031,9.10533005 C9.4875,9.10106016 9.43164063,9.20780752 9.40800781,9.07971069 C9.384375,8.95161386 9.37578125,8.80643744 9.42519531,8.6868804 C9.51757813,8.46484589 9.62070313,8.27270064 9.7796875,8.26416085 C9.82050781,8.25989096 9.86132813,8.2300017 9.9,8.21719201 C10.1105469,8.14033392 10.1642578,8.26416085 10.1191406,8.69969008 C10.10625,8.83205681 10.0611328,8.81924713 10.0160156,8.82351702 C9.934375,8.82351702 9.8484375,8.79789766 9.7796875,8.92172459 Z" id="形状" fill="#F9BF00"></path>
                            <path d="M11.3931641,8.27578125 C11.3824219,8.32519531 11.3888672,8.3875 11.3050781,8.3875 C11.2384766,8.3875 11.2255859,8.35097656 11.2341797,8.29726562 C11.2427734,8.23710937 11.2492187,8.16835937 11.3287109,8.16835937 C11.3910156,8.17050781 11.3910156,8.22636719 11.3931641,8.27578125 Z" id="路径" fill="#B0AA83"></path>
                            <path d="M11.4898438,9.31132812 C11.4662109,9.43808594 11.1761719,9.43808594 11.1568359,9.31347656 C11.1998047,9.13300781 11.4619141,9.18242187 11.4898438,9.31132812 Z" id="路径" fill="#A71817"></path>
                            <path d="M11.8701172,9.42089844 C11.8335937,9.33710938 11.8164062,9.35859375 11.8701172,9.30273438 C11.9560547,9.28769531 12.0742187,9.27480469 12.1171875,9.37148437 L12.0914062,9.41445312 C12.0183594,9.45527344 11.9453125,9.46601562 11.8701172,9.42089844 Z" id="路径" fill="#218957"></path>
                            <path d="M10.8313128,8.87257516 C10.8401824,8.85589093 10.8756606,8.84198741 10.8933998,8.84754882 C10.9673128,8.86701375 10.9643562,8.91984713 10.9466171,8.97546122 L10.8874867,8.98380334 C10.849052,8.95599629 10.7958346,8.93096995 10.8313128,8.87257516 Z" id="路径" fill="#B87875"></path>
                            <path d="M11.7437044,8.96292969 C11.7301345,8.91542969 11.7131722,8.86792969 11.777629,8.83042969 C11.7878064,8.82542969 11.821731,8.82792969 11.8319084,8.83792969 C11.8861878,8.88042969 11.8760104,8.92542969 11.8285159,8.96542969 L11.7437044,8.96292969 Z" id="路径" fill="#B6827C"></path>
                            <path d="M11.3404106,8.17228781 C11.2907593,8.16924386 11.2752433,8.13576035 11.2752433,8.09618893 C11.2721401,8.08096915 11.2783465,8.06270542 11.2907593,8.05357355 C11.3031721,8.04139773 11.3186881,8.03530982 11.3342042,8.03530982 C11.3745458,8.03226587 11.4148874,8.04139773 11.4117842,8.09314497 C11.408681,8.12967244 11.3807522,8.16315595 11.3404106,8.17228781 Z" id="路径" fill="#B0AA83"></path>
                            <path d="M12.6252965,9.0134333 C12.6419268,9.00484552 12.6851655,9.01629589 12.6951437,9.03060886 C12.7450345,9.09072332 12.6652092,9.10789887 12.6386007,9.14511258 C12.6319486,9.14511258 12.6219705,9.14511258 12.6119923,9.14797518 C12.5687536,9.09931109 12.5487973,9.05064701 12.6252965,9.0134333 Z" id="路径" fill="#A36F6F"></path>
                            <path d="M14.4332031,10.6777344 C14.4246094,10.7357422 14.4310547,10.7980469 14.4310547,10.8582031 C14.4310547,11.06875 14.4160156,11.0837891 14.2054688,11.0923828 L14.0164063,11.0837891 C14.0164063,10.9226563 14.0142578,10.7615234 14.0142578,10.5982422 C14.0142578,10.3791016 14.0142578,10.3791016 14.2376953,10.3984375 C14.4310547,10.4027344 14.4546875,10.5208984 14.4332031,10.6777344 Z" id="路径" fill="#DADADA"></path>
                            <path d="M14.5169922,11.5242188 C14.50625,11.4919922 14.4933594,11.4619141 14.4568359,11.4554688 C14.3171875,11.4361328 14.3859375,11.3480469 14.4009766,11.2814453 C14.4246094,11.1869141 14.4890625,11.2105469 14.5513672,11.2363281 C14.6029297,11.2556641 14.6394531,11.2771484 14.609375,11.3480469 C14.5857422,11.4039063 14.5814453,11.4705078 14.5664062,11.5306641 L14.5169922,11.5242188 Z" id="路径" fill="#C19405"></path>
                            <path d="M14.9015625,11.584375 C14.8951172,11.6058594 14.8800781,11.6230469 14.8607422,11.6359375 C14.85,11.6423828 14.815625,11.6251953 14.815625,11.6208984 C14.8177734,11.5285156 14.6759766,11.5263672 14.6953125,11.4490234 C14.7103516,11.3845703 14.7941406,11.3458984 14.8628906,11.3544922 C14.9208984,11.3609375 14.9337891,11.4189453 14.9123047,11.4748047 C14.9101563,11.5113281 14.9101563,11.55 14.9015625,11.584375 Z" id="路径" fill="#C08E05"></path>
                            <path d="M13.7005859,11.4210938 C13.6039063,11.3845703 13.5566406,11.3072266 13.5201172,11.2212891 C13.5115234,11.2041016 13.5222656,11.1847656 13.54375,11.1783203 C13.5759766,11.1675781 13.6125,11.171875 13.6318359,11.1998047 C13.6726563,11.2599609 13.7091797,11.3072266 13.7693359,11.2169922 C13.7779297,11.2019531 13.8080078,11.2041016 13.8123047,11.2255859 C13.8251953,11.2728516 13.7972656,11.3136719 13.7800781,11.3544922 C13.7650391,11.3888672 13.7392578,11.4210938 13.7005859,11.4210938 Z" id="路径" fill="#BF8207"></path>
                            <path d="M14.2634766,11.3308594 C14.265625,11.3587891 14.2591797,11.3910156 14.2226562,11.3867188 C14.1947266,11.3824219 14.1839844,11.3544922 14.1775391,11.3244141 C14.1539062,11.20625 14.1904297,11.1697266 14.334375,11.1869141 C14.3064453,11.2427734 14.2591797,11.2728516 14.2634766,11.3308594 Z" id="路径" fill="#C08D06"></path>
                            <path d="M13.9989897,11.3716797 C13.9922445,11.378125 13.9517734,11.378125 13.9450282,11.3738281 C13.8742038,11.3136719 13.8910668,11.2556641 13.955146,11.1804687 C14.0428334,11.2513672 14.0630689,11.309375 13.9989897,11.3716797 Z" id="路径" fill="#C08A06"></path>
                            <path d="M14.4289062,13.5373047 C14.3236328,13.5416016 14.2162109,13.54375 14.1087891,13.5480469 C14.0486328,13.5501953 14.0121094,13.5330078 14.0121094,13.4621094 C14.0142578,13.1548828 14.0121094,12.8498047 14.0121094,12.5447266 C14.0121094,12.5082031 14.0292969,12.4845703 14.0615234,12.4695312 C14.1818359,12.5060547 14.2978516,12.5490234 14.403125,12.615625" id="路径" fill="#DADADA"></path>
                            <path d="M14.6523437,13.3375 C14.6544922,13.5566406 14.6523437,13.5566406 14.4289063,13.5373047 C14.4181641,13.2300781 14.4546875,12.9228516 14.4052734,12.615625 C14.4890625,12.6349609 14.5771484,12.65 14.6458984,12.7101562 L14.6523437,13.3375 Z" id="路径" fill="#C2C0BE"></path>
                            <path d="M8.44550781,13.5373047 C8.03085937,13.5566406 8.03085937,13.5566406 8.02871094,13.1462891 C8.02871094,13.0001953 8.02441406,12.8519531 8.02441406,12.7058594 C8.09316406,12.6306641 8.20488281,12.6478516 8.28222656,12.5919922 C8.46484375,12.5619141 8.48847656,12.5791016 8.490625,12.7552734 C8.49492187,12.9636719 8.49277344,13.1720703 8.490625,13.3804688 C8.490625,13.4384766 8.48847656,13.4943359 8.44550781,13.5373047 Z" id="路径" fill="#D9D9D9"></path>
                            <path d="M8.02226562,12.0914062 C8.02441406,11.9732422 8.02226562,11.8529297 8.02226562,11.7347656 C8.02226562,11.6166016 8.06523437,11.5392578 8.19414062,11.5349609 C8.48847656,11.5005859 8.490625,11.5027344 8.48632812,11.7970703 C8.48417969,11.9152344 8.52070312,12.0376953 8.44550781,12.1472656 C8.3703125,12.1816406 8.29511719,12.2181641 8.22207031,12.2546875 C8.02441406,12.30625 8.02011719,12.3019531 8.02226562,12.0914062 Z" id="路径" fill="#D8D6D6"></path>
                            <path d="M8.45195313,12.753125 C8.45839844,12.615625 8.40898438,12.5705078 8.28222656,12.5919922 C8.37246094,12.5511719 8.45839844,12.4974609 8.55722656,12.4802734 C8.60019531,12.5189453 8.59804687,12.5705078 8.60019531,12.6199219 L8.60019531,13.3933594 C8.60019531,13.4449219 8.60019531,13.4964844 8.56152344,13.5351562 C8.52070313,13.5373047 8.48203125,13.5373047 8.44550781,13.5373047 C8.44550781,13.2751953 8.4390625,13.0152344 8.45195313,12.753125 Z" id="路径" fill="#ADACAC"></path>
                            <path d="M10.5208984,9.37792969 C10.5789063,9.27695312 10.6884766,9.27695312 10.759375,9.30488281 C10.7916016,9.32636719 10.7486328,9.40371094 10.7314453,9.42949219 C10.6605469,9.42734375 10.6068359,9.45097656 10.5208984,9.37792969 Z" id="路径" fill="#1A895C"></path>
                            <path d="M8.16835937,11.1181641 C8.08671875,11.1224609 8.05449219,11.0837891 8.05664062,11 C8.0609375,10.8388672 8.0609375,10.6777344 8.05664062,10.5166016 C8.05449219,10.4457031 8.08457031,10.4242187 8.15332031,10.4199219 C8.44765625,10.4027344 8.44765625,10.4005859 8.44765625,10.6927734 C8.44765625,10.7443359 8.44121094,10.7958984 8.44980469,10.8453125 C8.46699219,10.965625 8.42832031,11.0494141 8.31015625,11.0923828 C8.26503906,11.1246094 8.215625,11.1203125 8.16835937,11.1181641 Z" id="路径" fill="#D9D9D9"></path>
                            <path d="M7.97714844,11.2470703 C8.01582031,11.2449219 8.05019531,11.2599609 8.07167969,11.2921875 C8.09746094,11.3308594 8.07597656,11.3609375 8.04589844,11.3888672 C8.03300781,11.3996094 8.01796875,11.4125 8.00722656,11.4275391 C7.98359375,11.4619141 8.02441406,11.5585938 7.93847656,11.5285156 C7.85898437,11.5005859 7.84609375,11.3996094 7.84394531,11.3265625 C7.84394531,11.2578125 7.92558594,11.2642578 7.97714844,11.2470703 Z" id="路径" fill="#C08D06"></path>
                            <path d="M8.58945312,11.378125 C8.56582031,11.4167969 8.525,11.4382813 8.48632812,11.3931641 C8.44335937,11.3416016 8.38320312,11.2792969 8.40683594,11.2126953 C8.43261719,11.1417969 8.47558594,11.1998047 8.51425781,11.2234375 C8.6109375,11.2835938 8.58945312,11.1417969 8.65820312,11.1417969 C8.69257812,11.2363281 8.63242187,11.3072266 8.58945312,11.378125 Z" id="路径" fill="#B8710E"></path>
                            <path d="M8.21777344,11.446875 C8.13183594,11.4082031 8.13828125,11.3308594 8.14257812,11.2556641 C8.14472656,11.2298828 8.13828125,11.1869141 8.17050781,11.1869141 C8.25,11.1826172 8.22636719,11.2685547 8.25859375,11.3072266 C8.29511719,11.3458984 8.31875,11.3953125 8.34667969,11.4447266 C8.29941406,11.4619141 8.25644531,11.4640625 8.21777344,11.446875 Z" id="路径" fill="#BD7C09"></path>
                            <path d="M9.44453125,9.89570313 C10.0203125,9.89570313 10.5960938,9.89785156 11.1697266,9.89355469 C11.2621094,9.89355469 11.2878906,9.92578125 11.2878906,10.0138672 C11.2835938,10.4091797 11.2857422,10.8023438 11.2878906,11.1976562 C11.2878906,11.2642578 11.2771484,11.3029297 11.1976563,11.3222656 C11.0837891,11.3523437 10.9763672,11.4082031 10.8646484,11.4533203 C10.79375,11.4576172 10.7529297,11.4404297 10.7550781,11.3544922 C10.7615234,11.1740234 10.7529297,10.9978516 10.8023438,10.8195313 C10.828125,10.7271484 10.8560547,10.6154297 10.7314453,10.5380859 C10.6712891,10.5015625 10.7916016,10.4328125 10.7572266,10.3683594 C10.7185547,10.3125 10.6583984,10.3253906 10.6046875,10.3189453 C10.5359375,10.3103516 10.4822266,10.3017578 10.4886719,10.2050781 C10.4951172,10.0890625 10.3984375,10.0804687 10.3125,10.0761719 C10.2265625,10.071875 10.1707031,10.1083984 10.1835938,10.209375 C10.1900391,10.2416016 10.175,10.2759766 10.1492187,10.2953125 C10.0697266,10.3382812 9.97089844,10.2759766 9.89570312,10.3404297 C9.89355469,10.3855469 9.88710937,10.4328125 9.90859375,10.4757813 C9.93222656,10.5251953 9.90644531,10.5402344 9.865625,10.5681641 C9.7796875,10.6261719 9.74746094,10.7292969 9.8140625,10.8066406 C9.9,10.9076172 9.89140625,11.0171875 9.89140625,11.1310547 C9.89140625,11.2363281 9.88925781,11.34375 9.88925781,11.4490234 C9.69804688,11.4232422 9.76464844,11.5671875 9.75175781,11.6574219 C9.73671875,11.7669922 9.79042969,11.7927734 9.88925781,11.7863281 C9.98164063,11.7798828 10.0740234,11.7841797 10.1664062,11.7841797 C10.2888672,11.8421875 10.4199219,11.7970703 10.5466797,11.8121094 C10.5982422,11.8185547 10.6626953,11.7927734 10.6691406,11.8808594 C10.6755859,11.9582031 10.6433594,12.0076172 10.5724609,12.0248047 C10.4972656,12.0441406 10.4199219,12.0613281 10.3404297,12.0613281 C10.0568359,12.0591797 9.77539062,12.0570312 9.49179687,12.0634766 C9.37148437,12.065625 9.32636719,12.0291016 9.33066406,11.9044922 C9.33710937,11.6595703 9.3328125,11.4146484 9.3328125,11.1675781 C9.33710937,10.7658203 9.33710937,10.3576172 9.33710937,9.94941406 C9.34785156,9.88066406 9.4015625,9.89570313 9.44453125,9.89570313 Z" id="路径" fill="#AB1519"></path>
                            <path d="M9.98808594,13.6554687 L9.97519531,12.1 C10.1642578,12.1193359 10.1707031,12.1257813 10.1707031,12.30625 L10.1707031,14.2505859 C10.1707031,14.2957031 10.1535156,14.3193359 10.10625,14.3214844 C10.0503906,14.3236328 10.0332031,14.2957031 10.0332031,14.2441406 C10.0332031,14.0873047 10.0353516,13.9283203 10.0310547,13.7714844 C10.0310547,13.7285156 10.0568359,13.6726562 9.98808594,13.6554687 Z" id="路径" fill="#9E1717"></path>
                            <path d="M10.5896484,14.3515625 C10.4392578,14.36875 10.4371094,14.36875 10.4371094,14.2291016 L10.4371094,12.2546875 C10.4371094,12.1988281 10.4328125,12.1429687 10.4779297,12.0978516 C10.5853516,12.0785156 10.621875,12.1171875 10.621875,12.2310547 C10.6175781,12.85625 10.6197266,13.4792969 10.6197266,14.1044922 C10.6175781,14.1775391 10.6240234,14.2484375 10.6455078,14.3214844 L10.5896484,14.3515625 Z" id="路径" fill="#9F2115"></path>
                            <path d="M9.80761719,14.1109375 C9.81191406,13.4964844 9.80976563,12.8820312 9.80976563,12.2654297 C9.80976563,12.2417969 9.80976563,12.2181641 9.81191406,12.1966797 C9.81621094,12.1558594 9.83554688,12.1236328 9.88066406,12.1279297 C9.92363281,12.1322266 9.92148437,12.1708984 9.92148437,12.203125 C9.92148437,12.3148437 9.91503906,12.4265625 9.92363281,12.5361328 C9.94726562,12.8476562 9.92148437,13.1613281 9.92148437,13.4728516 C9.92148437,13.5373047 9.92148437,13.6017578 9.97734375,13.6511719 C9.97734375,13.8273437 9.97519531,14.0013672 9.97519531,14.1775391 C9.97734375,14.2355469 9.97089844,14.2806641 9.89355469,14.2634766 C9.83339844,14.23125 9.80761719,14.1882812 9.80761719,14.1109375 Z" id="路径" fill="#C4AD00"></path>
                            <path d="M10.1964844,11.6638672 C10.2072266,11.5994141 10.1621094,11.5005859 10.2738281,11.4898437 C10.4070312,11.4769531 10.4542969,11.5328125 10.4585937,11.6789062 C10.4585937,11.7068359 10.4628906,11.7347656 10.4671875,11.7605469 C10.3726562,11.7992187 10.2802734,11.8056641 10.1878906,11.7605469 C10.1900391,11.7283203 10.1900391,11.6960937 10.1964844,11.6638672 Z" id="路径" fill="#133DC3"></path>
                            <path d="M10.2308594,14.3451172 C10.2308594,13.6425781 10.2287109,12.9378906 10.2287109,12.2353516 C10.2287109,12.1730469 10.2222656,12.1128906 10.3167969,12.1171875 C10.4048828,12.1193359 10.3941406,12.1773437 10.3941406,12.2332031 C10.3941406,12.9464844 10.3919922,13.6576172 10.3919922,14.3708984 L10.3146484,14.3837891 L10.2308594,14.3451172 Z" id="路径" fill="#C3B000"></path>
                            <path d="M11.5628906,14.3193359 C11.6273437,14.3214844 11.6939453,14.3171875 11.75625,14.3279297 C11.8185547,14.3408203 11.8292969,14.3816406 11.7755859,14.4246094 C11.7347656,14.4568359 11.6875,14.4804687 11.6359375,14.4804687 C11.5306641,14.4804687 11.4146484,14.4310547 11.3394531,14.5599609 C11.3265625,14.5814453 11.2943359,14.4869141 11.2814453,14.4611328 C11.2685547,14.4439453 11.1654297,14.5191406 11.0193359,14.5169922 C10.9570312,14.4998047 10.8904297,14.3837891 11.0085937,14.3365234 C11.06875,14.3322266 11.3179687,14.3794922 11.309375,14.3193359 C11.3394531,14.2978516 11.3695312,14.2935547 11.3996094,14.3128906 C11.4490234,14.4332031 11.5070312,14.3365234 11.5628906,14.3193359 Z" id="路径" fill="#2A6355"></path>
                            <path d="M11.3416016,7.55605469 C11.3501953,7.55864903 11.3587891,7.55864903 11.3673828,7.55864903 C11.4275391,7.63647922 11.4361328,7.69355469 11.3265625,7.69355469 C11.2943359,7.69355469 11.2621094,7.69096035 11.2320312,7.68836601 C11.1912109,7.55086601 11.2878906,7.57940374 11.3416016,7.55605469 Z" id="路径" fill="#1F63A5"></path>
                            <path d="M9.80546875,8.80214844 C9.85703125,8.80644531 9.94082031,8.78710938 9.94082031,8.85371094 C9.94296875,8.91386719 9.92148438,9.00195312 9.82050781,9.00195312 C9.76035156,9.00195312 9.70878906,8.98261719 9.68730469,8.92246094 C9.66582031,8.85585937 9.73886719,8.84296875 9.76464844,8.80429688 C9.77753906,8.80429688 9.79257813,8.80214844 9.80546875,8.80214844 Z" id="路径" fill="#A68503"></path>
                            <path d="M12.2654297,13.5201172 C12.2095703,13.5953125 12.2117187,13.6726562 12.2654297,13.75 C12.2912109,13.7865234 12.2912109,13.8273437 12.2912109,13.8703125 C12.2912109,13.9111328 12.2955078,13.9583984 12.2460937,13.9755859 C12.2052734,13.9927734 12.1623047,13.9863281 12.134375,13.9476562 C12.0957031,13.8960938 12.0376953,13.8789062 11.9818359,13.8595703 C11.9367187,13.8423828 11.8765625,13.8445312 11.8744141,13.7736328 C11.8701172,13.6984375 11.8894531,13.6189453 11.9560547,13.5953125 C12.0742187,13.5544922 12.1558594,13.4986328 12.1794922,13.3697266 C12.1837891,13.3417969 12.2224609,13.2880859 12.2697266,13.303125 C12.3083984,13.3181641 12.2826172,13.3697266 12.2912109,13.3998047 C12.2890625,13.4427734 12.2933594,13.4835937 12.2654297,13.5201172 Z" id="路径" fill="#AD1E17"></path>
                            <path d="M12.5275391,13.5244141 C12.6027344,13.5673828 12.6994141,13.5695312 12.7595703,13.6404297 C12.8283203,13.7199219 12.7982422,13.8316406 12.6972656,13.8595703 C12.6349609,13.8767578 12.5748047,13.9025391 12.5232422,13.9390625 C12.4287109,14.0035156 12.3449219,13.9669922 12.3814453,13.8724609 C12.4566406,13.68125 12.3878906,13.4964844 12.409375,13.3117187 C12.4072266,13.3095703 12.4136719,13.3074219 12.4244141,13.303125 C12.5232422,13.3460937 12.4501953,13.4792969 12.5275391,13.5244141 Z" id="路径" fill="#AD1D17"></path>
                            <path d="M12.6242188,12.8992187 C12.7058594,12.8712891 12.7724609,12.821875 12.7681641,12.7208984 C12.7660156,12.6757813 12.8025391,12.6478516 12.8304688,12.615625 C12.8583984,12.5833984 12.8820313,12.5167969 12.9335938,12.5490234 C12.9787109,12.5769531 12.9207031,12.6199219 12.9142578,12.6585938 C12.9013672,12.7359375 12.8820313,12.8132813 12.9507813,12.8777344 C12.99375,12.9185547 12.9722656,12.9636719 12.9464844,13.0023438 C12.9207031,13.0431641 12.8712891,13.0925781 12.8369141,13.0646484 C12.7037109,12.959375 12.5833984,13.0560547 12.4566406,13.0667969 L12.4480469,13.0582031 L12.4480469,13.0474609 C12.4931641,12.9830078 12.5447266,12.9271484 12.6242188,12.8992187 Z" id="路径" fill="#AD1F17"></path>
                            <path d="M12.8347656,12.4416016 C12.7917969,12.5339844 12.7488281,12.6199219 12.6478516,12.6521484 C12.5619141,12.6800781 12.5060547,12.7251953 12.5039062,12.8283203 C12.5017578,12.8777344 12.4695312,12.9378906 12.4072266,12.9121094 C12.3578125,12.8927734 12.3621094,12.8304687 12.3900391,12.7917969 C12.4458984,12.7101562 12.4330078,12.6306641 12.4050781,12.5425781 C12.3771484,12.4587891 12.4480469,12.3943359 12.5189453,12.4394531 C12.6285156,12.5082031 12.7230469,12.4845703 12.8347656,12.4416016 Z" id="路径" fill="#AE2117"></path>
                            <path d="M12.2052734,13.1785156 C12.1773437,13.2322266 12.134375,13.2816406 12.0828125,13.303125 C11.9732422,13.3482422 11.8958984,13.4041016 11.8830078,13.5351562 C11.8787109,13.5738281 11.8292969,13.6296875 11.7691406,13.6082031 C11.7132812,13.5867187 11.7261719,13.5330078 11.7390625,13.4878906 C11.7541016,13.4341797 11.7798828,13.3826172 11.7369141,13.3332031 L11.8529297,13.1828125 C11.9710937,13.2150391 12.0892578,13.2107422 12.2052734,13.1785156 Z" id="路径" fill="#AD2017"></path>
                            <path d="M12.9228516,13.5802734 C12.9292969,13.6017578 12.9035156,13.6189453 12.8777344,13.6210937 C12.8240234,13.6232422 12.7746094,13.5910156 12.7746094,13.5480469 C12.7724609,13.3976562 12.6865234,13.3289062 12.5597656,13.2859375 C12.5275391,13.2751953 12.4824219,13.2451172 12.4996094,13.2064453 C12.5189453,13.1570312 12.5619141,13.1978516 12.5941406,13.2042969 C12.6693359,13.2150391 12.7380859,13.1978516 12.8111328,13.1828125 C12.8755859,13.1677734 12.9443359,13.1742187 12.9572266,13.2730469 C12.8884766,13.3632812 12.8884766,13.4685547 12.9228516,13.5802734 Z" id="路径" fill="#AE2217"></path>
                            <path d="M12.4544922,13.0689453 C12.4373047,13.2472656 12.3814453,13.2730469 12.203125,13.1785156 L12.2052734,13.1806641 L12.2052734,13.0689453 L12.203125,13.0710937 C12.2804688,12.9958984 12.3578125,12.9550781 12.4480469,13.0474609 C12.4501953,13.0539062 12.4523438,13.0603516 12.4544922,13.0689453 Z" id="路径" fill="#368F53"></path>
                            <path d="M10.1814453,11.1310547 C10.1857422,11.2234375 10.1535156,11.2685547 10.0611328,11.2642578 C9.91503906,11.2341797 9.98808594,11.1203125 9.98164062,11.0429687 C9.97519531,10.9505859 10.0482422,10.9527344 10.1148437,10.9570312 C10.1449219,11.0128906 10.1792969,11.0623047 10.1814453,11.1310547 Z" id="路径" fill="#183B9F"></path>
                            <path d="M10.4865234,11.2556641 C10.484375,11.2019531 10.4779297,11.1460938 10.4779297,11.0923828 C10.4757812,11.0322266 10.4908203,10.9806641 10.5638672,10.9763672 C10.6283203,10.9720703 10.6798828,11.0107422 10.6820313,11.0666016 C10.6863281,11.1396484 10.6992188,11.2341797 10.5896484,11.2642578 L10.4865234,11.2556641 Z" id="路径" fill="#0C34AB"></path>
                            <path d="M10.6154297,10.7529297 C10.5574219,10.7529297 10.5423828,10.7099609 10.5402344,10.6712891 C10.5380859,10.6283203 10.5380859,10.5681641 10.5917969,10.5595703 C10.6519531,10.5488281 10.6798828,10.5982422 10.6884766,10.6541016 C10.6992187,10.7099609 10.6605469,10.7335938 10.6154297,10.7529297 Z" id="路径" fill="#9F8D00"></path>
                            <path d="M10.0065956,10.5445313 C10.0674771,10.5595703 10.1018884,10.5875 10.1098295,10.6326172 C10.1177706,10.6734375 10.1230646,10.7207031 10.051595,10.7271484 C9.99071348,10.7335938 9.97747837,10.6949219 9.97747837,10.65625 C9.97747837,10.6197266 9.9695373,10.5767578 10.0065956,10.5445313 Z" id="路径" fill="#A18F00"></path>
                            <path d="M10.3236061,10.6154297 C10.3660682,10.6154297 10.3972072,10.6296538 10.3972072,10.6652142 C10.3972072,10.7055159 10.3830531,10.7529297 10.3264369,10.7529297 C10.2811439,10.7529297 10.2669899,10.7078866 10.2613283,10.6746969 C10.2528358,10.6391366 10.2783131,10.6178004 10.3236061,10.6154297 Z" id="路径" fill="#AD9900"></path>
                            <path d="M11.6015625,11.7798828 C11.6316406,11.8400391 11.6982422,11.9259766 11.6789062,11.9582031 C11.6466797,12.0140625 11.6037109,12.0613281 11.5908203,12.1279297 C11.5886719,12.1386719 11.55,12.1515625 11.5306641,12.1472656 C11.4210937,12.1236328 11.4275391,12.0076172 11.4125,11.9410156 C11.3953125,11.8744141 11.4748047,11.790625 11.5478516,11.7326172 C11.5693359,11.7498047 11.5908203,11.7626953 11.6015625,11.7798828 Z" id="路径" fill="#918D1A"></path>
                            <path d="M11.4447266,12.2632812 C11.4919922,12.3449219 11.3953125,12.4222656 11.3544922,12.4974609 C11.3373047,12.5318359 11.2621094,12.5082031 11.2535156,12.4695312 C11.2363281,12.3921875 11.1310547,12.30625 11.2470703,12.2289062 C11.2814453,12.2052734 11.2814453,12.1773437 11.2857422,12.1472656 C11.2900391,12.1214844 11.2964844,12.0957031 11.3458984,12.0914062 C11.4017578,12.1279297 11.4125,12.2095703 11.4447266,12.2632812 Z" id="路径" fill="#898314"></path>
                            <path d="M11.1332109,12.03125 C11.0730469,12.0269531 11.0816406,11.9582031 11.0558594,11.9367188 C10.9033203,11.8078125 11.1804687,11.5414063 11.2556641,11.6595703 C11.2556641,11.8185547 11.2535156,12.0398438 11.1332109,12.03125 Z" id="路径" fill="#657234"></path>
                            <path d="M11.1912109,14.2806641 C11.1203125,14.2720703 11.103125,14.1195313 11.171875,14.0958984 C11.3394531,14.0421875 11.3394531,14.0421875 11.5285156,14.0636719 C11.5521484,14.1410156 11.5865234,14.1753906 11.5435547,14.2484375 C11.5027344,14.3021484 11.3136719,14.2957031 11.1912109,14.2806641 Z" id="路径" fill="#D6B37C"></path>
                            <path d="M11.2943359,14.2699219 C11.2792969,14.1925781 11.2792969,14.1152344 11.3136719,14.0421875 C11.3609375,14.0292969 11.3695313,14.0744141 11.3931641,14.0958984 C11.446875,14.1667969 11.4167969,14.2398437 11.4017578,14.3128906 L11.3136719,14.3171875 L11.2943359,14.2699219 Z" id="路径" fill="#822C24"></path>
                            <path d="M12.6220703,10.6992188 C12.71875,10.6691406 12.71875,10.5982422 12.6972656,10.5230469 C12.6822266,10.4736328 12.6693359,10.4242188 12.6929687,10.3748047 C12.7144531,10.3296875 12.7552734,10.2996094 12.8068359,10.3146484 C12.8648437,10.3318359 12.8433594,10.3769531 12.8347656,10.4177734 C12.8068359,10.5552734 12.8175781,10.690625 12.8433594,10.8302734 C12.8863281,11.0730469 12.85625,11.1009766 12.6263672,11.0623047 C12.5876953,10.9914062 12.5511719,10.9226562 12.5404297,10.8410156 C12.5876953,10.8066406 12.5898437,10.7443359 12.6220703,10.6992188 Z" id="路径" fill="#D7D4D5"></path>
                            <path d="M12.30625,8.87519531 C12.2933594,8.87519531 12.2783203,8.87304688 12.2654297,8.87304688 C12.1945313,8.87519531 12.1300781,8.86660156 12.1429687,8.77207031 C12.1515625,8.71191406 12.203125,8.69042969 12.2439453,8.7140625 C12.2998047,8.74414062 12.3964844,8.76992187 12.3298828,8.87304688 C12.3212891,8.87304688 12.3126953,8.87519531 12.30625,8.87519531 Z" id="路径" fill="#B08D03"></path>
                            <path d="M11.2343451,8.73470922 C11.2759946,8.73470922 11.317644,8.6705172 11.3569796,8.7317914 C11.3754905,8.76096959 11.3731766,8.79014778 11.3523519,8.81349033 C11.3107024,8.86892889 11.2713668,8.83391506 11.2320312,8.80473687 C11.2343451,8.78139432 11.2343451,8.75805177 11.2343451,8.73470922 Z" id="路径" fill="#A91718"></path>
                        </g>
                    </g>
                </g>
            </g>
        </g>
    </g>
</svg>