<?xml version="1.0" encoding="UTF-8"?>
<svg width="18px" height="18px" viewBox="0 0 18 18" version="1.1" xmlns="http://www.w3.org/2000/svg" xmlns:xlink="http://www.w3.org/1999/xlink">
    <title>展示</title>
    <g id="设计规范" stroke="none" stroke-width="1" fill="none" fill-rule="evenodd">
        <g id="ICON" transform="translate(-844.000000, -551.000000)" fill-rule="nonzero">
            <g id="编组" transform="translate(844.000000, 551.000000)">
                <rect id="矩形" fill="#000000" opacity="0" x="0" y="0" width="18" height="18"></rect>
                <path d="M17.9982422,8.99472656 L17.9894531,8.99472656 C16.4548828,5.39296875 13.3242188,2.81953125 9.02109375,2.80546875 L9.00703125,2.80546875 C4.6828125,2.80546875 1.53632813,5.38945313 1.13686838e-13,9.00351563 C1.13686838e-13,9.00351563 1.13686838e-13,9.00527344 0.0017578125,9.00527344 L0.010546875,9.00527344 C1.54511719,12.6070313 4.67578125,15.1804688 8.97890625,15.1945313 L8.99296875,15.1945313 C13.3171875,15.1945313 16.4636719,12.6105469 18,8.99648438 L17.9982422,8.99472656 Z M9.00175781,13.1378906 C6.71484375,13.1378906 4.86386719,11.2851563 4.86386719,9 C4.86386719,6.71484375 6.71660156,4.86210938 9.00175781,4.86210938 C11.2869141,4.86210938 13.1396484,6.71484375 13.1396484,9 C13.1396484,11.2851563 11.2869141,13.1378906 9.00175781,13.1378906 Z" id="形状" fill="#00BE8C"></path>
                <path d="M6.54960938,9 C6.54960938,10.3535156 7.64648438,11.4503906 9,11.4503906 C10.3535156,11.4503906 11.4503906,10.3535156 11.4503906,9 C11.4503906,7.64648438 10.3535156,6.54960938 9,6.54960938 C7.64824219,6.54960938 6.54960938,7.64648438 6.54960938,9 Z" id="路径" fill="#00BE8C"></path>
            </g>
        </g>
    </g>
</svg>