<?xml version="1.0" encoding="UTF-8"?>
<svg width="18px" height="18px" viewBox="0 0 18 18" version="1.1" xmlns="http://www.w3.org/2000/svg" xmlns:xlink="http://www.w3.org/1999/xlink">
    <g id="Light" stroke="none" stroke-width="1" fill="none" fill-rule="evenodd">
        <g id="A2.1-我的-关联账户-图形列表" transform="translate(-633.000000, -184.000000)" fill-rule="nonzero">
            <g id="编组-69" transform="translate(621.000000, 177.000000)">
                <g id="编组" transform="translate(12.000000, 7.000000)">
                    <rect id="矩形" fill="#000000" opacity="0" x="0" y="0" width="18" height="18"></rect>
                    <path d="M13.9261113,8.49608789 L15.4077715,10.6434668 C15.6581895,11.0063848 15.5669766,11.5035996 15.204041,11.7540176 C14.841123,12.004418 14.3439258,11.9132051 14.0935078,11.5502871 L12.401877,9.09857813 C11.5779375,9.35265234 10.7025117,9.51563672 9.79838086,9.57629883 L9.79838086,12.500332 C9.79838086,12.9412617 9.44092969,13.2986953 9,13.2986953 C8.55907031,13.2986953 8.20161914,12.9412617 8.20161914,12.500332 L8.20161914,9.57629883 C7.29748828,9.51563672 6.4220625,9.35265234 5.59812305,9.09857813 L3.90649219,11.5502871 C3.65607422,11.9132051 3.15887695,12.004418 2.79595898,11.7540176 C2.43302344,11.5035996 2.34181055,11.0063848 2.59222852,10.6434668 L4.07388867,8.49608789 C2.82095508,7.88141602 1.75357617,7.03142578 0.978609375,5.99872852 C0.713970703,5.64604102 0.785320312,5.14560937 1.13799023,4.88095312 C1.49067773,4.61631445 1.99110937,4.68766406 2.25576562,5.04033398 C3.61128516,6.84671484 6.16306641,8.00623828 9,8.00623828 C11.8369336,8.00623828 14.3887148,6.84671484 15.7442344,5.04033398 C16.0088906,4.68766406 16.5093223,4.61631445 16.8620098,4.88095313 C17.2146797,5.14560938 17.2860293,5.64604102 17.0213906,5.99872852 C16.2464238,7.03144336 15.1790449,7.88141602 13.9261113,8.49608789 Z" id="路径" fill="#FFFFFF"></path>
                </g>
            </g>
        </g>
    </g>
</svg>