<?xml version="1.0" encoding="UTF-8"?>
<svg width="19px" height="18px" viewBox="0 0 19 18" version="1.1" xmlns="http://www.w3.org/2000/svg" xmlns:xlink="http://www.w3.org/1999/xlink">
    <g id="设计规范" stroke="none" stroke-width="1" fill="none" fill-rule="evenodd">
        <g id="ICON" transform="translate(-381.000000, -551.000000)" fill-rule="nonzero">
            <g id="编组-2" transform="translate(381.000000, 551.000000)">
                <rect id="矩形" fill="#000000" opacity="0" x="0" y="0" width="18" height="18"></rect>
                <path d="M1.35631347,7.14680953 C2.10695773,4.04473385 4.65469342,1.70284033 7.80728718,1.21703685 C10.9598809,0.731233367 14.0937398,2.19761337 15.7423494,4.92997256 C17.3909591,7.66233176 17.2282192,11.1202009 15.3302854,13.6854425 C13.4323515,16.250684 10.1746409,17.415885 7.08162539,16.6357804 C5.06310365,16.140084 3.32480081,14.860793 2.25057897,13.0804079 C1.17635713,11.3000229 0.854583315,9.16500077 1.35631347,7.14680953" id="路径" fill="#E72D14"></path>
                <path d="M10.575,9.891 L10.242,10.296 L9.756,10.125 L10.035,10.566 L9.702,10.971 L10.206,10.845 L10.494,11.286 L10.494,10.764 L11.007,10.629 L10.521,10.44 L10.575,9.891 Z M12.519,8.793 L11.997,8.793 L11.835,8.325 L11.673,8.829 L11.151,8.829 L11.574,9.135 L11.412,9.639 L11.835,9.324 L12.258,9.639 L12.096,9.135 L12.519,8.793 Z M11.664,6.867 L11.745,7.425 L11.988,6.957 L12.51,7.038 L12.132,6.669 L12.375,6.201 L11.925,6.399 L11.556,6.03 L11.637,6.552 L11.169,6.786 L11.664,6.867 Z M10.584,4.464 L10.251,4.869 L9.756,4.671 L10.044,5.121 L9.702,5.517 L10.215,5.391 L10.494,5.832 L10.494,5.31 L11.025,5.184 L10.539,4.986 L10.584,4.464 Z M6.921,6.777 L6.426,5.256 L5.931,6.777 L4.338,6.777 L5.625,7.713 L5.13,9.225 L6.426,8.325 L7.713,9.225 L7.218,7.713 L8.514,6.813 L6.921,6.777 Z" id="形状" fill="#FFD700"></path>
            </g>
        </g>
    </g>
</svg>