<?xml version="1.0" encoding="UTF-8"?>
<svg width="24px" height="24px" viewBox="0 0 24 24" version="1.1" xmlns="http://www.w3.org/2000/svg" xmlns:xlink="http://www.w3.org/1999/xlink">
    <title>法国</title>
    <defs>
        <path d="M0.282166863,7.34118519 C1.19783741,3.55944618 4.30568312,0.704444879 8.15136264,0.11220208 C11.9970422,-0.480040719 15.8198681,1.30762246 17.8309182,4.63864028 C19.8419684,7.9696581 19.6434509,12.1851448 17.3282635,15.3124295 C15.0130761,18.4397143 11.0391701,19.8602103 7.26616686,18.9091852 C4.80388079,18.3048819 2.68341867,16.7452988 1.37303324,14.5748323 C0.0626478048,12.4043657 -0.329866767,9.80156119 0.282166863,7.34118519" id="path-1"></path>
    </defs>
    <g id="设计规范" stroke="none" stroke-width="1" fill="none" fill-rule="evenodd">
        <g id="ICON" transform="translate(-282.000000, -982.000000)">
            <g id="法国" transform="translate(282.000000, 982.000000)">
                <rect id="矩形" fill="#000000" fill-rule="nonzero" opacity="0" x="0" y="0" width="24" height="24"></rect>
                <g id="国旗" transform="translate(2.441833, 2.366815)">
                    <mask id="mask-2" fill="white">
                        <use xlink:href="#path-1"></use>
                    </mask>
                    <use id="蒙版" fill="#E72D14" fill-rule="nonzero" xlink:href="#path-1"></use>
                    <g id="法国" mask="url(#mask-2)" fill-rule="nonzero">
                        <g transform="translate(-0.441833, -0.366815)">
                            <rect id="矩形" fill="#000000" opacity="0" x="0" y="0" width="20" height="20"></rect>
                            <path d="M0,10 C0,15.5228475 4.4771525,20 10,20 C15.5228475,20 20,15.5228475 20,10 C20,4.4771525 15.5228475,0 10,0 C4.4771525,0 0,4.4771525 0,10 Z" id="路径" fill="#FFFFFF"></path>
                            <path d="M20,10 C20,5.70035156 17.28625,2.03492187 13.4782422,0.621992187 L13.4782422,19.3780469 C17.28625,17.9650781 20,14.2996484 20,10 Z" id="路径" fill="#D80027"></path>
                            <path d="M0,10 C0,14.2996484 2.71378906,17.9650781 6.52175781,19.3780078 L6.52175781,0.621992187 C2.71378906,2.03492187 0,5.70035156 0,10 Z" id="路径" fill="#0052B4"></path>
                        </g>
                    </g>
                </g>
            </g>
        </g>
    </g>
</svg>