<?xml version="1.0" encoding="UTF-8"?>
<svg width="18px" height="18px" viewBox="0 0 18 18" version="1.1" xmlns="http://www.w3.org/2000/svg" xmlns:xlink="http://www.w3.org/1999/xlink">
    <title>放大</title>
    <g id="设计规范" stroke="none" stroke-width="1" fill="none" fill-rule="evenodd">
        <g id="ICON" transform="translate(-1185.000000, -656.000000)" fill="#AAADB8" fill-rule="nonzero">
            <g id="全屏-最大化" transform="translate(1185.000000, 656.000000)">
                <rect id="矩形" opacity="0" x="0" y="0" width="18" height="18"></rect>
                <path d="M1.5,2.1615 L1.5,6.5625 C1.5,6.873 1.752,7.125 2.0625,7.125 C2.373,7.125 2.625,6.873 2.625,6.5625 L2.625,3.386625 L6.201375,6.964125 C6.41175,7.1745 6.752625,7.1745 6.964125,6.964125 C7.1745,6.752625 7.1745,6.41175 6.964125,6.201375 L3.386625,2.625 L6.5625,2.625 C6.873,2.625 7.125,2.373 7.125,2.0625 C7.125,1.752 6.873,1.5 6.5625,1.5 L2.1615,1.5 C1.750875,1.5 1.5,1.7115 1.5,2.1615 Z M15.498375,1.5 L11.097375,1.5 C10.786875,1.5 10.534875,1.752 10.534875,2.0625 C10.534875,2.373 10.786875,2.625 11.097375,2.625 L14.27325,2.625 L10.69575,6.201375 C10.485375,6.41175 10.485375,6.752625 10.69575,6.964125 C10.90725,7.1745 11.248125,7.1745 11.4585,6.964125 L15.034875,3.386625 L15.034875,6.5625 C15.034875,6.873 15.286875,7.125 15.597375,7.125 C15.907875,7.125 16.159875,6.873 16.159875,6.5625 L16.159875,2.1615 C16.159875,1.7115 15.910125,1.5 15.498375,1.5 Z M2.1615,16.125 L6.5625,16.125 C6.873,16.125 7.125,15.873 7.125,15.5625 C7.125,15.252 6.873,15 6.5625,15 L3.386625,15 L6.964125,11.423625 C7.1745,11.21325 7.1745,10.872375 6.964125,10.660875 C6.752625,10.4505 6.41175,10.4505 6.201375,10.660875 L2.625,14.238375 L2.625,11.0625 C2.625,10.752 2.373,10.5 2.0625,10.5 C1.752,10.5 1.5,10.752 1.5,11.0625 L1.5,15.4635 C1.5,15.9135 1.750875,16.125 2.1615,16.125 Z M16.159875,15.4635 L16.159875,11.0625 C16.159875,10.752 15.907875,10.5 15.597375,10.5 C15.286875,10.5 15.034875,10.752 15.034875,11.0625 L15.034875,14.238375 L11.4585,10.660875 C11.248125,10.4505 10.90725,10.4505 10.69575,10.660875 C10.485375,10.872375 10.485375,11.21325 10.69575,11.423625 L14.27325,15 L11.097375,15 C10.786875,15 10.534875,15.252 10.534875,15.5625 C10.534875,15.873 10.786875,16.125 11.097375,16.125 L15.498375,16.125 C15.910125,16.125 16.159875,15.9135 16.159875,15.4635 Z" id="形状"></path>
            </g>
        </g>
    </g>
</svg>