<?xml version="1.0" encoding="UTF-8"?>
<svg width="18px" height="18px" viewBox="0 0 18 18" version="1.1" xmlns="http://www.w3.org/2000/svg" xmlns:xlink="http://www.w3.org/1999/xlink">
    <title>已连接</title>
    <g id="设计规范" stroke="none" stroke-width="1" fill="none" fill-rule="evenodd">
        <g id="ICON" transform="translate(-902.000000, -607.000000)" fill-rule="nonzero">
            <g id="编组" transform="translate(902.000000, 607.000000)">
                <rect id="矩形" fill="#000000" opacity="0" x="0" y="0" width="18" height="18"></rect>
                <path d="M10.3340039,6.80009766 L7.08503906,10.0492383 C6.92510484,10.2037079 6.86096295,10.4324542 6.9172664,10.6475582 C6.97356984,10.8626623 7.14155649,11.0306489 7.35666053,11.0869524 C7.57176458,11.1432558 7.80051082,11.0791139 7.95498047,10.9191797 L11.2041211,7.67021484 C11.4443973,7.42993862 11.4443973,7.04037388 11.2041211,6.80009766 C10.9638449,6.55982143 10.5742801,6.55982143 10.3340039,6.80009766 Z" id="路径" fill="#3AB98E"></path>
                <path d="M8.9296875,12.6008789 L6.64453125,14.8860352 C5.69049802,15.8293552 4.15367826,15.8249187 3.20510736,14.876106 C2.25653646,13.9272933 2.25249151,12.3904725 3.19605469,11.4366797 L5.48121094,9.15152344 C5.72148716,8.91124721 5.72148716,8.52168248 5.48121093,8.28140626 C5.24093471,8.04113003 4.85136998,8.04113003 4.61109375,8.28140625 L2.3259375,10.5665625 C0.893017458,11.9995311 0.893056808,14.3227928 2.32602539,15.7557129 C3.75899397,17.1886329 6.08225574,17.1885936 7.51517578,15.755625 L9.80033203,13.4704688 C9.9556693,13.3149431 10.0162349,13.08836 9.95921435,12.8760711 C9.9021938,12.6637823 9.73624989,12.4980394 9.52389208,12.4412762 C9.31153427,12.384513 9.08502476,12.4453532 8.9296875,12.6008789 Z M15.8378906,2.24419922 C15.1497963,1.55605263 14.2165087,1.1694515 13.2433594,1.1694515 C12.2702101,1.1694515 11.3369225,1.55605263 10.6488281,2.24419922 L8.36367188,4.52935547 C8.12752662,4.77031977 8.12949646,5.15651331 8.3680875,5.39505616 C8.60667854,5.633599 8.99287248,5.63549081 9.23378906,5.39929687 L11.5189453,3.11414062 C12.133905,2.49238535 13.0346945,2.24748757 13.8798086,2.47229235 C14.7249227,2.69709713 15.3849803,3.35718841 15.609742,4.20231398 C15.8345037,5.04743954 15.5895601,5.94821653 14.9677734,6.56314453 L12.6826172,8.84830078 C12.5271857,9.00373225 12.4664828,9.23027854 12.5233747,9.44260187 C12.5802666,9.6549252 12.74611,9.8207686 12.9584333,9.87766047 C13.1707566,9.93455233 13.3973029,9.87384943 13.5527344,9.71841797 L15.8378906,7.43326172 C16.5260372,6.74516736 16.9126383,5.81187978 16.9126383,4.83873047 C16.9126383,3.86558116 16.5260372,2.93229358 15.8378906,2.24419922 L15.8378906,2.24419922 Z" id="形状" fill="#3AB98E"></path>
            </g>
        </g>
    </g>
</svg>