<?xml version="1.0" encoding="UTF-8"?>
<svg width="24px" height="24px" viewBox="0 0 24 24" version="1.1" xmlns="http://www.w3.org/2000/svg" xmlns:xlink="http://www.w3.org/1999/xlink">
    <defs>
        <linearGradient x1="11.7361222%" y1="-6.58767747%" x2="83.7571153%" y2="100%" id="linearGradient-1">
            <stop stop-color="#DAE2EA" offset="0%"></stop>
            <stop stop-color="#A0A1A2" offset="100%"></stop>
        </linearGradient>
    </defs>
    <g id="设计规范" stroke="none" stroke-width="1" fill="none" fill-rule="evenodd">
        <g id="ICON" transform="translate(-716.000000, -309.000000)">
            <g id="编组-20复制备份-3" transform="translate(716.000000, 309.000000)">
                <rect id="矩形" fill="#000000" fill-rule="nonzero" opacity="0" x="0" y="0" width="24" height="24"></rect>
                <path d="M16.9421781,21 C16.4232816,21 15.7850365,20.9650824 15.0339488,20.9189734 C14.3122496,20.8742073 13.5658731,20.8294412 13.2659316,20.8708498 C12.8462953,20.9296077 12.4230609,20.9590757 11.9993124,20.959039 C7.6441399,20.9585959 3.91426181,17.8466485 3.14307477,13.5700184 C2.37188773,9.29338837 4.78072565,5.07948648 8.86262928,3.5645127 C12.9445329,2.04953893 17.5279788,3.66829709 19.7455818,7.40809865 C21.9631847,11.1479002 21.1784834,15.9354064 17.8823837,18.7755728 C17.9167076,18.8991272 18.1125558,19.1592182 18.2220333,19.3044842 C18.4946054,19.6664181 18.7521468,20.0082072 18.6608408,20.3777513 C18.6285359,20.5082445 18.5383516,20.688428 18.2918028,20.8050437 L18.2406535,20.8289935 C17.9701004,20.9545624 17.5337606,21 16.9421781,21 Z" id="路径" stroke-opacity="0.352100317" stroke="#FFFFFF" stroke-width="1.3" fill="url(#linearGradient-1)"></path>
                <path d="M11.5091795,15.7735337 C11.2682645,15.7735337 11.0729644,15.5786764 11.0729644,15.3383078 C11.0705005,13.9550621 11.9040923,12.7067736 13.1844948,12.1763294 C13.1929699,12.1728476 13.2012787,12.1695316 13.2094214,12.1663814 C13.2612687,12.1487236 13.3118696,12.129325 13.3589809,12.1089315 C14.5448382,11.6163164 15.1814643,10.3234084 14.8475435,9.08584685 C14.5136227,7.84828526 13.3124781,7.04900103 12.0390204,7.21695596 C10.7655627,7.3849109 9.81382997,8.46813574 9.81367364,9.7497584 C9.81367364,9.99012704 9.61837347,10.1849843 9.37745851,10.1849843 C9.13654355,10.1849843 8.94124338,9.99012704 8.94124338,9.7497584 C8.94124338,7.86087794 10.4814567,6.3244061 12.374381,6.3244061 C14.2673054,6.3244061 15.8075241,7.86112663 15.8075241,9.7497584 C15.8099826,11.1330041 14.9763908,12.3812926 13.6959882,12.9117368 C13.6354166,12.9366069 13.5713553,12.9614769 13.506297,12.9843574 C12.5575289,13.3830256 11.9412939,14.3109195 11.9431512,15.3380591 C11.9432916,15.5776534 11.7493152,15.7723016 11.5091795,15.7735337 L11.5091795,15.7735337 Z" id="路径" fill="#FFFFFF" fill-rule="nonzero"></path>
                <path d="M10.9864691,16.9648092 C10.9864691,17.2908865 11.2514078,17.5552243 11.5782261,17.5552243 C11.9050445,17.5552243 12.1699831,17.2908865 12.1699831,16.9648092 C12.1699831,16.638732 11.9050445,16.3743942 11.5782261,16.3743942 C11.2514078,16.3743942 10.9864691,16.638732 10.9864691,16.9648092 Z" id="路径" fill="#FFFFFF" fill-rule="nonzero"></path>
            </g>
            <g id="编组-20复制备份-3" transform="translate(716.000000, 309.000000)">
                <rect id="矩形" fill="#000000" fill-rule="nonzero" opacity="0" x="0" y="0" width="24" height="24"></rect>
                <path d="M16.9421781,21 C16.4232816,21 15.7850365,20.9650824 15.0339488,20.9189734 C14.3122496,20.8742073 13.5658731,20.8294412 13.2659316,20.8708498 C12.8462953,20.9296077 12.4230609,20.9590757 11.9993124,20.959039 C7.6441399,20.9585959 3.91426181,17.8466485 3.14307477,13.5700184 C2.37188773,9.29338837 4.78072565,5.07948648 8.86262928,3.5645127 C12.9445329,2.04953893 17.5279788,3.66829709 19.7455818,7.40809865 C21.9631847,11.1479002 21.1784834,15.9354064 17.8823837,18.7755728 C17.9167076,18.8991272 18.1125558,19.1592182 18.2220333,19.3044842 C18.4946054,19.6664181 18.7521468,20.0082072 18.6608408,20.3777513 C18.6285359,20.5082445 18.5383516,20.688428 18.2918028,20.8050437 L18.2406535,20.8289935 C17.9701004,20.9545624 17.5337606,21 16.9421781,21 Z" id="路径" stroke-opacity="0.352100317" stroke="#FFFFFF" stroke-width="1.3" fill="url(#linearGradient-1)"></path>
                <path d="M11.5091795,15.7735337 C11.2682645,15.7735337 11.0729644,15.5786764 11.0729644,15.3383078 C11.0705005,13.9550621 11.9040923,12.7067736 13.1844948,12.1763294 C13.1929699,12.1728476 13.2012787,12.1695316 13.2094214,12.1663814 C13.2612687,12.1487236 13.3118696,12.129325 13.3589809,12.1089315 C14.5448382,11.6163164 15.1814643,10.3234084 14.8475435,9.08584685 C14.5136227,7.84828526 13.3124781,7.04900103 12.0390204,7.21695596 C10.7655627,7.3849109 9.81382997,8.46813574 9.81367364,9.7497584 C9.81367364,9.99012704 9.61837347,10.1849843 9.37745851,10.1849843 C9.13654355,10.1849843 8.94124338,9.99012704 8.94124338,9.7497584 C8.94124338,7.86087794 10.4814567,6.3244061 12.374381,6.3244061 C14.2673054,6.3244061 15.8075241,7.86112663 15.8075241,9.7497584 C15.8099826,11.1330041 14.9763908,12.3812926 13.6959882,12.9117368 C13.6354166,12.9366069 13.5713553,12.9614769 13.506297,12.9843574 C12.5575289,13.3830256 11.9412939,14.3109195 11.9431512,15.3380591 C11.9432916,15.5776534 11.7493152,15.7723016 11.5091795,15.7735337 L11.5091795,15.7735337 Z" id="路径" fill="#FFFFFF" fill-rule="nonzero"></path>
                <path d="M10.9864691,16.9648092 C10.9864691,17.2908865 11.2514078,17.5552243 11.5782261,17.5552243 C11.9050445,17.5552243 12.1699831,17.2908865 12.1699831,16.9648092 C12.1699831,16.638732 11.9050445,16.3743942 11.5782261,16.3743942 C11.2514078,16.3743942 10.9864691,16.638732 10.9864691,16.9648092 Z" id="路径" fill="#FFFFFF" fill-rule="nonzero"></path>
            </g>
        </g>
    </g>
</svg>