<?xml version="1.0" encoding="UTF-8"?>
<svg width="24px" height="24px" viewBox="0 0 24 24" version="1.1" xmlns="http://www.w3.org/2000/svg" xmlns:xlink="http://www.w3.org/1999/xlink">
    <defs>
        <linearGradient x1="72.281901%" y1="100%" x2="18.3463542%" y2="0%" id="linearGradient-1">
            <stop stop-color="#FF0808" offset="0%"></stop>
            <stop stop-color="#FFA3A3" offset="100%"></stop>
        </linearGradient>
        <linearGradient x1="9.05902142%" y1="2.33139734%" x2="85.3146332%" y2="91.4161264%" id="linearGradient-2">
            <stop stop-color="#FFFFFF" stop-opacity="0.263193837" offset="0%"></stop>
            <stop stop-color="#FFFFFF" stop-opacity="0.194585498" offset="99.6922705%"></stop>
            <stop stop-color="#FFFFFF" stop-opacity="0.0893247378" offset="100%"></stop>
        </linearGradient>
        <linearGradient x1="50%" y1="0%" x2="50%" y2="100%" id="linearGradient-3">
            <stop stop-color="#F5515F" offset="0%"></stop>
            <stop stop-color="#9F041B" offset="100%"></stop>
        </linearGradient>
        <linearGradient x1="50%" y1="0%" x2="50%" y2="100%" id="linearGradient-4">
            <stop stop-color="#F5515F" offset="0%"></stop>
            <stop stop-color="#9F041B" offset="100%"></stop>
        </linearGradient>
        <linearGradient x1="50%" y1="100%" x2="50%" y2="-34.8722458%" id="linearGradient-5">
            <stop stop-color="#FFEEB0" offset="0%"></stop>
            <stop stop-color="#FFD005" offset="100%"></stop>
        </linearGradient>
    </defs>
    <g id="设计规范" stroke="none" stroke-width="1" fill="none" fill-rule="evenodd">
        <g id="ICON" transform="translate(-716.000000, -273.000000)">
            <g id="编组-20复制备份-4" transform="translate(716.000000, 273.000000)">
                <rect id="矩形" fill="#000000" fill-rule="nonzero" opacity="0" x="0" y="0" width="24" height="24"></rect>
                <path d="M16.9421781,21 C16.4232816,21 15.7850365,20.9650824 15.0339488,20.9189734 C14.3122496,20.8742073 13.5658731,20.8294412 13.2659316,20.8708498 C12.8462953,20.9296077 12.4230609,20.9590757 11.9993124,20.959039 C7.6441399,20.9585959 3.91426181,17.8466485 3.14307477,13.5700184 C2.37188773,9.29338837 4.78072565,5.07948648 8.86262928,3.5645127 C12.9445329,2.04953893 17.5279788,3.66829709 19.7455818,7.40809865 C21.9631847,11.1479002 21.1784834,15.9354064 17.8823837,18.7755728 C17.9167076,18.8991272 18.1125558,19.1592182 18.2220333,19.3044842 C18.4946054,19.6664181 18.7521468,20.0082072 18.6608408,20.3777513 C18.6285359,20.5082445 18.5383516,20.688428 18.2918028,20.8050437 L18.2406535,20.8289935 C17.9701004,20.9545624 17.5337606,21 16.9421781,21 Z" id="路径" fill="url(#linearGradient-1)"></path>
                <path d="M18.7865843,6.08164081 L18.8456221,6.15154678 C16.418561,4.08393173 12.993102,3.40265675 9.86262928,4.5645127 C5.78072565,6.07948648 3.37188773,10.2933884 4.14307477,14.5700184 C4.43301912,16.1779094 5.14118797,17.6211673 6.14357229,18.7963275 C4.61377869,17.4890763 3.52174738,15.6699534 3.14307477,13.5700184 C2.37188773,9.29338837 4.78072565,5.07948648 8.86262928,3.5645127 C12.4234388,2.24293983 16.3659109,3.30606746 18.7865843,6.08164081 Z" id="形状结合" fill="url(#linearGradient-2)"></path>
                <g id="编组-12备份" opacity="0.2" transform="translate(10.000000, 7.000000)" fill-rule="nonzero">
                    <path d="M2.99998911,0 C1.34567209,0 0,1.34759977 0,3.00530527 C0,3.40094821 0.319904943,3.72132747 0.71409532,3.72132747 C1.08012924,3.72132747 1.38211093,3.44508209 1.42338365,3.08884458 L1.42819064,3.00530527 C1.42828652,2.21633675 2.01226774,1.54917378 2.79406083,1.44567637 C3.57600962,1.34215835 4.31332202,1.83463642 4.51818084,2.59672847 C4.72296038,3.35852556 4.33247276,4.15453805 3.60468528,4.45800353 L3.47297476,4.50903277 C2.35267529,4.97489234 1.62380978,6.07045791 1.62596448,7.28465968 C1.62596387,7.67962074 1.94586882,8 2.34005919,8 C2.73493384,7.99797127 3.05267352,7.67793273 3.0524433,7.28356309 C3.05130435,6.65117241 3.42912066,6.08013827 4.01109333,5.83467664 L4.15289442,5.78028036 C5.27326448,5.31439169 6.00213109,4.2188285 6,3.00462641 C6,1.34772996 4.65424597,0 2.99998911,0 Z" id="路径" fill="url(#linearGradient-3)"></path>
                    <path d="M1.5,9.99773229 C1.5,10.5487646 1.94771525,10.9954646 2.5,10.9954646 C3.05228475,10.9954646 3.5,10.5487646 3.5,9.99773229 C3.5,9.44669996 3.05228475,9 2.5,9 C1.94771525,9 1.5,9.44669996 1.5,9.99773229 Z" id="路径" fill="url(#linearGradient-4)"></path>
                </g>
                <g id="编组-12" transform="translate(9.500000, 6.000000)" fill-rule="nonzero">
                    <path d="M2.99998911,0 C1.34567209,0 0,1.34759977 0,3.00530527 C0,3.40094821 0.319904943,3.72132747 0.71409532,3.72132747 C1.08012924,3.72132747 1.38211093,3.44508209 1.42338365,3.08884458 L1.42819064,3.00530527 C1.42828652,2.21633675 2.01226774,1.54917378 2.79406083,1.44567637 C3.57600962,1.34215835 4.31332202,1.83463642 4.51818084,2.59672847 C4.72296038,3.35852556 4.33247276,4.15453805 3.60468528,4.45800353 L3.47297476,4.50903277 C2.35267529,4.97489234 1.62380978,6.07045791 1.62596448,7.28465968 C1.62596387,7.67962074 1.94586882,8 2.34005919,8 C2.73493384,7.99797127 3.05267352,7.67793273 3.0524433,7.28356309 C3.05130435,6.65117241 3.42912066,6.08013827 4.01109333,5.83467664 L4.15289442,5.78028036 C5.27326448,5.31439169 6.00213109,4.2188285 6,3.00462641 C6,1.34772996 4.65424597,0 2.99998911,0 Z" id="路径" fill="url(#linearGradient-5)"></path>
                    <path d="M1.5,9.99773229 C1.5,10.5487646 1.94771525,10.9954646 2.5,10.9954646 C3.05228475,10.9954646 3.5,10.5487646 3.5,9.99773229 C3.5,9.44669996 3.05228475,9 2.5,9 C1.94771525,9 1.5,9.44669996 1.5,9.99773229 Z" id="路径" fill="#FFF3C3"></path>
                </g>
            </g>
            <g id="编组-20复制备份-4" transform="translate(716.000000, 273.000000)">
                <rect id="矩形" fill="#000000" fill-rule="nonzero" opacity="0" x="0" y="0" width="24" height="24"></rect>
                <path d="M16.9421781,21 C16.4232816,21 15.7850365,20.9650824 15.0339488,20.9189734 C14.3122496,20.8742073 13.5658731,20.8294412 13.2659316,20.8708498 C12.8462953,20.9296077 12.4230609,20.9590757 11.9993124,20.959039 C7.6441399,20.9585959 3.91426181,17.8466485 3.14307477,13.5700184 C2.37188773,9.29338837 4.78072565,5.07948648 8.86262928,3.5645127 C12.9445329,2.04953893 17.5279788,3.66829709 19.7455818,7.40809865 C21.9631847,11.1479002 21.1784834,15.9354064 17.8823837,18.7755728 C17.9167076,18.8991272 18.1125558,19.1592182 18.2220333,19.3044842 C18.4946054,19.6664181 18.7521468,20.0082072 18.6608408,20.3777513 C18.6285359,20.5082445 18.5383516,20.688428 18.2918028,20.8050437 L18.2406535,20.8289935 C17.9701004,20.9545624 17.5337606,21 16.9421781,21 Z" id="路径" fill="url(#linearGradient-1)"></path>
                <path d="M18.7865843,6.08164081 L18.8456221,6.15154678 C16.418561,4.08393173 12.993102,3.40265675 9.86262928,4.5645127 C5.78072565,6.07948648 3.37188773,10.2933884 4.14307477,14.5700184 C4.43301912,16.1779094 5.14118797,17.6211673 6.14357229,18.7963275 C4.61377869,17.4890763 3.52174738,15.6699534 3.14307477,13.5700184 C2.37188773,9.29338837 4.78072565,5.07948648 8.86262928,3.5645127 C12.4234388,2.24293983 16.3659109,3.30606746 18.7865843,6.08164081 Z" id="形状结合" fill="url(#linearGradient-2)"></path>
                <g id="编组-12备份" opacity="0.2" transform="translate(10.000000, 7.000000)" fill-rule="nonzero">
                    <path d="M2.99998911,0 C1.34567209,0 0,1.34759977 0,3.00530527 C0,3.40094821 0.319904943,3.72132747 0.71409532,3.72132747 C1.08012924,3.72132747 1.38211093,3.44508209 1.42338365,3.08884458 L1.42819064,3.00530527 C1.42828652,2.21633675 2.01226774,1.54917378 2.79406083,1.44567637 C3.57600962,1.34215835 4.31332202,1.83463642 4.51818084,2.59672847 C4.72296038,3.35852556 4.33247276,4.15453805 3.60468528,4.45800353 L3.47297476,4.50903277 C2.35267529,4.97489234 1.62380978,6.07045791 1.62596448,7.28465968 C1.62596387,7.67962074 1.94586882,8 2.34005919,8 C2.73493384,7.99797127 3.05267352,7.67793273 3.0524433,7.28356309 C3.05130435,6.65117241 3.42912066,6.08013827 4.01109333,5.83467664 L4.15289442,5.78028036 C5.27326448,5.31439169 6.00213109,4.2188285 6,3.00462641 C6,1.34772996 4.65424597,0 2.99998911,0 Z" id="路径" fill="url(#linearGradient-3)"></path>
                    <path d="M1.5,9.99773229 C1.5,10.5487646 1.94771525,10.9954646 2.5,10.9954646 C3.05228475,10.9954646 3.5,10.5487646 3.5,9.99773229 C3.5,9.44669996 3.05228475,9 2.5,9 C1.94771525,9 1.5,9.44669996 1.5,9.99773229 Z" id="路径" fill="url(#linearGradient-4)"></path>
                </g>
                <g id="编组-12" transform="translate(9.500000, 6.000000)" fill-rule="nonzero">
                    <path d="M2.99998911,0 C1.34567209,0 0,1.34759977 0,3.00530527 C0,3.40094821 0.319904943,3.72132747 0.71409532,3.72132747 C1.08012924,3.72132747 1.38211093,3.44508209 1.42338365,3.08884458 L1.42819064,3.00530527 C1.42828652,2.21633675 2.01226774,1.54917378 2.79406083,1.44567637 C3.57600962,1.34215835 4.31332202,1.83463642 4.51818084,2.59672847 C4.72296038,3.35852556 4.33247276,4.15453805 3.60468528,4.45800353 L3.47297476,4.50903277 C2.35267529,4.97489234 1.62380978,6.07045791 1.62596448,7.28465968 C1.62596387,7.67962074 1.94586882,8 2.34005919,8 C2.73493384,7.99797127 3.05267352,7.67793273 3.0524433,7.28356309 C3.05130435,6.65117241 3.42912066,6.08013827 4.01109333,5.83467664 L4.15289442,5.78028036 C5.27326448,5.31439169 6.00213109,4.2188285 6,3.00462641 C6,1.34772996 4.65424597,0 2.99998911,0 Z" id="路径" fill="url(#linearGradient-5)"></path>
                    <path d="M1.5,9.99773229 C1.5,10.5487646 1.94771525,10.9954646 2.5,10.9954646 C3.05228475,10.9954646 3.5,10.5487646 3.5,9.99773229 C3.5,9.44669996 3.05228475,9 2.5,9 C1.94771525,9 1.5,9.44669996 1.5,9.99773229 Z" id="路径" fill="#FFF3C3"></path>
                </g>
            </g>
        </g>
    </g>
</svg>