<?xml version="1.0" encoding="UTF-8"?>
<svg width="24px" height="24px" viewBox="0 0 24 24" version="1.1" xmlns="http://www.w3.org/2000/svg" xmlns:xlink="http://www.w3.org/1999/xlink">
    <title>印度</title>
    <defs>
        <path d="M0.724,7.708 C1.63967055,3.92626099 4.74751626,1.07125969 8.59319578,0.47901689 C12.4388753,-0.113225909 16.2617012,1.67443727 18.2727514,5.00545509 C20.2838015,8.33647291 20.085284,12.5519596 17.7700966,15.6792444 C15.4549092,18.8065291 11.4810033,20.2270252 7.708,19.276 C5.24571392,18.6716967 3.12525181,17.1121137 1.81486637,14.9416471 C0.504480942,12.7711805 0.11196637,10.168376 0.724,7.708" id="path-1"></path>
    </defs>
    <g id="设计规范" stroke="none" stroke-width="1" fill="none" fill-rule="evenodd">
        <g id="ICON" transform="translate(-150.000000, -1078.000000)">
            <g id="印度" transform="translate(150.000000, 1078.000000)">
                <rect id="矩形" fill="#000000" fill-rule="nonzero" opacity="0" x="0" y="0" width="24" height="24"></rect>
                <g id="编组-24" transform="translate(2.000000, 2.000000)">
                    <mask id="mask-2" fill="white">
                        <use xlink:href="#path-1"></use>
                    </mask>
                    <use id="蒙版" fill="#E72D14" fill-rule="nonzero" xlink:href="#path-1"></use>
                    <g id="印度" mask="url(#mask-2)" fill-rule="nonzero">
                        <g transform="translate(-5.000000, 0.000000)">
                            <rect id="矩形" fill="#000000" opacity="0" x="0" y="0" width="20" height="20"></rect>
                            <path d="M0.171777344,19.8527734 L29.8404883,19.8527734 L29.8404883,0.122695312 L0.171777344,0.122695312 L0.171777344,19.8527734 L0.171777344,19.8527734 Z M29.9734937,20.0401318 L29.9734937,19.8527539 L29.9734937,20.0401318 Z M0.0490820313,20 L0.0490820313,0 L29.9631836,0 L29.9631836,19.9754687 L0.0490820313,19.9754687 L0.0490820313,20 Z" id="形状" fill="#353636"></path>
                            <polygon id="路径" fill="#009842" points="0.122695313 13.3006055 29.9141016 13.3006055 29.9141016 19.9263867 0.122695313 19.9263867"></polygon>
                            <polygon id="路径" fill="#FFFFFF" points="0.122695313 6.69939453 29.9141016 6.69939453 29.9141016 13.3251562 0.122695313 13.3251562"></polygon>
                            <polygon id="路径" fill="#F2AB48" points="0.122695313 0.0736328125 29.9141016 0.0736328125 29.9141016 6.69939453 0.122695313 6.69939453"></polygon>
                            <path d="M17.3300781,8.98332031 L17.698483,8.83435547 L18.336426,8.92 L17.9690265,9.06896484 L17.3300781,8.98332031 Z M18.6775168,9.766875 L18.1510924,9.61962891 L18.6775168,9.49693359 L19.2038574,9.61962891 L18.6775168,9.766875 Z M18.5721984,10.4539844 L18.1510924,10.282207 L18.887986,10.2085742 L19.2038574,10.3558398 L18.5721984,10.4539844 Z M17.4457859,10.9489648 L18.1595547,10.9052734 L18.3468992,11.0714062 L17.6342196,11.1150977 L17.4457859,10.9489648 Z" id="形状" fill="#22297B"></path>
                            <path d="M17.3300781,8.98332031 L17.415957,8.83435547 L17.564668,8.92 L17.4790234,9.06896484 L17.3300781,8.98332031 Z M17.6441797,9.766875 L17.5214648,9.61962891 L17.6441797,9.49693359 L17.766875,9.61962891 L17.6441797,9.766875 Z M17.6196289,10.4539844 L17.5214648,10.282207 L17.6932422,10.2085742 L17.766875,10.3558398 L17.6196289,10.4539844 Z M17.3570508,10.9489648 L17.5234375,10.9052734 L17.5671094,11.0714062 L17.4009766,11.1150977 L17.3570508,10.9489648 Z M14.5099609,7.34945312 L14.6311914,7.22773437 L14.7529102,7.34896484 L14.6316797,7.47068359 L14.5099609,7.34945312 Z M15.2068945,7.32220703 L15.3556055,7.23632812 L15.4414844,7.38503906 L15.2927734,7.47091797 L15.2068945,7.32220703 Z M16.1227148,7.5828125 L15.9509375,7.63189453 L15.9018555,7.46011719 L16.0736328,7.41103516 L16.1227148,7.5828125 Z M16.5153516,7.77914062 L16.7027295,7.77914062 L16.7027295,7.96651855 L16.5153516,7.96651855 L16.5153516,7.77914062 Z M17.1779297,8.46625 L17.0061523,8.4171875 L17.0552344,8.24539062 L17.2270117,8.29447266 L17.1779297,8.46625 Z M17.0552344,11.5092188 L17.2426123,11.5092188 L17.2426123,11.6965967 L17.0552344,11.6965967 L17.0552344,11.5092188 Z M16.5492188,12.1595117 L16.5926563,11.9936133 L16.759043,12.0370508 L16.7153516,12.2031836 L16.5492188,12.1595117 Z M15.9264063,12.4908008 L16.0000195,12.3435547 L16.1717969,12.4171875 L16.0736328,12.5644141 L15.9264063,12.4908008 Z M15.2392969,12.6380273 L15.3619922,12.515332 L15.5092188,12.6380273 L15.3619922,12.7607422 L15.2392969,12.6380273 Z M14.552168,12.6134961 L14.6994141,12.515332 L14.7975586,12.6871094 L14.650332,12.7607422 L14.552168,12.6134961 Z M13.8895898,12.4171875 L14.0613672,12.3681055 L14.1104492,12.5398828 L13.9386719,12.5889648 L13.8895898,12.4171875 Z M13.300625,12.0245312 L13.4880029,12.0245312 L13.4880029,12.2119092 L13.300625,12.2119092 L13.300625,12.0245312 Z M12.8007617,11.7055273 L12.8454102,11.5398828 L13.0113086,11.584043 L12.9668945,11.7501758 L12.8007617,11.7055273 Z M12.4265234,11.0608594 L12.5124219,10.9121484 L12.6611328,10.9982812 L12.5752344,11.1469922 L12.4265234,11.0608594 Z M12.368125,10.233125 L12.4908203,10.3558203 L12.368125,10.5030859 L12.2454102,10.3558203 L12.368125,10.233125 Z M12.3926562,9.54601562 L12.4908203,9.69324219 L12.319043,9.79140625 L12.2454102,9.64417969 L12.3926562,9.54601562 Z M12.4218555,8.93375 L12.5877539,8.88908203 L12.6324219,9.05496094 L12.4665234,9.09962891 L12.4218555,8.93375 Z M12.7850586,8.29502318 L12.9716515,8.29423828 L12.9724365,8.4808101 L12.7858436,8.48161621 L12.7850586,8.29502318 Z M13.4724219,7.82822266 L13.4233398,8 L13.2515625,7.95091797 L13.300625,7.77914062 L13.4724219,7.82822266 Z M13.8439453,7.58625 L13.9298438,7.43753906 L14.0785547,7.5234375 L13.9926563,7.67214844 L13.8439453,7.58625 Z M14.9648608,9.98773438 L15.0585498,8.93251953 L14.9648608,7.33742187 L14.8711719,8.93251953 L14.9648608,9.98773438 Z M14.9448047,9.98773437 L15.2883594,8.98160156 L15.6319141,7.43558594 L15.1411328,8.95707031 L14.9448047,9.98773437 Z M14.9448047,9.98773437 L15.5337695,9.10429687 L16.2699609,7.70552734 L15.4110547,9.03068359 L14.9448047,9.98773437 Z M14.9448047,9.98773437 L15.7546289,9.300625 L16.8098438,8.12269531 L15.6319141,9.17791016 L14.9448047,9.98773437 Z M14.9448047,9.98773438 L15.9018555,9.52146484 L17.2270117,8.66257812 L15.8282422,9.39876953 L14.9448047,9.98773438 Z M14.9448047,9.98773437 L16,9.79140625 L17.4969336,9.30060547 L15.950918,9.64416016 L14.9448047,9.98773437 Z M14.9448047,10.0077905 L16.0000195,10.1014795 L17.5951172,10.0077905 L16.0000195,9.91410156 L14.9448047,10.0077905 Z M14.9448047,9.98773437 L15.9509375,10.3312891 L17.4969531,10.6748437 L16.0000195,10.184043 L14.9448047,9.98773437 Z M14.9448047,9.98773437 L15.8282422,10.5766797 L17.2515625,11.3128906 L15.9018555,10.4539844 L14.9448047,9.98773437 Z M14.9448047,9.98773437 L15.6319141,10.7975391 L16.834375,11.8527539 L15.7546289,10.6748438 L14.9448047,9.98773437 Z M14.9448047,9.98773437 L15.4110547,10.9447852 L16.2699609,12.2699414 L15.5583008,10.8711719 L14.9448047,9.98773437 Z M14.9448047,9.98773437 L15.1411328,11.0183984 L15.6319141,12.5398828 L15.2883594,10.9938672 L14.9448047,9.98773437 Z M14.9648608,9.98773437 L14.8711719,11.0429492 L14.9648608,12.6380273 L15.0585498,11.0429492 L14.9648608,9.98773437 Z M14.9448047,9.98773437 L14.60125,10.9938672 L14.2822266,12.5398828 L14.7484766,11.0429492 L14.9448047,9.98773437 Z M14.9448047,9.98773437 L14.3558398,10.8711719 L13.6441992,12.2944727 L14.5030859,10.9447852 L14.9448047,9.98773437 Z M14.9448047,9.98773437 L14.1595313,10.6748437 L13.0797656,11.8773047 L14.2576953,10.7975391 L14.9448047,9.98773437 Z M14.9448047,9.98773437 L13.9877539,10.4539844 L12.6625977,11.3128906 L14.085918,10.6012305 L14.9448047,9.98773437 Z M14.9448047,9.98773437 L13.9141406,10.184043 L12.3926563,10.6748633 L13.9386719,10.3312891 L14.9448047,9.98773437 Z M14.9448047,10.0077905 L13.8895898,9.91410156 L12.2944922,10.0077905 L13.8895898,10.1014795 L14.9448047,10.0077905 Z M14.9448047,9.98773437 L13.9386719,9.64417969 L12.3926563,9.32515625 L13.9141406,9.79140625 L14.9448047,9.98773437 Z M14.9448047,9.98773438 L14.0613672,9.39876953 L12.6625977,8.68710937 L13.9877539,9.52148438 L14.9448047,9.98773438 Z M14.9448047,9.98773437 L14.2576953,9.20246094 L13.0797656,8.12269531 L14.1349805,9.300625 L14.9448047,9.98773437 Z M14.9448047,9.98773437 L14.4785547,9.03068359 L13.6196484,7.70552734 L14.3558398,9.12882812 L14.9448047,9.98773437 Z M14.9448047,9.98773437 L14.7484766,8.95707031 L14.2576953,7.43558594 L14.60125,8.98160156 L14.9448047,9.98773437 Z" id="形状" fill="#22297B"></path>
                            <path d="M14.3067578,12.5644141 C12.8834375,12.1717773 12.049082,10.7239258 12.4171875,9.30060547 C12.8098242,7.87730469 14.2576758,7.04294922 15.6809766,7.41103516 C17.1042969,7.80367188 17.9386523,9.25154297 17.5705469,10.6748438 C17.2024609,12.0981641 15.7300586,12.9570703 14.3067578,12.5644141 Z M15.7791406,7.09203125 C14.184043,6.6503125 12.5398828,7.60736328 12.0981641,9.20246094 C11.6809766,10.7975391 12.6134961,12.4417188 14.233125,12.8834375 C15.8282227,13.300625 17.4723828,12.3681055 17.9141016,10.7484766 C18.3312891,9.17791016 17.3742383,7.53375 15.7791406,7.09203125 L15.7791406,7.09203125 Z" id="形状" fill="#22297B"></path>
                            <path d="M15.5091992,10.1349609 C15.4355664,10.4294531 15.1411133,10.6012305 14.8466211,10.5030664 C14.5521484,10.4294336 14.3803711,10.1349609 14.4785352,9.84048828 C14.5521484,9.54601562 14.8466211,9.37423828 15.1411133,9.47240234 C15.4355859,9.57054687 15.6073633,9.84048828 15.5091992,10.1349609 Z M16.1226953,7.5828125 L15.950918,7.63189453 L15.9018359,7.46011719 L16.0736133,7.41103516 L16.1226953,7.5828125 Z M16.515332,7.77914062 L16.70271,7.77914062 L16.70271,7.96651855 L16.515332,7.96651855 L16.515332,7.77914062 Z M17.1779102,8.46625 L17.0061328,8.4171875 L17.0552148,8.24539062 L17.2269922,8.29447266 L17.1779102,8.46625 Z M17.0552148,11.5092188 L17.2425928,11.5092188 L17.2425928,11.6965967 L17.0552148,11.6965967 L17.0552148,11.5092188 Z M16.5491992,12.1595117 L16.5926367,11.9936133 L16.7590234,12.0370508 L16.715332,12.2031836 L16.5491992,12.1595117 Z M15.9263867,12.4908008 L16,12.3435547 L16.1717773,12.4171875 L16.0736133,12.5644141 L15.9263867,12.4908008 Z M15.2392773,12.6380273 L15.3619727,12.515332 L15.5091992,12.6380273 L15.3619727,12.7607422 L15.2392773,12.6380273 Z M14.5521484,12.6134961 L14.6993945,12.515332 L14.7975391,12.6871094 L14.6503125,12.7607422 L14.5521484,12.6134961 Z M13.8895703,12.4171875 L14.0613477,12.3681055 L14.1104297,12.5398828 L13.9386523,12.5889648 L13.8895703,12.4171875 Z M13.3006055,12.0245312 L13.4879834,12.0245312 L13.4879834,12.2119092 L13.3006055,12.2119092 L13.3006055,12.0245312 Z M12.8007422,11.7055273 L12.8453906,11.5398828 L13.0112891,11.584043 L12.966875,11.7501758 L12.8007422,11.7055273 Z M12.4265039,11.0608594 L12.5124023,10.9121484 L12.6611133,10.9982812 L12.5752148,11.1469922 L12.4265039,11.0608594 Z M12.3681055,10.233125 L12.4908008,10.3558203 L12.3681055,10.5030859 L12.2453906,10.3558203 L12.3681055,10.233125 Z M12.3926367,9.54601562 L12.4908008,9.69324219 L12.3190234,9.79140625 L12.2453906,9.64417969 L12.3926367,9.54601562 Z M12.4218359,8.93375 L12.5877344,8.88908203 L12.6324023,9.05496094 L12.4665039,9.09962891 L12.4218359,8.93375 Z M12.7850391,8.29502318 L12.971632,8.29423828 L12.972417,8.4808101 L12.785824,8.48161621 L12.7850391,8.29502318 Z M13.4724023,7.82822266 L13.4233203,8 L13.251543,7.95091797 L13.3006055,7.77914062 L13.4724023,7.82822266 Z M13.8439258,7.58625 L13.9298242,7.43753906 L14.0785352,7.5234375 L13.9926367,7.67214844 L13.8439258,7.58625 Z M14.5099414,7.34945312 L14.6311719,7.22773437 L14.7528906,7.34896484 L14.6316602,7.47068359 L14.5099414,7.34945312 Z" id="形状" fill="#22297B"></path>
                        </g>
                    </g>
                </g>
            </g>
        </g>
    </g>
</svg>