<?xml version="1.0" encoding="UTF-8"?>
<svg width="24px" height="24px" viewBox="0 0 24 24" version="1.1" xmlns="http://www.w3.org/2000/svg" xmlns:xlink="http://www.w3.org/1999/xlink">
    <title>ICON备份 27</title>
    <g id="设计规范" stroke="none" stroke-width="1" fill="none" fill-rule="evenodd">
        <g id="ICON" transform="translate(-428.000000, -399.000000)" fill-rule="nonzero">
            <g id="主页复制备份-3" transform="translate(428.000000, 399.000000)">
                <rect id="矩形" fill="#000000" opacity="0" x="0" y="0" width="24" height="24"></rect>
                <path d="M22.4507812,9.17578125 C22.425,9 22.321875,8.84296875 22.1695312,8.7421875 L12.3609375,2.31796875 C12.253125,2.2453125 12.1242187,2.2078125 11.9929687,2.2078125 C11.859375,2.2078125 11.7328125,2.2453125 11.625,2.31796875 L1.8140625,8.74453125 C1.66875,8.840625 1.5703125,8.9859375 1.5421875,9.15234375 C1.5140625,9.31640625 1.55390625,9.48046875 1.6546875,9.6140625 C1.7765625,9.77578125 1.97578125,9.87421875 2.184375,9.87421875 C2.315625,9.87421875 2.44453125,9.83671875 2.55234375,9.7640625 L3.49453125,9.14765625 L3.49453125,19.3523437 C3.49453125,20.7070312 4.56796875,21.80625 5.88984375,21.80625 L18.0960937,21.80625 C19.415625,21.80625 20.4914062,20.7046875 20.4914062,19.3523437 L20.4914062,9.1453125 L21.4382812,9.76640625 C21.571875,9.8484375 21.6984375,9.88828125 21.8226562,9.88828125 C22.0078125,9.88828125 22.1789062,9.79921875 22.3265625,9.62109375 C22.4296875,9.49453125 22.4742187,9.3375 22.4507812,9.17578125 Z M14.4445313,20.728125 L9.5390625,20.728125 L9.5390625,14.8054687 C9.5390625,13.5398437 10.6382813,12.5109375 11.990625,12.5109375 C13.3429688,12.5109375 14.4421875,13.5398437 14.4421875,14.8054687 L14.4421875,20.728125 L14.4445313,20.728125 Z M19.1882812,19.35 C19.1882812,20.0203125 18.6984375,20.5664062 18.0960937,20.5664062 L15.5859375,20.5664062 L15.5859375,14.8054687 C15.5859375,12.9445313 13.9734375,11.4328125 11.9929687,11.4328125 C10.0125,11.4328125 8.4,12.946875 8.4,14.8054687 L8.4,20.56875 L5.88984375,20.56875 C5.2875,20.56875 4.7953125,20.0226563 4.7953125,19.3523437 L4.7953125,8.29453125 L11.9929688,3.57890625 L19.190625,8.29453125 L19.190625,19.35 L19.1882812,19.35 Z" id="形状" fill="#AAADB8"></path>
            </g>
            <g id="主页复制备份-3" transform="translate(428.000000, 399.000000)">
                <rect id="矩形" fill="#000000" opacity="0" x="0" y="0" width="24" height="24"></rect>
                <path d="M22.4507812,9.17578125 C22.425,9 22.321875,8.84296875 22.1695312,8.7421875 L12.3609375,2.31796875 C12.253125,2.2453125 12.1242187,2.2078125 11.9929687,2.2078125 C11.859375,2.2078125 11.7328125,2.2453125 11.625,2.31796875 L1.8140625,8.74453125 C1.66875,8.840625 1.5703125,8.9859375 1.5421875,9.15234375 C1.5140625,9.31640625 1.55390625,9.48046875 1.6546875,9.6140625 C1.7765625,9.77578125 1.97578125,9.87421875 2.184375,9.87421875 C2.315625,9.87421875 2.44453125,9.83671875 2.55234375,9.7640625 L3.49453125,9.14765625 L3.49453125,19.3523437 C3.49453125,20.7070312 4.56796875,21.80625 5.88984375,21.80625 L18.0960937,21.80625 C19.415625,21.80625 20.4914062,20.7046875 20.4914062,19.3523437 L20.4914062,9.1453125 L21.4382812,9.76640625 C21.571875,9.8484375 21.6984375,9.88828125 21.8226562,9.88828125 C22.0078125,9.88828125 22.1789062,9.79921875 22.3265625,9.62109375 C22.4296875,9.49453125 22.4742187,9.3375 22.4507812,9.17578125 Z M14.4445313,20.728125 L9.5390625,20.728125 L9.5390625,14.8054687 C9.5390625,13.5398437 10.6382813,12.5109375 11.990625,12.5109375 C13.3429688,12.5109375 14.4421875,13.5398437 14.4421875,14.8054687 L14.4421875,20.728125 L14.4445313,20.728125 Z M19.1882812,19.35 C19.1882812,20.0203125 18.6984375,20.5664062 18.0960937,20.5664062 L15.5859375,20.5664062 L15.5859375,14.8054687 C15.5859375,12.9445313 13.9734375,11.4328125 11.9929687,11.4328125 C10.0125,11.4328125 8.4,12.946875 8.4,14.8054687 L8.4,20.56875 L5.88984375,20.56875 C5.2875,20.56875 4.7953125,20.0226563 4.7953125,19.3523437 L4.7953125,8.29453125 L11.9929688,3.57890625 L19.190625,8.29453125 L19.190625,19.35 L19.1882812,19.35 Z" id="形状" fill="#AAADB8"></path>
            </g>
        </g>
    </g>
</svg>