<?xml version="1.0" encoding="UTF-8"?>
<svg width="24px" height="24px" viewBox="0 0 24 24" version="1.1" xmlns="http://www.w3.org/2000/svg" xmlns:xlink="http://www.w3.org/1999/xlink">
    <defs>
        <linearGradient x1="72.281901%" y1="93.8676537%" x2="18.3463542%" y2="6.13234625%" id="linearGradient-1">
            <stop stop-color="#FF0808" offset="0%"></stop>
            <stop stop-color="#FFA3A3" offset="100%"></stop>
        </linearGradient>
        <linearGradient x1="9.05902142%" y1="44.5550052%" x2="85.3146332%" y2="54.7307993%" id="linearGradient-2">
            <stop stop-color="#FFFFFF" stop-opacity="0.263193837" offset="0%"></stop>
            <stop stop-color="#FFFFFF" stop-opacity="0.194585498" offset="99.6922705%"></stop>
            <stop stop-color="#FFFFFF" stop-opacity="0.0893247378" offset="100%"></stop>
        </linearGradient>
        <linearGradient x1="50%" y1="100%" x2="50%" y2="-34.8722458%" id="linearGradient-3">
            <stop stop-color="#FFEEB0" offset="0%"></stop>
            <stop stop-color="#FFD005" offset="100%"></stop>
        </linearGradient>
        <linearGradient x1="41.8257811%" y1="0%" x2="41.8257811%" y2="159.858476%" id="linearGradient-4">
            <stop stop-color="#FCFE00" offset="0%"></stop>
            <stop stop-color="#FB4B62" offset="100%"></stop>
        </linearGradient>
    </defs>
    <g id="设计规范" stroke="none" stroke-width="1" fill="none" fill-rule="evenodd">
        <g id="ICON" transform="translate(-428.000000, -273.000000)">
            <g id="编组-6" transform="translate(428.000000, 273.000000)">
                <rect id="矩形" fill="#000000" fill-rule="nonzero" opacity="0" x="0" y="0" width="24" height="24"></rect>
                <g id="编组-4" transform="translate(1.500000, 2.000000)">
                    <path d="M10.4536042,2.457 L18.958,8.095 L18.9580105,17.1445313 C18.9580105,18.4427813 17.9665705,19.5099113 16.7198185,19.5932045 L16.562698,19.5984375 L4.35644799,19.5984375 C3.03457299,19.5984375 1.96113549,18.4992188 1.96113549,17.1445313 L1.96113549,17.1445313 L1.961,7.902 L10.4536042,2.457 Z M10.459573,1.36779477e-13 C10.590823,1.36779477e-13 10.7197292,0.0375 10.8275417,0.11015625 L10.8275417,0.11015625 L20.6361355,6.534375 C20.7884792,6.63515625 20.8916042,6.7921875 20.9173855,6.96796875 C20.940823,7.1296875 20.8962917,7.28671875 20.7931667,7.41328125 C20.6455105,7.59140625 20.4744167,7.68046875 20.2892605,7.68046875 C20.2229891,7.68046875 20.1560507,7.66912811 20.0877334,7.64609094 L10.4629643,1.26430158 L0.504929038,7.65023671 C0.352164927,7.61610763 0.214236818,7.52958097 0.121291742,7.40625 C0.0205104918,7.27265625 -0.0193332582,7.10859375 0.00879174175,6.94453125 C0.0369167418,6.778125 0.135354242,6.6328125 0.280666742,6.53671875 L0.280666742,6.53671875 L10.0916042,0.11015625 C10.1994167,0.0375 10.3259792,1.36779477e-13 10.459573,1.36779477e-13 Z" id="形状结合" fill="url(#linearGradient-1)"></path>
                    <path d="M10.4936042,2.4 L18.998,8.038 L18.997,8.127 L10.4733014,3.18440789 L2,8.097 L2.001,7.845 L10.4936042,2.4 Z" id="形状结合" fill="url(#linearGradient-2)"></path>
                    <path d="M12.9111355,18.5203125 L8.00566674,18.5203125 L8.00566674,12.5976562 C8.00566674,11.3320312 9.10488549,10.303125 10.4572292,10.303125 C11.809573,10.303125 12.9087917,11.3320312 12.9087917,12.5976562 L12.9087917,18.5203125 L12.9111355,18.5203125 Z" id="路径备份-4" fill="url(#linearGradient-3)" fill-rule="nonzero"></path>
                    <path d="M12.9111355,18.5203125 L8.00566674,18.5203125 L8.83904482,17.0787837 C9.05081901,16.7665415 9.65920097,16.5203125 10.4572292,16.5203125 C11.2552575,16.5203125 11.7834837,16.7868548 12.0193109,17.0787837 L12.9087917,18.5203125 L12.9111355,18.5203125 Z" id="路径备份-4" fill="url(#linearGradient-4)" fill-rule="nonzero"></path>
                </g>
            </g>
            <g id="编组-6" transform="translate(428.000000, 273.000000)">
                <rect id="矩形" fill="#000000" fill-rule="nonzero" opacity="0" x="0" y="0" width="24" height="24"></rect>
                <g id="编组-4" transform="translate(1.500000, 2.000000)">
                    <path d="M10.4536042,2.457 L18.958,8.095 L18.9580105,17.1445313 C18.9580105,18.4427813 17.9665705,19.5099113 16.7198185,19.5932045 L16.562698,19.5984375 L4.35644799,19.5984375 C3.03457299,19.5984375 1.96113549,18.4992188 1.96113549,17.1445313 L1.96113549,17.1445313 L1.961,7.902 L10.4536042,2.457 Z M10.459573,1.36779477e-13 C10.590823,1.36779477e-13 10.7197292,0.0375 10.8275417,0.11015625 L10.8275417,0.11015625 L20.6361355,6.534375 C20.7884792,6.63515625 20.8916042,6.7921875 20.9173855,6.96796875 C20.940823,7.1296875 20.8962917,7.28671875 20.7931667,7.41328125 C20.6455105,7.59140625 20.4744167,7.68046875 20.2892605,7.68046875 C20.2229891,7.68046875 20.1560507,7.66912811 20.0877334,7.64609094 L10.4629643,1.26430158 L0.504929038,7.65023671 C0.352164927,7.61610763 0.214236818,7.52958097 0.121291742,7.40625 C0.0205104918,7.27265625 -0.0193332582,7.10859375 0.00879174175,6.94453125 C0.0369167418,6.778125 0.135354242,6.6328125 0.280666742,6.53671875 L0.280666742,6.53671875 L10.0916042,0.11015625 C10.1994167,0.0375 10.3259792,1.36779477e-13 10.459573,1.36779477e-13 Z" id="形状结合" fill="url(#linearGradient-1)"></path>
                    <path d="M10.4936042,2.4 L18.998,8.038 L18.997,8.127 L10.4733014,3.18440789 L2,8.097 L2.001,7.845 L10.4936042,2.4 Z" id="形状结合" fill="url(#linearGradient-2)"></path>
                    <path d="M12.9111355,18.5203125 L8.00566674,18.5203125 L8.00566674,12.5976562 C8.00566674,11.3320312 9.10488549,10.303125 10.4572292,10.303125 C11.809573,10.303125 12.9087917,11.3320312 12.9087917,12.5976562 L12.9087917,18.5203125 L12.9111355,18.5203125 Z" id="路径备份-4" fill="url(#linearGradient-3)" fill-rule="nonzero"></path>
                    <path d="M12.9111355,18.5203125 L8.00566674,18.5203125 L8.83904482,17.0787837 C9.05081901,16.7665415 9.65920097,16.5203125 10.4572292,16.5203125 C11.2552575,16.5203125 11.7834837,16.7868548 12.0193109,17.0787837 L12.9087917,18.5203125 L12.9111355,18.5203125 Z" id="路径备份-4" fill="url(#linearGradient-4)" fill-rule="nonzero"></path>
                </g>
            </g>
        </g>
    </g>
</svg>