<?xml version="1.0" encoding="UTF-8"?>
<svg width="24px" height="24px" viewBox="0 0 24 24" version="1.1" xmlns="http://www.w3.org/2000/svg" xmlns:xlink="http://www.w3.org/1999/xlink">
    <defs>
        <linearGradient x1="11.7361222%" y1="0.352627168%" x2="83.7571153%" y2="93.8676537%" id="linearGradient-1">
            <stop stop-color="#DAE2EA" offset="0%"></stop>
            <stop stop-color="#A0A1A2" offset="100%"></stop>
        </linearGradient>
    </defs>
    <g id="设计规范" stroke="none" stroke-width="1" fill="none" fill-rule="evenodd">
        <g id="ICON" transform="translate(-428.000000, -309.000000)">
            <g id="编组-3" transform="translate(428.000000, 309.000000)">
                <rect id="矩形备份-6" fill="#000000" fill-rule="nonzero" opacity="0" x="0" y="0" width="24" height="24"></rect>
                <path d="M22.4507813,9.17578125 C22.425,9 22.321875,8.84296875 22.1695313,8.7421875 L12.3609375,2.31796875 C12.253125,2.2453125 12.1242188,2.2078125 11.9929688,2.2078125 C11.859375,2.2078125 11.7328125,2.2453125 11.625,2.31796875 L1.8140625,8.74453125 C1.66875,8.840625 1.5703125,8.9859375 1.5421875,9.15234375 C1.5140625,9.31640625 1.55390625,9.48046875 1.6546875,9.6140625 C1.7765625,9.77578125 1.97578125,9.87421875 2.184375,9.87421875 C2.315625,9.87421875 2.44453125,9.83671875 2.55234375,9.7640625 L3.49453125,9.14765625 L3.49453125,19.3523437 C3.49453125,20.7070312 4.56796875,21.80625 5.88984375,21.80625 L18.0960938,21.80625 C19.415625,21.80625 20.4914063,20.7046875 20.4914063,19.3523437 L20.4914063,9.1453125 L21.4382813,9.76640625 C21.571875,9.8484375 21.6984375,9.88828125 21.8226563,9.88828125 C22.0078125,9.88828125 22.1789063,9.79921875 22.3265625,9.62109375 C22.4296875,9.49453125 22.4742188,9.3375 22.4507813,9.17578125 Z" id="路径备份" stroke-opacity="0.352100317" stroke="#FFFFFF" stroke-width="1.3" fill="url(#linearGradient-1)"></path>
                <path d="M14.4445312,20.728125 L9.5390625,20.728125 L9.5390625,14.8054687 C9.5390625,13.5398437 10.6382812,12.5109375 11.990625,12.5109375 C13.3429687,12.5109375 14.4421875,13.5398437 14.4421875,14.8054687 L14.4421875,20.728125 L14.4445312,20.728125 Z" id="路径备份-2" fill="#FFFFFF" fill-rule="nonzero"></path>
            </g>
            <g id="编组-3" transform="translate(428.000000, 309.000000)">
                <rect id="矩形备份-6" fill="#000000" fill-rule="nonzero" opacity="0" x="0" y="0" width="24" height="24"></rect>
                <path d="M22.4507813,9.17578125 C22.425,9 22.321875,8.84296875 22.1695313,8.7421875 L12.3609375,2.31796875 C12.253125,2.2453125 12.1242188,2.2078125 11.9929688,2.2078125 C11.859375,2.2078125 11.7328125,2.2453125 11.625,2.31796875 L1.8140625,8.74453125 C1.66875,8.840625 1.5703125,8.9859375 1.5421875,9.15234375 C1.5140625,9.31640625 1.55390625,9.48046875 1.6546875,9.6140625 C1.7765625,9.77578125 1.97578125,9.87421875 2.184375,9.87421875 C2.315625,9.87421875 2.44453125,9.83671875 2.55234375,9.7640625 L3.49453125,9.14765625 L3.49453125,19.3523437 C3.49453125,20.7070312 4.56796875,21.80625 5.88984375,21.80625 L18.0960938,21.80625 C19.415625,21.80625 20.4914063,20.7046875 20.4914063,19.3523437 L20.4914063,9.1453125 L21.4382813,9.76640625 C21.571875,9.8484375 21.6984375,9.88828125 21.8226563,9.88828125 C22.0078125,9.88828125 22.1789063,9.79921875 22.3265625,9.62109375 C22.4296875,9.49453125 22.4742188,9.3375 22.4507813,9.17578125 Z" id="路径备份" stroke-opacity="0.352100317" stroke="#FFFFFF" stroke-width="1.3" fill="url(#linearGradient-1)"></path>
                <path d="M14.4445312,20.728125 L9.5390625,20.728125 L9.5390625,14.8054687 C9.5390625,13.5398437 10.6382812,12.5109375 11.990625,12.5109375 C13.3429687,12.5109375 14.4421875,13.5398437 14.4421875,14.8054687 L14.4421875,20.728125 L14.4445312,20.728125 Z" id="路径备份-2" fill="#FFFFFF" fill-rule="nonzero"></path>
            </g>
        </g>
    </g>
</svg>