<?xml version="1.0" encoding="UTF-8"?>
<svg width="18px" height="18px" viewBox="0 0 18 18" version="1.1" xmlns="http://www.w3.org/2000/svg" xmlns:xlink="http://www.w3.org/1999/xlink">
    <g id="设计规范" stroke="none" stroke-width="1" fill="none" fill-rule="evenodd">
        <g id="ICON" transform="translate(-439.000000, -551.000000)" fill-rule="nonzero">
            <g id="热度" transform="translate(439.000000, 551.000000)">
                <rect id="矩形" fill="#000000" opacity="0" x="0" y="0" width="18" height="18"></rect>
                <path d="M9,1.54346484 C4.87404492,1.54346484 1.54346484,4.8740625 1.54346484,9 C1.54346484,13.1259375 4.8740625,16.4565352 9,16.4565352 C13.1259375,16.4565352 16.4565352,13.1259375 16.4565352,9 C16.4565352,4.8740625 13.1259375,1.54346484 9,1.54346484 Z M10.441582,14.5178438 C10.1184609,14.7415254 9.99418359,14.6669766 10.2179004,14.4432773 C10.4167441,14.2195957 11.6843555,12.6288633 9.69593555,11.4855293 C9.04971094,11.1126973 8.82599414,10.217918 8.82599414,10.0190742 C8.82599414,9.79539258 8.87572266,9.69595313 8.70173437,9.77050195 C8.55260156,9.82023047 5.27171484,11.3860723 7.9809082,14.4432598 C8.15491406,14.6421035 8.0803125,14.691832 7.75722656,14.5426641 C0.375240234,10.5907148 10.1681543,4.3520625 10.3172871,4.27749609 C10.4664199,4.1780918 10.4166914,4.32722461 10.2924316,4.57574414 C10.06875,5.02314258 9.49705664,7.45894336 11.0132578,8.45316211 C12.5542969,9.44738086 14.7663457,11.4855117 10.441582,14.5178262 L10.441582,14.5178438 Z" id="形状" fill="#F5222D"></path>
            </g>
        </g>
    </g>
</svg>