<?xml version="1.0" encoding="UTF-8"?>
<svg width="24px" height="24px" viewBox="0 0 24 24" version="1.1" xmlns="http://www.w3.org/2000/svg" xmlns:xlink="http://www.w3.org/1999/xlink">
    <title>日本</title>
    <defs>
        <path d="M0.282166863,7.34118519 C1.19783741,3.55944618 4.30568312,0.704444879 8.15136264,0.11220208 C11.9970422,-0.480040719 15.8198681,1.30762246 17.8309182,4.63864028 C19.8419684,7.9696581 19.6434509,12.1851448 17.3282635,15.3124295 C15.0130761,18.4397143 11.0391701,19.8602103 7.26616686,18.9091852 C4.80388079,18.3048819 2.68341867,16.7452988 1.37303324,14.5748323 C0.0626478048,12.4043657 -0.329866767,9.80156119 0.282166863,7.34118519" id="path-1"></path>
    </defs>
    <g id="设计规范" stroke="none" stroke-width="1" fill="none" fill-rule="evenodd">
        <g id="ICON" transform="translate(-216.000000, -982.000000)">
            <g id="日本" transform="translate(216.000000, 982.000000)">
                <rect id="矩形" fill="#000000" fill-rule="nonzero" opacity="0" x="0" y="0" width="24" height="24"></rect>
                <g id="日本国旗" transform="translate(2.441833, 2.366815)">
                    <mask id="mask-2" fill="white">
                        <use xlink:href="#path-1"></use>
                    </mask>
                    <use id="蒙版" fill="#E72D14" fill-rule="nonzero" xlink:href="#path-1"></use>
                    <g mask="url(#mask-2)" fill-rule="nonzero">
                        <g transform="translate(-1.441833, -1.366815)">
                            <rect id="矩形" fill="#000000" opacity="0" x="0" y="0" width="22" height="22"></rect>
                            <path d="M21.5605471,11.0000001 C21.5605471,5.18576638 16.861697,0.470304161 11.0569559,0.439453125 L10.9454175,0.439453125 C5.13830325,0.470304161 0.439453125,5.18576638 0.439453125,11.0000001 C0.439453125,16.8142339 5.13830325,21.5296961 10.9430444,21.5605471 L11.0545827,21.5605471 C16.861697,21.5296961 21.5605471,16.8142339 21.5605471,11.0000001 Z M5.328125,11 C5.328125,7.86542969 7.86757813,5.32597656 11.0021484,5.32597656 C14.1345703,5.32597656 16.6740234,7.86542969 16.6740234,11 C16.6740234,14.1324219 14.1345703,16.671875 11.0021484,16.671875 C7.86757813,16.671875 5.328125,14.1324219 5.328125,11 Z" id="形状" fill="#FFFFFF"></path>
                            <path d="M16.671875,11 C16.671875,7.86542969 14.1324219,5.32597656 11,5.32597656 C7.86757812,5.328125 5.328125,7.86757812 5.328125,11 C5.328125,14.1324219 7.86757812,16.671875 11.0021484,16.671875 C14.1324219,16.671875 16.671875,14.1324219 16.671875,11 Z" id="路径" fill="#EB0000"></path>
                        </g>
                    </g>
                </g>
            </g>
        </g>
    </g>
</svg>