<?xml version="1.0" encoding="UTF-8"?>
<svg width="24px" height="24px" viewBox="0 0 24 24" version="1.1" xmlns="http://www.w3.org/2000/svg" xmlns:xlink="http://www.w3.org/1999/xlink">
    <title>韩国</title>
    <defs>
        <path d="M0.282166863,7.34118519 C1.19783741,3.55944618 4.30568312,0.704444879 8.15136264,0.11220208 C11.9970422,-0.480040719 15.8198681,1.30762246 17.8309182,4.63864028 C19.8419684,7.9696581 19.6434509,12.1851448 17.3282635,15.3124295 C15.0130761,18.4397143 11.0391701,19.8602103 7.26616686,18.9091852 C4.80388079,18.3048819 2.68341867,16.7452988 1.37303324,14.5748323 C0.0626478048,12.4043657 -0.329866767,9.80156119 0.282166863,7.34118519" id="path-1"></path>
    </defs>
    <g id="设计规范" stroke="none" stroke-width="1" fill="none" fill-rule="evenodd">
        <g id="ICON" transform="translate(-216.000000, -1030.000000)">
            <g id="韩国" transform="translate(216.000000, 1030.000000)">
                <rect id="矩形" fill="#000000" fill-rule="nonzero" opacity="0" x="0" y="0" width="24" height="24"></rect>
                <g id="国旗" transform="translate(2.441833, 2.366815)">
                    <mask id="mask-2" fill="white">
                        <use xlink:href="#path-1"></use>
                    </mask>
                    <use id="蒙版" fill="#E72D14" fill-rule="nonzero" xlink:href="#path-1"></use>
                    <g id="韩国" mask="url(#mask-2)" fill-rule="nonzero">
                        <g transform="translate(-1.441833, -0.366815)">
                            <path d="M0,19.25 L22,19.25 L22,0.916666667 L0,0.916666667 L0,19.25 Z M22,19.3358749 L22,19.1641251 L22,19.3358749 Z M0,19.25 L0,0.916666667 L22,0.916666667 L22,19.2275051 L0,19.2275051 L0,19.25 Z" id="形状" fill="#353636"></path>
                            <polygon id="路径" fill="#FFFFFF" points="0.0898692839 0.00898692839 21.9101307 0.00898692839 21.9101307 20.1756536 0.0898692839 20.1756536"></polygon>
                            <path d="M14.5588235,9.75980393 C14.7385621,11.7369281 13.2826797,13.4803922 11.3055556,13.6601307 C9.32843136,13.8398693 7.58496731,12.3839869 7.40522876,10.4068627 C7.22549019,8.42973855 8.68137255,6.6862745 10.6584967,6.50653595 C12.6356209,6.34477124 14.379085,7.8006536 14.5588235,9.75980393 Z" id="路径" fill="#CC303C"></path>
                            <path d="M7.92647059,8.23202614 C7.40522876,9.07679738 7.67483661,10.1732026 8.53758169,10.6944444 C9.38235293,11.2156863 10.4787582,10.9281046 11,10.0833333 C11.5212418,9.23856209 12.6176471,8.96895424 13.4624183,9.47222222 C14.3071895,9.99346405 14.5767974,11.0898693 14.0735294,11.9346405 C13.0490196,13.624183 10.8382353,14.1633987 9.14869281,13.1388889 C7.44117647,12.1323529 6.90196079,9.93954248 7.92647059,8.23202614 L7.92647059,8.23202614 Z" id="路径" fill="#005C9E"></path>
                            <path d="M3.36776143,7.20356209 L5.37777778,4.22349674 L5.83970588,4.5351634 L3.82950981,7.51522876 L3.36776143,7.20356209 Z M4.08689543,7.68705883 L6.09781045,4.70735295 L6.55973857,5.01901961 L4.54882353,7.9987255 L4.08689543,7.68705883 Z M4.79901961,8.17810457 L5.26633988,8.48366012 L7.27941176,5.5 L6.8120915,5.17647059 L4.79901961,8.17810457 Z M15.7801471,13.0709477 L16.7156863,11.6855229 L17.1774346,11.9973693 L16.2420752,13.3827941 L15.7801471,13.0709477 Z M14.7029739,14.6954248 L15.6368954,13.3091013 L16.0990033,13.6204085 L15.1650817,15.006732 L14.7029739,14.6954248 Z M16.488317,13.5686438 L17.4243954,12.1837582 L17.885964,12.4957843 L16.9498856,13.8806699 L16.488317,13.5686438 Z M15.4215686,15.1699346 L15.8888889,15.4754902 L16.8235294,14.0915033 L16.3562091,13.7859477 L15.4215686,15.1699346 Z M17.2094281,14.0530392 L18.1433497,12.6667157 L18.6054575,12.9780229 L17.671536,14.3643464 L17.2094281,14.0530392 Z M16.1291994,15.6528922 L17.060964,14.2651307 L17.5236111,14.575719 L16.5916667,15.9634804 L16.1291994,15.6528922 Z M17.4346405,7.99836602 L17.9019608,7.69281045 L15.8888889,4.70915033 L15.4215686,5.01470588 L17.4346405,7.99836602 Z M16.1320752,4.52563726 L16.5940033,4.21361112 L17.5295425,5.59885621 L17.0677941,5.91070262 L16.1320752,4.52563726 Z M17.2185948,6.14310457 L17.6801634,5.83089869 L18.6166013,7.21542483 L18.1552124,7.52763072 L17.2185948,6.14310457 Z M14.696683,5.49748366 L15.1589706,5.18653595 L16.0921732,6.57339869 L15.6297059,6.8843464 L14.696683,5.49748366 Z M15.7734967,7.09805555 L16.2354248,6.78674836 L17.1697059,8.17289216 L16.707598,8.48437909 L15.7734967,7.09805555 Z M4.7887745,12.0097712 L5.25052288,11.6979248 L7.26287581,14.6769118 L6.80094771,14.9887582 L4.7887745,12.0097712 Z M3.36901961,12.9695752 L3.83094771,12.658268 L5.83988562,15.6394118 L5.37777778,15.950719 L3.36901961,12.9695752 Z M4.0802451,12.5063889 L4.54217321,12.194902 L5.47681372,13.5810458 L5.01470588,13.8925327 L4.0802451,12.5063889 Z M6.09313726,15.4754902 L6.56045752,15.1699346 L5.625817,13.7859477 L5.15849674,14.0915033 L6.09313726,15.4754902 Z" id="形状" fill="#231815"></path>
                        </g>
                    </g>
                </g>
            </g>
        </g>
    </g>
</svg>