<?xml version="1.0" encoding="UTF-8"?>
<svg width="18px" height="18px" viewBox="0 0 18 18" version="1.1" xmlns="http://www.w3.org/2000/svg" xmlns:xlink="http://www.w3.org/1999/xlink">
    <title>列表视图</title>
    <g id="设计规范" stroke="none" stroke-width="1" fill="none" fill-rule="evenodd">
        <g id="ICON" transform="translate(-1129.000000, -607.000000)" fill-rule="nonzero">
            <g id="Group-5-Copy-5" transform="translate(1129.000000, 607.000000)">
                <rect id="Rectangle" fill="#000000" opacity="0" x="0" y="0" width="18" height="18"></rect>
                <path d="M6.01869727,1.125 L9.358875,9.66958594 L7.96069336,9.66958594 L7.1062207,7.41693164 L3.3776543,7.41691406 L2.52318164,9.74722852 L1.125,9.74722852 L4.46517773,1.125 L6.01869727,1.125 Z M5.24202539,2.29014844 L5.1643125,2.29014844 C5.08661719,2.60085938 5.00895703,2.833875 4.93124414,3.06687305 C4.9312793,3.14456836 4.54287305,4.23205664 3.68843555,6.4070332 L3.68843555,6.4070332 L6.79558008,6.4070332 C6.01875,4.23205664 5.55273633,3.14456836 5.55273633,3.06685547 C5.55273633,3.06685547 5.47502344,2.98923047 5.47502344,2.91151758 C5.31966797,2.52318164 5.24202539,2.36779102 5.24202539,2.29014844 L5.24202539,2.29014844 Z" id="Combined-Shape" fill="#AD2935"></path>
                <path d="M16.0799185,2.31920508 L10.5573242,2.31920508 C10.2178363,2.31920508 9.94357617,2.05166602 9.94357617,1.72204102 C9.94357617,1.39250391 10.2178363,1.125 10.5573242,1.125 L16.0799004,1.125 C16.4191896,1.125 16.6935762,1.39250391 16.6935762,1.72204102 C16.6935762,2.05166602 16.4192077,2.31920508 16.0799185,2.31920508 L16.0799185,2.31920508 L16.0799185,2.31920508 Z" id="Path" fill="#AD2935"></path>
                <path d="M16.0799185,5.69420508 L10.5573242,5.69420508 C10.2178363,5.69420508 9.94357617,5.42666602 9.94357617,5.09704102 C9.94357617,4.76750391 10.2178363,4.5 10.5573242,4.5 L16.0799004,4.5 C16.4191896,4.5 16.6935762,4.76750391 16.6935762,5.09704102 C16.6935762,5.42666602 16.4192077,5.69420508 16.0799185,5.69420508 L16.0799185,5.69420508 L16.0799185,5.69420508 Z" id="Path-Copy" fill="#AD2935"></path>
                <path d="M16.0799185,9.06920508 L10.5573242,9.06920508 C10.2178363,9.06920508 9.94357617,8.80166602 9.94357617,8.47204102 C9.94357617,8.14250391 10.2178363,7.875 10.5573242,7.875 L16.0799004,7.875 C16.4191896,7.875 16.6935762,8.14250391 16.6935762,8.47204102 C16.6935762,8.80166602 16.4192077,9.06920508 16.0799185,9.06920508 L16.0799185,9.06920508 L16.0799185,9.06920508 Z" id="Path-Copy-2" fill="#AD2935"></path>
                <path d="M1.80336522,12.4442974 C1.46387731,12.4442974 1.18961719,12.1767583 1.18961719,11.8471333 C1.18961719,11.5175962 1.46387731,11.2500923 1.80336522,11.2500923 L16.0799004,11.25 C16.4191896,11.25 16.6935762,11.5175039 16.6935762,11.847041 C16.6935762,12.176666 16.4192077,12.4442051 16.0799185,12.4442051 L1.80336522,12.4442974 Z" id="Path-Copy-3" fill="#AD2935"></path>
                <path d="M1.80336522,15.8192974 C1.46387731,15.8192974 1.18961719,15.5517583 1.18961719,15.2221333 C1.18961719,14.8925962 1.46387731,14.6250923 1.80336522,14.6250923 L16.0799004,14.625 C16.4191896,14.625 16.6935762,14.8925039 16.6935762,15.222041 C16.6935762,15.551666 16.4192077,15.8192051 16.0799185,15.8192051 L1.80336522,15.8192974 Z" id="Path-Copy-4" fill="#AD2935"></path>
            </g>
        </g>
    </g>
</svg>