<?xml version="1.0" encoding="UTF-8"?>
<svg width="24px" height="24px" viewBox="0 0 24 24" version="1.1" xmlns="http://www.w3.org/2000/svg" xmlns:xlink="http://www.w3.org/1999/xlink">
    <defs>
        <linearGradient x1="11.7361222%" y1="-6.58767747%" x2="83.7571153%" y2="100%" id="linearGradient-1">
            <stop stop-color="#DAE2EA" offset="0%"></stop>
            <stop stop-color="#A0A1A2" offset="100%"></stop>
        </linearGradient>
    </defs>
    <g id="设计规范" stroke="none" stroke-width="1" fill="none" fill-rule="evenodd">
        <g id="ICON" transform="translate(-788.000000, -309.000000)">
            <g id="编组-16复制备份-3" transform="translate(788.000000, 309.000000)">
                <rect id="矩形" fill="#000000" fill-rule="nonzero" opacity="0" x="0" y="0" width="24" height="24"></rect>
                <circle id="椭圆形" fill="url(#linearGradient-1)" cx="11.5" cy="12.5" r="8.5"></circle>
                <path d="M11.5757677,14.8062163 C11.1799661,14.8062163 10.859101,14.4881003 10.859101,14.09569 L10.859101,3.71052632 C10.859101,3.31811595 11.1799661,3 11.5757677,3 C11.9715693,3 12.2924344,3.31811595 12.2924344,3.71052632 L12.2924344,14.09569 C12.2924344,14.4881003 11.9715917,14.8062163 11.5757677,14.8062163 Z" id="路径" fill="#FFFFFF" fill-rule="nonzero"></path>
                <path d="M6.11091742,5.56281661 C4.21033931,7.12678216 3,9.48665985 3,12.1268054 C3,16.8357595 6.85035115,20.6531212 11.6,20.6531212 L11.6,20.6531212 C16.3496488,20.6531212 20.2,16.8357595 20.2,12.1268054 C20.2,9.49859229 19.0005765,7.14811936 17.1148099,5.5840709" id="路径" stroke-opacity="0.352100317" stroke="#FFFFFF" stroke-width="1.3"></path>
            </g>
            <g id="编组-16复制备份-3" transform="translate(788.000000, 309.000000)">
                <rect id="矩形" fill="#000000" fill-rule="nonzero" opacity="0" x="0" y="0" width="24" height="24"></rect>
                <circle id="椭圆形" fill="url(#linearGradient-1)" cx="11.5" cy="12.5" r="8.5"></circle>
                <path d="M11.5757677,14.8062163 C11.1799661,14.8062163 10.859101,14.4881003 10.859101,14.09569 L10.859101,3.71052632 C10.859101,3.31811595 11.1799661,3 11.5757677,3 C11.9715693,3 12.2924344,3.31811595 12.2924344,3.71052632 L12.2924344,14.09569 C12.2924344,14.4881003 11.9715917,14.8062163 11.5757677,14.8062163 Z" id="路径" fill="#FFFFFF" fill-rule="nonzero"></path>
                <path d="M6.11091742,5.56281661 C4.21033931,7.12678216 3,9.48665985 3,12.1268054 C3,16.8357595 6.85035115,20.6531212 11.6,20.6531212 L11.6,20.6531212 C16.3496488,20.6531212 20.2,16.8357595 20.2,12.1268054 C20.2,9.49859229 19.0005765,7.14811936 17.1148099,5.5840709" id="路径" stroke-opacity="0.352100317" stroke="#FFFFFF" stroke-width="1.3"></path>
            </g>
        </g>
    </g>
</svg>