<?xml version="1.0" encoding="UTF-8"?>
<svg width="24px" height="24px" viewBox="0 0 24 24" version="1.1" xmlns="http://www.w3.org/2000/svg" xmlns:xlink="http://www.w3.org/1999/xlink">
    <title>ICON备份 23</title>
    <g id="设计规范" stroke="none" stroke-width="1" fill="none" fill-rule="evenodd">
        <g id="ICON" transform="translate(-860.000000, -399.000000)" fill-rule="nonzero">
            <g id="编组" transform="translate(860.000000, 399.000000)">
                <rect id="矩形" fill="#000000" opacity="0" x="0" y="0" width="24" height="24"></rect>
                <path d="M11.9835938,1.5 C6.19453125,1.5 1.48359375,6.2109375 1.48359375,12 C1.48359375,17.7890625 6.19453125,22.5 11.9835938,22.5 C17.7726563,22.5 22.4835938,17.7890625 22.4835938,12 C22.4835938,6.2109375 17.775,1.5 11.9835938,1.5 Z M17.2289062,19.5960937 C17.0203125,19.4507812 16.7390625,19.4273437 16.5046875,19.5632812 C16.2632813,19.7015625 16.1414062,19.9664062 16.171875,20.2265625 C15.1054688,20.7726562 13.921875,21.1148437 12.665625,21.2085937 C12.571875,20.9484375 12.3257813,20.7632812 12.0328125,20.7632812 C11.7375,20.7632812 11.4914062,20.953125 11.3976562,21.215625 C10.2445312,21.1429687 9.15,20.859375 8.1515625,20.4023437 C8.22890625,20.1140625 8.11171875,19.7976562 7.83984375,19.6429687 C7.55859375,19.48125 7.21171875,19.5445312 7.003125,19.7742187 C6.0140625,19.1390625 5.15390625,18.3210937 4.471875,17.3671875 C4.73203125,17.1632812 4.81171875,16.7953125 4.64296875,16.5 C4.4671875,16.1953125 4.08984375,16.0828125 3.77578125,16.228125 C3.23203125,15.178125 2.88515625,14.0085937 2.78203125,12.7734375 C3.14765625,12.7664062 3.44296875,12.46875 3.44296875,12.1007812 C3.44296875,11.728125 3.140625,11.4257812 2.76796875,11.4257812 L2.765625,11.4257812 C2.83828125,10.2328125 3.140625,9.10078125 3.62578125,8.071875 C3.6328125,8.0765625 3.6375,8.08125 3.6421875,8.08359375 C3.965625,8.26875 4.378125,8.15859375 4.56328125,7.8375 C4.7484375,7.5140625 4.63828125,7.1015625 4.3171875,6.91640625 C4.3078125,6.909375 4.29609375,6.90703125 4.28671875,6.90234375 C4.94765625,5.90859375 5.79375,5.0484375 6.778125,4.37578125 C6.78046875,4.38046875 6.7828125,4.3875 6.78515625,4.3921875 C6.9703125,4.715625 7.38515625,4.82578125 7.70625,4.63828125 C8.0296875,4.453125 8.13984375,4.03828125 7.95234375,3.7171875 C7.94765625,3.71015625 7.94296875,3.70546875 7.93828125,3.6984375 C8.98359375,3.1875 10.1414062,2.86875 11.3625,2.78671875 C11.3742187,3.14765625 11.6695313,3.43828125 12.0351562,3.43828125 C12.3960938,3.43828125 12.6890625,3.15234375 12.7054687,2.79375 C13.9101563,2.8875 15.0492187,3.21328125 16.0804687,3.72421875 C15.9585937,4.03125 16.0734375,4.3875 16.3664063,4.55625 C16.6570313,4.72265625 17.0179687,4.65 17.2242188,4.39921875 C18.1898438,5.0671875 19.021875,5.91328125 19.6710938,6.890625 C19.4625,7.1015625 19.4109375,7.4296875 19.565625,7.69921875 C19.7203125,7.96640625 20.0273438,8.08359375 20.3109375,8.01328125 C20.8195312,9.0703125 21.1289062,10.2375 21.1992188,11.4703125 C20.9460937,11.5664062 20.7632812,11.8101562 20.7632812,12.0984375 C20.7632812,12.3796875 20.9367188,12.6210937 21.1828125,12.721875 C21.0914062,13.8984375 20.7796875,15.0140625 20.2875,16.0265625 C20.034375,16.003125 19.7789062,16.125 19.6429687,16.359375 C19.5070313,16.5960937 19.5304687,16.8796875 19.6804687,17.0882812 C19.0335937,18.075 18.1992187,18.9257812 17.2289062,19.5960937 L17.2289062,19.5960937 Z" id="形状" fill="#AAADB8"></path>
                <path d="M17.0671875,14.1890625 L12.6164063,11.634375 L12.6164063,5.88984375 C12.6164063,5.540625 12.3328125,5.25703125 11.9835938,5.25703125 C11.634375,5.25703125 11.3507813,5.540625 11.3507813,5.88984375 L11.3507813,12 C11.3507813,12.0070312 11.353125,12.0140625 11.353125,12.0210938 C11.353125,12.0445312 11.3578125,12.065625 11.3601563,12.0890625 C11.3625,12.1078125 11.3648438,12.1265625 11.3695313,12.1476562 C11.3742188,12.16875 11.38125,12.1875 11.3882813,12.20625 C11.3953125,12.225 11.4023438,12.2460938 11.409375,12.2625 C11.41875,12.28125 11.428125,12.2976562 11.4375,12.3164062 C11.446875,12.3328125 11.45625,12.3515625 11.4679688,12.3679687 C11.4796875,12.384375 11.49375,12.4007812 11.5078125,12.4148437 C11.521875,12.43125 11.5335938,12.4453125 11.55,12.459375 C11.5640625,12.4734375 11.5804688,12.4851562 11.5945312,12.496875 C11.6132812,12.5109375 11.6296875,12.525 11.6484375,12.5367187 C11.6554688,12.5414063 11.6601562,12.5460937 11.6648437,12.5484375 L16.4320312,15.2835937 C16.5304688,15.3421875 16.640625,15.3679688 16.7484375,15.3679688 C16.9664062,15.3679688 17.1796875,15.2554688 17.296875,15.0515625 C17.4726562,14.7492188 17.3695312,14.3625 17.0671875,14.1890625 L17.0671875,14.1890625 Z" id="路径" fill="#AAADB8"></path>
            </g>
            <g id="编组" transform="translate(860.000000, 399.000000)">
                <rect id="矩形" fill="#000000" opacity="0" x="0" y="0" width="24" height="24"></rect>
                <path d="M11.9835938,1.5 C6.19453125,1.5 1.48359375,6.2109375 1.48359375,12 C1.48359375,17.7890625 6.19453125,22.5 11.9835938,22.5 C17.7726563,22.5 22.4835938,17.7890625 22.4835938,12 C22.4835938,6.2109375 17.775,1.5 11.9835938,1.5 Z M17.2289062,19.5960937 C17.0203125,19.4507812 16.7390625,19.4273437 16.5046875,19.5632812 C16.2632813,19.7015625 16.1414062,19.9664062 16.171875,20.2265625 C15.1054688,20.7726562 13.921875,21.1148437 12.665625,21.2085937 C12.571875,20.9484375 12.3257813,20.7632812 12.0328125,20.7632812 C11.7375,20.7632812 11.4914062,20.953125 11.3976562,21.215625 C10.2445312,21.1429687 9.15,20.859375 8.1515625,20.4023437 C8.22890625,20.1140625 8.11171875,19.7976562 7.83984375,19.6429687 C7.55859375,19.48125 7.21171875,19.5445312 7.003125,19.7742187 C6.0140625,19.1390625 5.15390625,18.3210937 4.471875,17.3671875 C4.73203125,17.1632812 4.81171875,16.7953125 4.64296875,16.5 C4.4671875,16.1953125 4.08984375,16.0828125 3.77578125,16.228125 C3.23203125,15.178125 2.88515625,14.0085937 2.78203125,12.7734375 C3.14765625,12.7664062 3.44296875,12.46875 3.44296875,12.1007812 C3.44296875,11.728125 3.140625,11.4257812 2.76796875,11.4257812 L2.765625,11.4257812 C2.83828125,10.2328125 3.140625,9.10078125 3.62578125,8.071875 C3.6328125,8.0765625 3.6375,8.08125 3.6421875,8.08359375 C3.965625,8.26875 4.378125,8.15859375 4.56328125,7.8375 C4.7484375,7.5140625 4.63828125,7.1015625 4.3171875,6.91640625 C4.3078125,6.909375 4.29609375,6.90703125 4.28671875,6.90234375 C4.94765625,5.90859375 5.79375,5.0484375 6.778125,4.37578125 C6.78046875,4.38046875 6.7828125,4.3875 6.78515625,4.3921875 C6.9703125,4.715625 7.38515625,4.82578125 7.70625,4.63828125 C8.0296875,4.453125 8.13984375,4.03828125 7.95234375,3.7171875 C7.94765625,3.71015625 7.94296875,3.70546875 7.93828125,3.6984375 C8.98359375,3.1875 10.1414062,2.86875 11.3625,2.78671875 C11.3742187,3.14765625 11.6695313,3.43828125 12.0351562,3.43828125 C12.3960938,3.43828125 12.6890625,3.15234375 12.7054687,2.79375 C13.9101563,2.8875 15.0492187,3.21328125 16.0804687,3.72421875 C15.9585937,4.03125 16.0734375,4.3875 16.3664063,4.55625 C16.6570313,4.72265625 17.0179687,4.65 17.2242188,4.39921875 C18.1898438,5.0671875 19.021875,5.91328125 19.6710938,6.890625 C19.4625,7.1015625 19.4109375,7.4296875 19.565625,7.69921875 C19.7203125,7.96640625 20.0273438,8.08359375 20.3109375,8.01328125 C20.8195312,9.0703125 21.1289062,10.2375 21.1992188,11.4703125 C20.9460937,11.5664062 20.7632812,11.8101562 20.7632812,12.0984375 C20.7632812,12.3796875 20.9367188,12.6210937 21.1828125,12.721875 C21.0914062,13.8984375 20.7796875,15.0140625 20.2875,16.0265625 C20.034375,16.003125 19.7789062,16.125 19.6429687,16.359375 C19.5070313,16.5960937 19.5304687,16.8796875 19.6804687,17.0882812 C19.0335937,18.075 18.1992187,18.9257812 17.2289062,19.5960937 L17.2289062,19.5960937 Z" id="形状" fill="#AAADB8"></path>
                <path d="M17.0671875,14.1890625 L12.6164063,11.634375 L12.6164063,5.88984375 C12.6164063,5.540625 12.3328125,5.25703125 11.9835938,5.25703125 C11.634375,5.25703125 11.3507813,5.540625 11.3507813,5.88984375 L11.3507813,12 C11.3507813,12.0070312 11.353125,12.0140625 11.353125,12.0210938 C11.353125,12.0445312 11.3578125,12.065625 11.3601563,12.0890625 C11.3625,12.1078125 11.3648438,12.1265625 11.3695313,12.1476562 C11.3742188,12.16875 11.38125,12.1875 11.3882813,12.20625 C11.3953125,12.225 11.4023438,12.2460938 11.409375,12.2625 C11.41875,12.28125 11.428125,12.2976562 11.4375,12.3164062 C11.446875,12.3328125 11.45625,12.3515625 11.4679688,12.3679687 C11.4796875,12.384375 11.49375,12.4007812 11.5078125,12.4148437 C11.521875,12.43125 11.5335938,12.4453125 11.55,12.459375 C11.5640625,12.4734375 11.5804688,12.4851562 11.5945312,12.496875 C11.6132812,12.5109375 11.6296875,12.525 11.6484375,12.5367187 C11.6554688,12.5414063 11.6601562,12.5460937 11.6648437,12.5484375 L16.4320312,15.2835937 C16.5304688,15.3421875 16.640625,15.3679688 16.7484375,15.3679688 C16.9664062,15.3679688 17.1796875,15.2554688 17.296875,15.0515625 C17.4726562,14.7492188 17.3695312,14.3625 17.0671875,14.1890625 L17.0671875,14.1890625 Z" id="路径" fill="#AAADB8"></path>
            </g>
        </g>
    </g>
</svg>