<?xml version="1.0" encoding="UTF-8"?>
<svg width="24px" height="24px" viewBox="0 0 24 24" version="1.1" xmlns="http://www.w3.org/2000/svg" xmlns:xlink="http://www.w3.org/1999/xlink">
    <title>手机验证码登录</title>
    <g id="设计规范" stroke="none" stroke-width="1" fill="none" fill-rule="evenodd">
        <g id="ICON" transform="translate(-150.000000, -309.000000)" fill-rule="nonzero">
            <g id="手机验证码登录" transform="translate(150.000000, 309.000000)">
                <rect id="矩形" fill="#000000" opacity="0" x="0" y="0" width="24" height="24"></rect>
                <path d="M15.1757578,1.42164844 L8.79297656,1.42164844 C6.69292969,1.42164844 4.98445313,3.130125 4.98445313,5.23017188 L4.98445313,18.6811172 C4.98445313,20.7811641 6.69292969,22.4896406 8.79297656,22.4896406 L15.1757578,22.4896406 C17.2758047,22.4896406 18.9842813,20.7811641 18.9842813,18.6811172 L18.9842813,5.23017188 C18.9842813,3.130125 17.2758047,1.42164844 15.1757578,1.42164844 Z M17.7147891,18.6811172 C17.7147891,20.0811094 16.5757734,21.220125 15.1757813,21.220125 L8.79297656,21.220125 C7.39298438,21.220125 6.25396875,20.0811094 6.25396875,18.6811172 L6.25396875,5.23017188 C6.25396875,3.83017969 7.39298438,2.69114063 8.79297656,2.69114063 L10.1094141,2.69114063 C10.1129297,3.03864844 10.3951875,3.3195 10.7435156,3.3195 L13.2251953,3.3195 C13.5735469,3.3195 13.8557813,3.03864844 13.8592969,2.69114063 L15.1757344,2.69114063 C16.5757266,2.69114063 17.7147891,3.83015625 17.7147891,5.23017188 L17.7147891,18.6811172 L17.7147891,18.6811172 Z" id="形状" fill="#AD2935"></path>
                <path d="M13.2252188,19.2024375 L10.7435391,19.2024375 C10.3930078,19.2024375 10.1087813,19.4866406 10.1087813,19.8371953 C10.1087813,20.18775 10.3929844,20.4719531 10.7435391,20.4719531 L13.2252188,20.4719531 C13.57575,20.4719531 13.8599766,20.18775 13.8599766,19.8371953 C13.8599766,19.4866406 13.57575,19.2024375 13.2252188,19.2024375 Z" id="路径" fill="#AD2935"></path>
            </g>
            <g id="手机验证码登录" transform="translate(150.000000, 309.000000)">
                <rect id="矩形" fill="#000000" opacity="0" x="0" y="0" width="24" height="24"></rect>
                <path d="M15.1757578,1.42164844 L8.79297656,1.42164844 C6.69292969,1.42164844 4.98445313,3.130125 4.98445313,5.23017188 L4.98445313,18.6811172 C4.98445313,20.7811641 6.69292969,22.4896406 8.79297656,22.4896406 L15.1757578,22.4896406 C17.2758047,22.4896406 18.9842813,20.7811641 18.9842813,18.6811172 L18.9842813,5.23017188 C18.9842813,3.130125 17.2758047,1.42164844 15.1757578,1.42164844 Z M17.7147891,18.6811172 C17.7147891,20.0811094 16.5757734,21.220125 15.1757813,21.220125 L8.79297656,21.220125 C7.39298438,21.220125 6.25396875,20.0811094 6.25396875,18.6811172 L6.25396875,5.23017188 C6.25396875,3.83017969 7.39298438,2.69114063 8.79297656,2.69114063 L10.1094141,2.69114063 C10.1129297,3.03864844 10.3951875,3.3195 10.7435156,3.3195 L13.2251953,3.3195 C13.5735469,3.3195 13.8557813,3.03864844 13.8592969,2.69114063 L15.1757344,2.69114063 C16.5757266,2.69114063 17.7147891,3.83015625 17.7147891,5.23017188 L17.7147891,18.6811172 L17.7147891,18.6811172 Z" id="形状" fill="#AD2935"></path>
                <path d="M13.2252188,19.2024375 L10.7435391,19.2024375 C10.3930078,19.2024375 10.1087813,19.4866406 10.1087813,19.8371953 C10.1087813,20.18775 10.3929844,20.4719531 10.7435391,20.4719531 L13.2252188,20.4719531 C13.57575,20.4719531 13.8599766,20.18775 13.8599766,19.8371953 C13.8599766,19.4866406 13.57575,19.2024375 13.2252188,19.2024375 Z" id="路径" fill="#AD2935"></path>
            </g>
        </g>
    </g>
</svg>