<?xml version="1.0" encoding="UTF-8"?>
<svg width="18px" height="18px" viewBox="0 0 18 18" version="1.1" xmlns="http://www.w3.org/2000/svg" xmlns:xlink="http://www.w3.org/1999/xlink">
    <title>more</title>
    <g id="设计规范" stroke="none" stroke-width="1" fill="none" fill-rule="evenodd">
        <g id="ICON" transform="translate(-671.000000, -551.000000)" fill-rule="nonzero">
            <g id="更多复制-5" transform="translate(671.000000, 551.000000)">
                <rect id="矩形" fill="#000000" opacity="0" x="0" y="0" width="18" height="18"></rect>
                <path d="M13.5,7.875 C12.8784375,7.875 12.375,8.3784375 12.375,9 C12.375,9.6215625 12.8784375,10.125 13.5,10.125 C14.1215625,10.125 14.625,9.6215625 14.625,9 C14.625,8.3784375 14.1215625,7.875 13.5,7.875 M9,7.875 C8.3784375,7.875 7.875,8.3784375 7.875,9 C7.875,9.6215625 8.3784375,10.125 9,10.125 C9.6215625,10.125 10.125,9.6215625 10.125,9 C10.125,8.3784375 9.6215625,7.875 9,7.875 M4.5,7.875 C3.8784375,7.875 3.375,8.3784375 3.375,9 C3.375,9.6215625 3.8784375,10.125 4.5,10.125 C5.1215625,10.125 5.625,9.6215625 5.625,9 C5.625,8.3784375 5.1215625,7.875 4.5,7.875" id="形状" fill="#8C8C8C"></path>
            </g>
        </g>
    </g>
</svg>