<?xml version="1.0" encoding="UTF-8"?>
<svg width="12px" height="12px" viewBox="0 0 12 12" version="1.1" xmlns="http://www.w3.org/2000/svg" xmlns:xlink="http://www.w3.org/1999/xlink">
    <title>真实账户</title>
    <g id="设计规范" stroke="none" stroke-width="1" fill="none" fill-rule="evenodd">
        <g id="ICON" transform="translate(-207.000000, -776.000000)" fill-rule="nonzero">
            <g id="编组备份" transform="translate(207.000000, 776.000000)">
                <rect id="矩形" fill="#000000" opacity="0" x="0" y="0" width="12" height="12"></rect>
                <path d="M7.05117188,7.04726563 C7.89139155,7.04726563 8.6532608,7.38332927 9.20511336,7.9266076 C9.75440294,8.46736276 10.0955922,9.21377213 10.0960938,10.0371094 C9.03525311,10.7596908 8.0830111,10.75 7.05234375,10.75 L7.05234375,10.75 L4.94882813,10.75 C3.88324244,10.75 2.94217519,10.7599143 2.32818055,10.5857055 C1.90507813,9.23414976 2.23874348,8.4744351 2.79496244,7.92667714 C3.34668226,7.38334988 4.10857998,7.04726563 4.94882813,7.04726563 L4.94882813,7.04726563 Z M5.89453125,1.25 C6.5314227,1.25 7.10898494,1.50490241 7.52722404,1.91702947 C7.94289243,2.32662337 8.20117188,2.89187912 8.20117188,3.515625 C8.20117188,4.13972315 7.94305178,4.70490904 7.52751688,5.11437141 C7.10924534,5.52653042 6.53155215,5.78125 5.89453125,5.78125 C5.25799506,5.78125 4.68036101,5.52619384 4.26198927,5.11393609 C3.84635315,4.70437399 3.58789062,4.13924628 3.58789063,3.515625 C3.58789062,2.89187912 3.84617007,2.32662337 4.26183846,1.91702947 C4.68007756,1.50490241 5.2576398,1.25 5.89453125,1.25 Z" id="形状" stroke="#AAADB8" fill="#ADB0BA"></path>
            </g>
        </g>
    </g>
</svg>