<?xml version="1.0" encoding="UTF-8"?>
<svg width="18px" height="18px" viewBox="0 0 18 18" version="1.1" xmlns="http://www.w3.org/2000/svg" xmlns:xlink="http://www.w3.org/1999/xlink">
    <title>未连接</title>
    <g id="设计规范" stroke="none" stroke-width="1" fill="none" fill-rule="evenodd">
        <g id="ICON" transform="translate(-962.000000, -607.000000)" fill-rule="nonzero">
            <g id="编组" transform="translate(962.000000, 607.000000)">
                <rect id="矩形" fill="#000000" opacity="0" x="0" y="0" width="18" height="18"></rect>
                <path d="M10.0312117,11.4079378 C10.1875239,11.2498039 10.4169979,11.1883166 10.6314352,11.2471084 C10.8458725,11.3059002 11.0119016,11.4758218 11.0657092,11.6915637 L11.0657092,11.6915637 L12.2550652,16.12982 C12.3430124,16.4580434 12.14823,16.7954163 11.8200066,16.8833635 C11.4917832,16.9713107 11.1544102,16.7765283 11.066463,16.4483049 L11.066463,16.4483049 L9.87734713,12.0099843 C9.81607484,11.7962426 9.87489946,11.5660716 10.0312117,11.4079378 Z M4.61109375,8.28140625 C4.85136998,8.04113003 5.24093471,8.04113003 5.48121093,8.28140626 C5.72148716,8.52168248 5.72148716,8.91124721 5.48121094,9.15152344 L5.48121094,9.15152344 L3.19605469,11.4366797 C2.25249151,12.3904725 2.25653646,13.9272933 3.20510736,14.876106 C4.15367826,15.8249187 5.69049802,15.8293552 6.64453125,14.8860352 L6.64453125,14.8860352 L8.9296875,12.6008789 C9.08502476,12.4453532 9.31153427,12.384513 9.52389208,12.4412762 C9.73624989,12.4980394 9.9021938,12.6637823 9.95921435,12.8760711 C10.0162349,13.08836 9.9556693,13.3149431 9.80033203,13.4704688 L9.80033203,13.4704688 L7.51517578,15.755625 C6.08225574,17.1885936 3.75899397,17.1886329 2.32602539,15.7557129 C0.893056808,14.3227928 0.893017458,11.9995311 2.3259375,10.5665625 L2.3259375,10.5665625 Z M11.2461676,10.3095245 C11.3341148,9.9813011 11.6714877,9.78651873 11.9997112,9.87446593 L11.9997112,9.87446593 L16.4379676,11.0638218 C16.6537095,11.1176294 16.8236311,11.2836585 16.8824229,11.4980958 C16.9412147,11.7125331 16.8797274,11.9420071 16.7215935,12.0983193 C16.5634597,12.2546316 16.3332887,12.3134562 16.1195469,12.2521839 L16.1195469,12.2521839 L11.6812262,11.0630681 C11.3530027,10.9751209 11.1582204,10.637748 11.2461676,10.3095245 Z M13.2433594,1.1694515 C14.2165087,1.1694515 15.1497963,1.55605263 15.8378906,2.24419922 C16.5260372,2.93229358 16.9126383,3.86558116 16.9126383,4.83873047 C16.9126383,5.81187978 16.5260372,6.74516736 15.8378906,7.43326172 L15.8378906,7.43326172 L13.5527344,9.71841797 C13.3973029,9.87384943 13.1707566,9.93455233 12.9584333,9.87766047 C12.74611,9.8207686 12.5802666,9.6549252 12.5233747,9.44260187 C12.4664828,9.23027854 12.5271857,9.00373225 12.6826172,8.84830078 L12.6826172,8.84830078 L14.9677734,6.56314453 C15.5895601,5.94821653 15.8345037,5.04743954 15.609742,4.20231398 C15.3849803,3.35718841 14.7249227,2.69709713 13.8798086,2.47229235 C13.0346945,2.24748757 12.133905,2.49238535 11.5189453,3.11414063 L11.5189453,3.11414063 L9.23378906,5.39929688 C8.99287248,5.63549081 8.60667854,5.633599 8.3680875,5.39505616 C8.12949646,5.15651331 8.12752662,4.77031977 8.36367187,4.52935547 L8.36367187,4.52935547 L10.6488281,2.24419922 C11.3369225,1.55605263 12.2702101,1.1694515 13.2433594,1.1694515 Z M1.40793767,6.03121186 C1.56607152,5.87489963 1.79624252,5.816075 2.00998427,5.87734729 L2.00998427,5.87734729 L6.44830501,7.06646306 C6.77652844,7.15441027 6.97131081,7.49178322 6.88336361,7.82000665 C6.7954164,8.14823008 6.45804345,8.34301245 6.12982002,8.25506525 L6.12982002,8.25506525 L1.69156362,7.06570935 C1.47582169,7.01190182 1.30590007,6.8458727 1.24710826,6.63143541 C1.18831645,6.41699812 1.24980383,6.1875241 1.40793767,6.03121186 Z M6.03121186,1.40793767 C6.1875241,1.24980383 6.41699812,1.18831645 6.63143541,1.24710826 C6.8458727,1.30590007 7.01190182,1.47582169 7.06570935,1.69156362 L7.06570935,1.69156362 L8.25506525,6.12982002 C8.34301245,6.45804345 8.14823008,6.7954164 7.82000665,6.88336361 C7.49178322,6.97131081 7.15441027,6.77652844 7.06646306,6.44830501 L7.06646306,6.44830501 L5.87734729,2.00998427 C5.816075,1.79624252 5.87489963,1.56607152 6.03121186,1.40793767 Z" id="形状结合" fill="#F6665D"></path>
            </g>
        </g>
    </g>
</svg>