<?xml version="1.0" encoding="UTF-8"?>
<svg width="24px" height="24px" viewBox="0 0 24 24" version="1.1" xmlns="http://www.w3.org/2000/svg" xmlns:xlink="http://www.w3.org/1999/xlink">
    <title>v备份 17</title>
    <defs>
        <linearGradient x1="21.8877633%" y1="-6.58767747%" x2="74.8011459%" y2="100%" id="linearGradient-1">
            <stop stop-color="#DAE2EA" offset="0%"></stop>
            <stop stop-color="#A0A1A2" offset="100%"></stop>
        </linearGradient>
    </defs>
    <g id="设计规范" stroke="none" stroke-width="1" fill="none" fill-rule="evenodd">
        <g id="ICON" transform="translate(-644.000000, -363.000000)">
            <g id="风险复制-2备份-6" transform="translate(644.000000, 363.000000)">
                <rect id="矩形" fill="#000000" fill-rule="nonzero" opacity="0" x="0" y="0" width="24" height="24"></rect>
                <path d="M20.7,3.65 C17.55,2.45 15,2 12,2 C9,2 6.45000001,2.45 3.30000001,3.65 C3.15000001,3.80000001 3,3.94999999 3,4.25000001 L3,13.7 C3,17.6 8.54999999,21.35 11.85,23 L12.15,23 C15.45,21.35 21,17.6 21,13.7 L21,4.25000001 C21,3.95000001 20.85,3.80000001 20.7,3.65 Z" id="路径" stroke-opacity="0.352100317" stroke="#FFFFFF" stroke-width="1.3" fill="url(#linearGradient-1)"></path>
                <g id="编组-11" transform="translate(11.000000, 5.500000)" fill="#2D3D5C" fill-rule="nonzero">
                    <path d="M0,6.75000002 C0,7.20000001 0.399999984,7.5 1,7.5 C1.60000002,7.5 2,7.20000001 2,6.75000002 L2,0.750000009 C2,0.300000012 1.60000002,0 1,0 C0.399999984,0 0,0.299999991 0,0.750000009 L0,6.75000002 Z" id="路径"></path>
                    <path d="M1,9.50000001 C0.400000011,9.50000001 0,9.89999999 0,10.5 C0,11.1 0.399999984,11.5 1,11.5 C1.60000002,11.5 2,11.1 2,10.5 C2,9.90000002 1.59999999,9.50000001 1,9.50000001 Z" id="路径"></path>
                </g>
            </g>
            <g id="风险复制-2备份-6" transform="translate(644.000000, 363.000000)">
                <rect id="矩形" fill="#000000" fill-rule="nonzero" opacity="0" x="0" y="0" width="24" height="24"></rect>
                <path d="M20.7,3.65 C17.55,2.45 15,2 12,2 C9,2 6.45000001,2.45 3.30000001,3.65 C3.15000001,3.80000001 3,3.94999999 3,4.25000001 L3,13.7 C3,17.6 8.54999999,21.35 11.85,23 L12.15,23 C15.45,21.35 21,17.6 21,13.7 L21,4.25000001 C21,3.95000001 20.85,3.80000001 20.7,3.65 Z" id="路径" stroke-opacity="0.352100317" stroke="#FFFFFF" stroke-width="1.3" fill="url(#linearGradient-1)"></path>
                <g id="编组-11" transform="translate(11.000000, 5.500000)" fill="#2D3D5C" fill-rule="nonzero">
                    <path d="M0,6.75000002 C0,7.20000001 0.399999984,7.5 1,7.5 C1.60000002,7.5 2,7.20000001 2,6.75000002 L2,0.750000009 C2,0.300000012 1.60000002,0 1,0 C0.399999984,0 0,0.299999991 0,0.750000009 L0,6.75000002 Z" id="路径"></path>
                    <path d="M1,9.50000001 C0.400000011,9.50000001 0,9.89999999 0,10.5 C0,11.1 0.399999984,11.5 1,11.5 C1.60000002,11.5 2,11.1 2,10.5 C2,9.90000002 1.59999999,9.50000001 1,9.50000001 Z" id="路径"></path>
                </g>
            </g>
        </g>
    </g>
</svg>