<?xml version="1.0" encoding="UTF-8"?>
<svg width="24px" height="24px" viewBox="0 0 24 24" version="1.1" xmlns="http://www.w3.org/2000/svg" xmlns:xlink="http://www.w3.org/1999/xlink">
    <title>ICON备份 21</title>
    <g id="设计规范" stroke="none" stroke-width="1" fill="none" fill-rule="evenodd">
        <g id="ICON" transform="translate(-644.000000, -399.000000)" fill-rule="nonzero">
            <g id="风险复制-2备份-3" transform="translate(644.000000, 399.000000)">
                <rect id="矩形" fill="#000000" opacity="0" x="0" y="0" width="24" height="24"></rect>
                <path d="M12,1.4 C15.1431665,1.4 17.7627721,1.88899305 20.9135972,3.08930736 L20.9135972,3.08930736 L21.0335206,3.13499247 L21.1242641,3.22573593 C21.4517458,3.55321771 21.6,3.80030798 21.6,4.25000001 L21.6,4.25000001 L21.6,13.7 C21.6,17.2754509 17.4883214,21.0016597 12.4183282,23.5366563 L12.4183282,23.5366563 L12.2916408,23.6 L11.7083592,23.6 L11.2593871,23.3732432 C6.33857491,20.8431659 2.4,17.1993775 2.4,13.7 L2.4,13.7 L2.4,4.25000001 C2.4,3.80030801 2.54825416,3.55321772 2.87573588,3.225736 L2.87573588,3.225736 L2.96647941,3.13499247 L3.63713107,2.88482589 C6.5472284,1.83315647 9.04172563,1.4 12,1.4 Z M12,2.6 C9.00388079,2.6 6.52894862,3.06198734 3.51359721,4.21069264 L3.635,4.165 L3.61618769,4.1892109 C3.61093728,4.19665447 3.60738851,4.20309512 3.60499033,4.20930602 L3.60069653,4.2280227 L3.6,13.7 C3.6,16.6448616 7.43832134,20.1233403 12.1183282,22.4633437 L12.1183282,22.4633437 L11.994,22.4 L12.005,22.4 L12.1923925,22.3056752 C16.6272393,20.0221109 20.2327503,16.7329484 20.3943465,13.8970963 L20.3943465,13.8970963 L20.4,13.7 L20.3993035,4.2280227 C20.3980074,4.21497349 20.3943131,4.20409803 20.3838123,4.18921089 L20.3838123,4.18921089 L20.363,4.165 L19.9596758,4.01506276 C17.3519293,3.07209873 15.1163061,2.65348475 12.5235328,2.60484146 L12.5235328,2.60484146 Z M12,15.5 C12.45,15.5 12.75,15.8 12.75,16.25 C12.75,16.7 12.45,17 12,17 C11.55,17 11.25,16.7 11.25,16.25 C11.25,15.8 11.55,15.5 12,15.5 Z M12,6.49999999 C12.45,6.49999999 12.75,6.8 12.75,7.25 L12.75,7.25 L12.75,13.25 C12.75,13.7 12.45,14 12,14 C11.55,14 11.25,13.7 11.25,13.25 L11.25,13.25 L11.25,7.25 C11.25,6.79999998 11.55,6.49999999 12,6.49999999 Z" id="形状结合" fill="#AAADB8"></path>
            </g>
            <g id="风险复制-2备份-3" transform="translate(644.000000, 399.000000)">
                <rect id="矩形" fill="#000000" opacity="0" x="0" y="0" width="24" height="24"></rect>
                <path d="M12,1.4 C15.1431665,1.4 17.7627721,1.88899305 20.9135972,3.08930736 L20.9135972,3.08930736 L21.0335206,3.13499247 L21.1242641,3.22573593 C21.4517458,3.55321771 21.6,3.80030798 21.6,4.25000001 L21.6,4.25000001 L21.6,13.7 C21.6,17.2754509 17.4883214,21.0016597 12.4183282,23.5366563 L12.4183282,23.5366563 L12.2916408,23.6 L11.7083592,23.6 L11.2593871,23.3732432 C6.33857491,20.8431659 2.4,17.1993775 2.4,13.7 L2.4,13.7 L2.4,4.25000001 C2.4,3.80030801 2.54825416,3.55321772 2.87573588,3.225736 L2.87573588,3.225736 L2.96647941,3.13499247 L3.63713107,2.88482589 C6.5472284,1.83315647 9.04172563,1.4 12,1.4 Z M12,2.6 C9.00388079,2.6 6.52894862,3.06198734 3.51359721,4.21069264 L3.635,4.165 L3.61618769,4.1892109 C3.61093728,4.19665447 3.60738851,4.20309512 3.60499033,4.20930602 L3.60069653,4.2280227 L3.6,13.7 C3.6,16.6448616 7.43832134,20.1233403 12.1183282,22.4633437 L12.1183282,22.4633437 L11.994,22.4 L12.005,22.4 L12.1923925,22.3056752 C16.6272393,20.0221109 20.2327503,16.7329484 20.3943465,13.8970963 L20.3943465,13.8970963 L20.4,13.7 L20.3993035,4.2280227 C20.3980074,4.21497349 20.3943131,4.20409803 20.3838123,4.18921089 L20.3838123,4.18921089 L20.363,4.165 L19.9596758,4.01506276 C17.3519293,3.07209873 15.1163061,2.65348475 12.5235328,2.60484146 L12.5235328,2.60484146 Z M12,15.5 C12.45,15.5 12.75,15.8 12.75,16.25 C12.75,16.7 12.45,17 12,17 C11.55,17 11.25,16.7 11.25,16.25 C11.25,15.8 11.55,15.5 12,15.5 Z M12,6.49999999 C12.45,6.49999999 12.75,6.8 12.75,7.25 L12.75,7.25 L12.75,13.25 C12.75,13.7 12.45,14 12,14 C11.55,14 11.25,13.7 11.25,13.25 L11.25,13.25 L11.25,7.25 C11.25,6.79999998 11.55,6.49999999 12,6.49999999 Z" id="形状结合" fill="#AAADB8"></path>
            </g>
        </g>
    </g>
</svg>