<?xml version="1.0" encoding="UTF-8"?>
<svg width="24px" height="24px" viewBox="0 0 24 24" version="1.1" xmlns="http://www.w3.org/2000/svg" xmlns:xlink="http://www.w3.org/1999/xlink">
    <defs>
        <linearGradient x1="66.3703763%" y1="100%" x2="26.7442602%" y2="0%" id="linearGradient-1">
            <stop stop-color="#FF0808" offset="0%"></stop>
            <stop stop-color="#FFA3A3" offset="100%"></stop>
        </linearGradient>
        <linearGradient x1="19.9209137%" y1="2.03342007%" x2="75.9454448%" y2="91.6750193%" id="linearGradient-2">
            <stop stop-color="#FFFFFF" stop-opacity="0.263193837" offset="0%"></stop>
            <stop stop-color="#FFFFFF" stop-opacity="0.194585498" offset="99.6922705%"></stop>
            <stop stop-color="#FFFFFF" stop-opacity="0.0893247378" offset="100%"></stop>
        </linearGradient>
        <linearGradient x1="50%" y1="0%" x2="50%" y2="100%" id="linearGradient-3">
            <stop stop-color="#F5515F" offset="0%"></stop>
            <stop stop-color="#9F041B" offset="100%"></stop>
        </linearGradient>
        <linearGradient x1="50%" y1="0%" x2="50%" y2="100%" id="linearGradient-4">
            <stop stop-color="#F5515F" offset="0%"></stop>
            <stop stop-color="#9F041B" offset="100%"></stop>
        </linearGradient>
        <linearGradient x1="50%" y1="100%" x2="50%" y2="-34.8722458%" id="linearGradient-5">
            <stop stop-color="#FFEEB0" offset="0%"></stop>
            <stop stop-color="#FFD005" offset="100%"></stop>
        </linearGradient>
    </defs>
    <g id="设计规范" stroke="none" stroke-width="1" fill="none" fill-rule="evenodd">
        <g id="ICON" transform="translate(-644.000000, -273.000000)">
            <g id="风险复制-2备份-4" transform="translate(644.000000, 273.000000)">
                <rect id="矩形" fill="#000000" fill-rule="nonzero" opacity="0" x="0" y="0" width="24" height="24"></rect>
                <path d="M20.7,3.65 C17.55,2.45 15,2 12,2 C9,2 6.45000001,2.45 3.30000001,3.65 C3.15000001,3.80000001 3,3.94999999 3,4.25000001 L3,13.7 C3,17.6 8.54999999,21.35 11.85,23 L12.15,23 C15.45,21.35 21,17.6 21,13.7 L21,4.25000001 C21,3.95000001 20.85,3.80000001 20.7,3.65 Z" id="路径" fill="url(#linearGradient-1)"></path>
                <path d="M12,2 C15,2 17.55,2.45 20.7,3.65 C20.85,3.80000001 21,3.95000001 21,4.25000001 L21,4.25000001 L21,13.7 C21,17.6 15.45,21.35 12.15,23 L12.15,23 L11.85,23 C8.54999999,21.35 3,17.6 3,13.7 L3,13.7 L3,4.25000001 C3,3.94999999 3.15000001,3.80000001 3.30000001,3.65 C6.45000001,2.45 9,2 12,2 Z M12,4 C9.33333334,4 7.06666668,4.4 4.26666668,5.46666667 C4.13333334,5.60000001 4,5.73333333 4,6 L4,14.4 C4,17.8666667 8.93333332,21.2 11.8666667,22.6666667 L12.1333333,22.6666667 C15.0666667,21.2 20,17.8666667 20,14.4 L20,6 C20,5.73333335 19.8666667,5.60000001 19.7333333,5.46666667 C16.9333333,4.4 14.6666667,4 12,4 Z" id="形状结合" fill="url(#linearGradient-2)"></path>
                <g id="编组-11备份" opacity="0.2" transform="translate(12.000000, 6.000000)" fill-rule="nonzero">
                    <path d="M0,6.75000002 C0,7.20000001 0.399999984,7.5 1,7.5 C1.60000002,7.5 2,7.20000001 2,6.75000002 L2,0.750000009 C2,0.300000012 1.60000002,0 1,0 C0.399999984,0 0,0.299999991 0,0.750000009 L0,6.75000002 Z" id="路径" fill="url(#linearGradient-3)"></path>
                    <path d="M1,9.50000001 C0.400000011,9.50000001 0,9.89999999 0,10.5 C0,11.1 0.399999984,11.5 1,11.5 C1.60000002,11.5 2,11.1 2,10.5 C2,9.90000002 1.59999999,9.50000001 1,9.50000001 Z" id="路径" fill="url(#linearGradient-4)"></path>
                </g>
                <g id="编组-11" transform="translate(11.000000, 5.500000)" fill-rule="nonzero">
                    <path d="M0,6.75000002 C0,7.20000001 0.399999984,7.5 1,7.5 C1.60000002,7.5 2,7.20000001 2,6.75000002 L2,0.750000009 C2,0.300000012 1.60000002,0 1,0 C0.399999984,0 0,0.299999991 0,0.750000009 L0,6.75000002 Z" id="路径" fill="url(#linearGradient-5)"></path>
                    <path d="M1,9.50000001 C0.400000011,9.50000001 0,9.89999999 0,10.5 C0,11.1 0.399999984,11.5 1,11.5 C1.60000002,11.5 2,11.1 2,10.5 C2,9.90000002 1.59999999,9.50000001 1,9.50000001 Z" id="路径" fill="#FFF3C3"></path>
                </g>
            </g>
            <g id="风险复制-2备份-4" transform="translate(644.000000, 273.000000)">
                <rect id="矩形" fill="#000000" fill-rule="nonzero" opacity="0" x="0" y="0" width="24" height="24"></rect>
                <path d="M20.7,3.65 C17.55,2.45 15,2 12,2 C9,2 6.45000001,2.45 3.30000001,3.65 C3.15000001,3.80000001 3,3.94999999 3,4.25000001 L3,13.7 C3,17.6 8.54999999,21.35 11.85,23 L12.15,23 C15.45,21.35 21,17.6 21,13.7 L21,4.25000001 C21,3.95000001 20.85,3.80000001 20.7,3.65 Z" id="路径" fill="url(#linearGradient-1)"></path>
                <path d="M12,2 C15,2 17.55,2.45 20.7,3.65 C20.85,3.80000001 21,3.95000001 21,4.25000001 L21,4.25000001 L21,13.7 C21,17.6 15.45,21.35 12.15,23 L12.15,23 L11.85,23 C8.54999999,21.35 3,17.6 3,13.7 L3,13.7 L3,4.25000001 C3,3.94999999 3.15000001,3.80000001 3.30000001,3.65 C6.45000001,2.45 9,2 12,2 Z M12,4 C9.33333334,4 7.06666668,4.4 4.26666668,5.46666667 C4.13333334,5.60000001 4,5.73333333 4,6 L4,14.4 C4,17.8666667 8.93333332,21.2 11.8666667,22.6666667 L12.1333333,22.6666667 C15.0666667,21.2 20,17.8666667 20,14.4 L20,6 C20,5.73333335 19.8666667,5.60000001 19.7333333,5.46666667 C16.9333333,4.4 14.6666667,4 12,4 Z" id="形状结合" fill="url(#linearGradient-2)"></path>
                <g id="编组-11备份" opacity="0.2" transform="translate(12.000000, 6.000000)" fill-rule="nonzero">
                    <path d="M0,6.75000002 C0,7.20000001 0.399999984,7.5 1,7.5 C1.60000002,7.5 2,7.20000001 2,6.75000002 L2,0.750000009 C2,0.300000012 1.60000002,0 1,0 C0.399999984,0 0,0.299999991 0,0.750000009 L0,6.75000002 Z" id="路径" fill="url(#linearGradient-3)"></path>
                    <path d="M1,9.50000001 C0.400000011,9.50000001 0,9.89999999 0,10.5 C0,11.1 0.399999984,11.5 1,11.5 C1.60000002,11.5 2,11.1 2,10.5 C2,9.90000002 1.59999999,9.50000001 1,9.50000001 Z" id="路径" fill="url(#linearGradient-4)"></path>
                </g>
                <g id="编组-11" transform="translate(11.000000, 5.500000)" fill-rule="nonzero">
                    <path d="M0,6.75000002 C0,7.20000001 0.399999984,7.5 1,7.5 C1.60000002,7.5 2,7.20000001 2,6.75000002 L2,0.750000009 C2,0.300000012 1.60000002,0 1,0 C0.399999984,0 0,0.299999991 0,0.750000009 L0,6.75000002 Z" id="路径" fill="url(#linearGradient-5)"></path>
                    <path d="M1,9.50000001 C0.400000011,9.50000001 0,9.89999999 0,10.5 C0,11.1 0.399999984,11.5 1,11.5 C1.60000002,11.5 2,11.1 2,10.5 C2,9.90000002 1.59999999,9.50000001 1,9.50000001 Z" id="路径" fill="#FFF3C3"></path>
                </g>
            </g>
        </g>
    </g>
</svg>