<?xml version="1.0" encoding="UTF-8"?>
<svg width="24px" height="24px" viewBox="0 0 24 24" version="1.1" xmlns="http://www.w3.org/2000/svg" xmlns:xlink="http://www.w3.org/1999/xlink">
    <title>俄罗斯</title>
    <defs>
        <path d="M0.282166863,7.34118519 C1.19783741,3.55944618 4.30568312,0.704444879 8.15136264,0.11220208 C11.9970422,-0.480040719 15.8198681,1.30762246 17.8309182,4.63864028 C19.8419684,7.9696581 19.6434509,12.1851448 17.3282635,15.3124295 C15.0130761,18.4397143 11.0391701,19.8602103 7.26616686,18.9091852 C4.80388079,18.3048819 2.68341867,16.7452988 1.37303324,14.5748323 C0.0626478048,12.4043657 -0.329866767,9.80156119 0.282166863,7.34118519" id="path-1"></path>
    </defs>
    <g id="设计规范" stroke="none" stroke-width="1" fill="none" fill-rule="evenodd">
        <g id="ICON" transform="translate(-282.000000, -1030.000000)">
            <g id="俄罗斯" transform="translate(282.000000, 1030.000000)">
                <rect id="矩形" fill="#000000" fill-rule="nonzero" opacity="0" x="0" y="0" width="24" height="24"></rect>
                <g id="国旗" transform="translate(2.441833, 2.366815)">
                    <mask id="mask-2" fill="white">
                        <use xlink:href="#path-1"></use>
                    </mask>
                    <use id="蒙版" fill="#E72D14" fill-rule="nonzero" xlink:href="#path-1"></use>
                    <g id="俄罗斯" mask="url(#mask-2)" fill-rule="nonzero">
                        <g transform="translate(-0.441833, -0.366815)">
                            <rect id="矩形" fill="#000000" opacity="0" x="0" y="0" width="20" height="20"></rect>
                            <path d="M9.96734375,0 C15.4715039,0 19.934043,4.461875 19.934043,9.96671875 C19.934043,15.4708594 15.4715039,19.9333984 9.96734375,19.9333984 C4.46248047,19.9333984 0,15.4708594 0,9.96671875 C0,4.461875 4.46248047,0 9.96734375,0" id="路径" fill="#FFFFFF"></path>
                            <path d="M19.3142773,13.4333398 C19.7148828,12.3533594 19.934043,11.1860938 19.934043,9.96671875 C19.934043,8.74730469 19.7148633,7.58001953 19.3142773,6.50003906 L0.620371094,6.50003906 C0.219765625,7.58003906 0,8.74730469 0,9.96671875 C0,11.1860937 0.219765625,12.3533594 0.620371094,13.4333398 L9.96666016,14.2998828 L19.3142773,13.4333398 Z" id="路径" fill="#0A4FA2"></path>
                            <path d="M9.96734375,19.933418 C14.2521094,19.933418 17.9058984,17.229043 19.3142773,13.4333398 L0.620371094,13.4333398 C2.02810547,17.229043 5.68126953,19.933418 9.96734375,19.933418" id="路径" fill="#CB1428"></path>
                        </g>
                    </g>
                </g>
            </g>
        </g>
    </g>
</svg>