<?xml version="1.0" encoding="UTF-8"?>
<svg width="18px" height="18px" viewBox="0 0 18 18" version="1.1" xmlns="http://www.w3.org/2000/svg" xmlns:xlink="http://www.w3.org/1999/xlink">
    <g id="设计规范" stroke="none" stroke-width="1" fill="none" fill-rule="evenodd">
        <g id="ICON" transform="translate(-548.000000, -659.000000)" fill="#AAADB8">
            <g id="Search" transform="translate(548.000000, 659.000000)">
                <path d="M15.7432225,14.5746678 L11.9101869,10.7399811 C12.597264,9.80283914 12.9653285,8.66985687 12.9601966,7.5078238 C12.9470868,4.47453191 10.4937957,2.0175753 7.46064546,2.00005572 C6.00911211,1.99348811 4.61524037,2.56773992 3.58954543,3.59488409 C2.56385049,4.62202826 1.99153499,6.01674176 2.00009465,7.46832188 C2.01320448,10.5018899 4.46671947,12.9590704 7.50014583,12.97659 C8.66686688,12.9816469 9.80394376,12.6092716 10.741676,11.9150383 L10.745676,11.9120382 L14.5752117,15.7437247 C14.7822625,15.9609487 15.0907822,16.0488759 15.3812341,15.9734386 C15.6716859,15.8980012 15.8984313,15.6710527 15.9736171,15.380525 C16.0488029,15.0899973 15.9606152,14.7815407 15.7432225,14.5746678 L15.7432225,14.5746678 Z M7.49614579,11.8785365 C5.06953727,11.8645769 3.1067572,9.8990429 3.09610485,7.47232207 C3.08955538,6.31120838 3.54744544,5.19566166 4.3678469,4.37400702 C5.18824836,3.55235237 6.30306906,3.09278598 7.46414549,3.09760914 C9.89075401,3.11156881 11.8535341,5.07710278 11.8641864,7.50382361 C11.8707359,8.6649373 11.4128458,9.78048402 10.5924444,10.6021387 C9.77204292,11.4237933 8.65722223,11.8833597 7.49614579,11.8785365 Z"></path>
            </g>
        </g>
    </g>
</svg>