<?xml version="1.0" encoding="UTF-8"?>
<svg width="19px" height="18px" viewBox="0 0 19 18" version="1.1" xmlns="http://www.w3.org/2000/svg" xmlns:xlink="http://www.w3.org/1999/xlink">
    <g id="设计规范" stroke="none" stroke-width="1" fill="none" fill-rule="evenodd">
        <g id="ICON" transform="translate(-207.000000, -551.000000)" fill-rule="nonzero">
            <g id="编组" transform="translate(207.000000, 551.000000)">
                <rect id="矩形" fill="#000000" opacity="0" x="0" y="0" width="18" height="18"></rect>
                <path d="M9,17.25 C4.44375,17.25 0.750000006,13.55625 0.750000006,9 C0.750000006,4.44375 4.44375,0.750000006 9,0.750000006 C13.55625,0.750000006 17.25,4.44375 17.25,9 C17.25,13.55625 13.55625,17.25 9,17.25 Z M8.1135,11.51775 L5.45999999,8.865 C5.23836767,8.6584809 4.89299273,8.66457466 4.67878369,8.8787837 C4.46457465,9.09299274 4.4584809,9.43836769 4.66500001,9.66000001 L7.73625001,12.732 C7.73823505,12.7340149 7.7402351,12.736015 7.74225,12.738 L7.74675,12.74175 C7.86917972,12.8641294 8.04113862,12.9233219 8.21295495,12.9022294 C8.38477128,12.8811368 8.53730667,12.7821087 8.6265,12.63375 L14.55825,5.96100001 C14.6916887,5.81068051 14.7347966,5.60059087 14.6713355,5.40986982 C14.6078743,5.21914877 14.4474853,5.07677137 14.2505855,5.03636982 C14.0536856,4.99596826 13.8501887,5.06368051 13.71675,5.21400001 L8.1135,11.51775 Z" id="形状" fill="#3AB98E"></path>
            </g>
        </g>
    </g>
</svg>