<?xml version="1.0" encoding="UTF-8"?>
<svg width="24px" height="24px" viewBox="0 0 24 24" version="1.1" xmlns="http://www.w3.org/2000/svg" xmlns:xlink="http://www.w3.org/1999/xlink">
    <defs>
        <linearGradient x1="72.281901%" y1="100%" x2="18.3463542%" y2="0%" id="linearGradient-1">
            <stop stop-color="#FF0808" offset="0%"></stop>
            <stop stop-color="#FFA3A3" offset="100%"></stop>
        </linearGradient>
        <linearGradient x1="9.06172424%" y1="2.03342007%" x2="85.3123018%" y2="91.6750193%" id="linearGradient-2">
            <stop stop-color="#FFFFFF" stop-opacity="0.263193837" offset="0%"></stop>
            <stop stop-color="#FFFFFF" stop-opacity="0.194585498" offset="99.6922705%"></stop>
            <stop stop-color="#FFFFFF" stop-opacity="0.0893247378" offset="100%"></stop>
        </linearGradient>
        <linearGradient x1="50%" y1="0%" x2="50%" y2="100%" id="linearGradient-3">
            <stop stop-color="#F5515F" offset="0%"></stop>
            <stop stop-color="#9F041B" offset="100%"></stop>
        </linearGradient>
        <linearGradient x1="50%" y1="0%" x2="50%" y2="100%" id="linearGradient-4">
            <stop stop-color="#F5515F" offset="0%"></stop>
            <stop stop-color="#9F041B" offset="100%"></stop>
        </linearGradient>
        <linearGradient x1="50%" y1="100%" x2="50%" y2="-34.8722458%" id="linearGradient-5">
            <stop stop-color="#FFEEB0" offset="0%"></stop>
            <stop stop-color="#FFD005" offset="100%"></stop>
        </linearGradient>
        <linearGradient x1="50%" y1="-160.778044%" x2="50%" y2="100%" id="linearGradient-6">
            <stop stop-color="#FB4B62" offset="0%"></stop>
            <stop stop-color="#FCFE00" offset="100%"></stop>
        </linearGradient>
        <linearGradient x1="50%" y1="100%" x2="50%" y2="-34.8722458%" id="linearGradient-7">
            <stop stop-color="#FFEEB0" offset="0%"></stop>
            <stop stop-color="#FFD005" offset="100%"></stop>
        </linearGradient>
        <linearGradient x1="41.8257811%" y1="0%" x2="41.8257811%" y2="159.858476%" id="linearGradient-8">
            <stop stop-color="#FCFE00" offset="0%"></stop>
            <stop stop-color="#FB4B62" offset="100%"></stop>
        </linearGradient>
    </defs>
    <g id="设计规范" stroke="none" stroke-width="1" fill="none" fill-rule="evenodd">
        <g id="ICON" transform="translate(-500.000000, -273.000000)">
            <g id="编组-7备份" transform="translate(500.000000, 273.000000)">
                <rect id="矩形" fill="#D8D8D8" opacity="0" x="0" y="0" width="24" height="24"></rect>
                <circle id="椭圆形" fill="url(#linearGradient-1)" cx="12" cy="12" r="10"></circle>
                <path d="M12,2 C15.0157716,2 17.7197435,3.33497363 19.5532076,5.44621298 C17.7986683,3.92259424 15.5070759,3 13,3 C7.4771525,3 3,7.4771525 3,13 C3,15.5070759 3.92259424,17.7986683 5.44679242,19.553787 C3.33497363,17.7197435 2,15.0157716 2,12 C2,6.4771525 6.4771525,2 12,2 Z" id="形状结合" fill="url(#linearGradient-2)"></path>
                <g id="编组-8备份" opacity="0.2" transform="translate(7.000000, 7.000000)" fill-rule="nonzero">
                    <path d="M2.86201542,7.71316967 L2.87603339,7.69924332 C2.84599487,7.67139062 2.81195124,7.64552739 2.7839153,7.61369573 C1.07572532,5.89478612 1.07572532,3.10553695 2.7839153,1.38662735 C2.81395382,1.35678516 2.84599489,1.32893246 2.87603339,1.30107976 L2.86201542,1.28715341 C3.02422339,1.044437 2.99618743,0.710204586 2.7839153,0.495340893 C2.56964058,0.2804772 2.23921697,0.25461397 1.9969063,0.415761735 L1.99290116,0.411782776 C1.96286264,0.439635475 1.93082157,0.465498704 1.90078307,0.497330363 C-0.298035931,2.70764122 -0.298035931,6.29467134 1.90078307,8.5049822 C1.93082159,8.53482439 1.96286266,8.55869813 1.99290116,8.59052979 L1.9969063,8.58655083 C2.0209371,8.62236145 2.04697049,8.65419311 2.07500643,8.6840353 C2.31931966,8.93073065 2.71582798,8.93073065 2.96014121,8.6840353 C3.20445444,8.43733994 3.20445444,8.04143367 2.96014121,7.79473829 C2.93010269,7.76290664 2.89806162,7.73505394 2.86201542,7.71316967 Z" id="路径" fill="url(#linearGradient-3)"></path>
                    <path d="M11.6103466,7.71316967 L11.6243646,7.69924332 C11.5943261,7.67139062 11.5602824,7.64552739 11.5322465,7.61369573 C9.8240565,5.89478612 9.8240565,3.10553695 11.5322465,1.38662735 C11.562285,1.35678516 11.5943261,1.32893246 11.6243646,1.30107976 L11.6103466,1.28715341 C11.7725546,1.044437 11.7445186,0.710204586 11.5322465,0.495340893 C11.3179718,0.2804772 10.9875482,0.25461397 10.7452375,0.415761735 L10.7412323,0.411782776 C10.7111938,0.439635475 10.6791527,0.465498704 10.6491142,0.497330363 C8.45029525,2.70764122 8.45029525,6.29467134 10.6491142,8.5049822 C10.6791528,8.53482439 10.7111938,8.55869813 10.7412323,8.59052979 L10.7452375,8.58655083 C10.7692683,8.62236145 10.7953017,8.65419311 10.8233376,8.6840353 C11.0676508,8.93073065 11.4641592,8.93073065 11.7084724,8.6840353 C11.9527856,8.43733994 11.9527856,8.04143367 11.7084724,7.79473829 C11.6784339,7.76290664 11.6463928,7.73505394 11.6103466,7.71316967 Z" id="路径备份-5" fill="url(#linearGradient-3)" transform="translate(10.445854, 4.590416) scale(-1, 1) translate(-10.445854, -4.590416) "></path>
                    <path d="M6.05010271,2.61413572 C4.90463417,2.61413572 3.97944803,3.53526436 3.97944803,4.67125671 C3.97944803,5.80923854 4.90663673,6.72837771 6.05010271,6.72837771 C7.19557126,6.72837771 8.1207574,5.80724907 8.1207574,4.67125671 C8.1207574,3.53526436 7.19557126,2.61413572 6.05010271,2.61413572 Z" id="路径" fill="url(#linearGradient-4)"></path>
                </g>
                <g id="编组-8" transform="translate(6.000000, 7.063663)" fill-rule="nonzero">
                    <path d="M2.86201542,7.71316967 L2.87603339,7.69924332 C2.84599487,7.67139062 2.81195124,7.64552739 2.7839153,7.61369573 C1.07572532,5.89478612 1.07572532,3.10553695 2.7839153,1.38662735 C2.81395382,1.35678516 2.84599489,1.32893246 2.87603339,1.30107976 L2.86201542,1.28715341 C3.02422339,1.044437 2.99618743,0.710204586 2.7839153,0.495340893 C2.56964058,0.2804772 2.23921697,0.25461397 1.9969063,0.415761735 L1.99290116,0.411782776 C1.96286264,0.439635475 1.93082157,0.465498704 1.90078307,0.497330363 C-0.298035931,2.70764122 -0.298035931,6.29467134 1.90078307,8.5049822 C1.93082159,8.53482439 1.96286266,8.55869813 1.99290116,8.59052979 L1.9969063,8.58655083 C2.0209371,8.62236145 2.04697049,8.65419311 2.07500643,8.6840353 C2.31931966,8.93073065 2.71582798,8.93073065 2.96014121,8.6840353 C3.20445444,8.43733994 3.20445444,8.04143367 2.96014121,7.79473829 C2.93010269,7.76290664 2.89806162,7.73505394 2.86201542,7.71316967 Z" id="路径" fill="url(#linearGradient-5)"></path>
                    <path d="M11.6103466,7.71316967 L11.6243646,7.69924332 C11.5943261,7.67139062 11.5602824,7.64552739 11.5322465,7.61369573 C9.8240565,5.89478612 9.8240565,3.10553695 11.5322465,1.38662735 C11.562285,1.35678516 11.5943261,1.32893246 11.6243646,1.30107976 L11.6103466,1.28715341 C11.7725546,1.044437 11.7445186,0.710204586 11.5322465,0.495340893 C11.3179718,0.2804772 10.9875482,0.25461397 10.7452375,0.415761735 L10.7412323,0.411782776 C10.7111938,0.439635475 10.6791527,0.465498704 10.6491142,0.497330363 C8.45029525,2.70764122 8.45029525,6.29467134 10.6491142,8.5049822 C10.6791528,8.53482439 10.7111938,8.55869813 10.7412323,8.59052979 L10.7452375,8.58655083 C10.7692683,8.62236145 10.7953017,8.65419311 10.8233376,8.6840353 C11.0676508,8.93073065 11.4641592,8.93073065 11.7084724,8.6840353 C11.9527856,8.43733994 11.9527856,8.04143367 11.7084724,7.79473829 C11.6784339,7.76290664 11.6463928,7.73505394 11.6103466,7.71316967 Z" id="路径备份-5" fill="url(#linearGradient-6)" transform="translate(10.445854, 4.590416) scale(-1, 1) translate(-10.445854, -4.590416) "></path>
                    <path d="M6.05010271,2.61413572 C4.90463417,2.61413572 3.97944803,3.53526436 3.97944803,4.67125671 C3.97944803,5.80923854 4.90663673,6.72837771 6.05010271,6.72837771 C7.19557126,6.72837771 8.1207574,5.80724907 8.1207574,4.67125671 C8.1207574,3.53526436 7.19557126,2.61413572 6.05010271,2.61413572 Z" id="路径" fill="url(#linearGradient-7)"></path>
                </g>
                <polygon id="三角形" fill="url(#linearGradient-8)" fill-rule="nonzero" points="12 12 14 19 10 19"></polygon>
            </g>
            <g id="编组-7备份" transform="translate(500.000000, 273.000000)">
                <rect id="矩形" fill="#D8D8D8" opacity="0" x="0" y="0" width="24" height="24"></rect>
                <circle id="椭圆形" fill="url(#linearGradient-1)" cx="12" cy="12" r="10"></circle>
                <path d="M12,2 C15.0157716,2 17.7197435,3.33497363 19.5532076,5.44621298 C17.7986683,3.92259424 15.5070759,3 13,3 C7.4771525,3 3,7.4771525 3,13 C3,15.5070759 3.92259424,17.7986683 5.44679242,19.553787 C3.33497363,17.7197435 2,15.0157716 2,12 C2,6.4771525 6.4771525,2 12,2 Z" id="形状结合" fill="url(#linearGradient-2)"></path>
                <g id="编组-8备份" opacity="0.2" transform="translate(7.000000, 7.000000)" fill-rule="nonzero">
                    <path d="M2.86201542,7.71316967 L2.87603339,7.69924332 C2.84599487,7.67139062 2.81195124,7.64552739 2.7839153,7.61369573 C1.07572532,5.89478612 1.07572532,3.10553695 2.7839153,1.38662735 C2.81395382,1.35678516 2.84599489,1.32893246 2.87603339,1.30107976 L2.86201542,1.28715341 C3.02422339,1.044437 2.99618743,0.710204586 2.7839153,0.495340893 C2.56964058,0.2804772 2.23921697,0.25461397 1.9969063,0.415761735 L1.99290116,0.411782776 C1.96286264,0.439635475 1.93082157,0.465498704 1.90078307,0.497330363 C-0.298035931,2.70764122 -0.298035931,6.29467134 1.90078307,8.5049822 C1.93082159,8.53482439 1.96286266,8.55869813 1.99290116,8.59052979 L1.9969063,8.58655083 C2.0209371,8.62236145 2.04697049,8.65419311 2.07500643,8.6840353 C2.31931966,8.93073065 2.71582798,8.93073065 2.96014121,8.6840353 C3.20445444,8.43733994 3.20445444,8.04143367 2.96014121,7.79473829 C2.93010269,7.76290664 2.89806162,7.73505394 2.86201542,7.71316967 Z" id="路径" fill="url(#linearGradient-3)"></path>
                    <path d="M11.6103466,7.71316967 L11.6243646,7.69924332 C11.5943261,7.67139062 11.5602824,7.64552739 11.5322465,7.61369573 C9.8240565,5.89478612 9.8240565,3.10553695 11.5322465,1.38662735 C11.562285,1.35678516 11.5943261,1.32893246 11.6243646,1.30107976 L11.6103466,1.28715341 C11.7725546,1.044437 11.7445186,0.710204586 11.5322465,0.495340893 C11.3179718,0.2804772 10.9875482,0.25461397 10.7452375,0.415761735 L10.7412323,0.411782776 C10.7111938,0.439635475 10.6791527,0.465498704 10.6491142,0.497330363 C8.45029525,2.70764122 8.45029525,6.29467134 10.6491142,8.5049822 C10.6791528,8.53482439 10.7111938,8.55869813 10.7412323,8.59052979 L10.7452375,8.58655083 C10.7692683,8.62236145 10.7953017,8.65419311 10.8233376,8.6840353 C11.0676508,8.93073065 11.4641592,8.93073065 11.7084724,8.6840353 C11.9527856,8.43733994 11.9527856,8.04143367 11.7084724,7.79473829 C11.6784339,7.76290664 11.6463928,7.73505394 11.6103466,7.71316967 Z" id="路径备份-5" fill="url(#linearGradient-3)" transform="translate(10.445854, 4.590416) scale(-1, 1) translate(-10.445854, -4.590416) "></path>
                    <path d="M6.05010271,2.61413572 C4.90463417,2.61413572 3.97944803,3.53526436 3.97944803,4.67125671 C3.97944803,5.80923854 4.90663673,6.72837771 6.05010271,6.72837771 C7.19557126,6.72837771 8.1207574,5.80724907 8.1207574,4.67125671 C8.1207574,3.53526436 7.19557126,2.61413572 6.05010271,2.61413572 Z" id="路径" fill="url(#linearGradient-4)"></path>
                </g>
                <g id="编组-8" transform="translate(6.000000, 7.063663)" fill-rule="nonzero">
                    <path d="M2.86201542,7.71316967 L2.87603339,7.69924332 C2.84599487,7.67139062 2.81195124,7.64552739 2.7839153,7.61369573 C1.07572532,5.89478612 1.07572532,3.10553695 2.7839153,1.38662735 C2.81395382,1.35678516 2.84599489,1.32893246 2.87603339,1.30107976 L2.86201542,1.28715341 C3.02422339,1.044437 2.99618743,0.710204586 2.7839153,0.495340893 C2.56964058,0.2804772 2.23921697,0.25461397 1.9969063,0.415761735 L1.99290116,0.411782776 C1.96286264,0.439635475 1.93082157,0.465498704 1.90078307,0.497330363 C-0.298035931,2.70764122 -0.298035931,6.29467134 1.90078307,8.5049822 C1.93082159,8.53482439 1.96286266,8.55869813 1.99290116,8.59052979 L1.9969063,8.58655083 C2.0209371,8.62236145 2.04697049,8.65419311 2.07500643,8.6840353 C2.31931966,8.93073065 2.71582798,8.93073065 2.96014121,8.6840353 C3.20445444,8.43733994 3.20445444,8.04143367 2.96014121,7.79473829 C2.93010269,7.76290664 2.89806162,7.73505394 2.86201542,7.71316967 Z" id="路径" fill="url(#linearGradient-5)"></path>
                    <path d="M11.6103466,7.71316967 L11.6243646,7.69924332 C11.5943261,7.67139062 11.5602824,7.64552739 11.5322465,7.61369573 C9.8240565,5.89478612 9.8240565,3.10553695 11.5322465,1.38662735 C11.562285,1.35678516 11.5943261,1.32893246 11.6243646,1.30107976 L11.6103466,1.28715341 C11.7725546,1.044437 11.7445186,0.710204586 11.5322465,0.495340893 C11.3179718,0.2804772 10.9875482,0.25461397 10.7452375,0.415761735 L10.7412323,0.411782776 C10.7111938,0.439635475 10.6791527,0.465498704 10.6491142,0.497330363 C8.45029525,2.70764122 8.45029525,6.29467134 10.6491142,8.5049822 C10.6791528,8.53482439 10.7111938,8.55869813 10.7412323,8.59052979 L10.7452375,8.58655083 C10.7692683,8.62236145 10.7953017,8.65419311 10.8233376,8.6840353 C11.0676508,8.93073065 11.4641592,8.93073065 11.7084724,8.6840353 C11.9527856,8.43733994 11.9527856,8.04143367 11.7084724,7.79473829 C11.6784339,7.76290664 11.6463928,7.73505394 11.6103466,7.71316967 Z" id="路径备份-5" fill="url(#linearGradient-6)" transform="translate(10.445854, 4.590416) scale(-1, 1) translate(-10.445854, -4.590416) "></path>
                    <path d="M6.05010271,2.61413572 C4.90463417,2.61413572 3.97944803,3.53526436 3.97944803,4.67125671 C3.97944803,5.80923854 4.90663673,6.72837771 6.05010271,6.72837771 C7.19557126,6.72837771 8.1207574,5.80724907 8.1207574,4.67125671 C8.1207574,3.53526436 7.19557126,2.61413572 6.05010271,2.61413572 Z" id="路径" fill="url(#linearGradient-7)"></path>
                </g>
                <polygon id="三角形" fill="url(#linearGradient-8)" fill-rule="nonzero" points="12 12 14 19 10 19"></polygon>
            </g>
        </g>
    </g>
</svg>