<?xml version="1.0" encoding="UTF-8"?>
<svg width="18px" height="18px" viewBox="0 0 18 18" version="1.1" xmlns="http://www.w3.org/2000/svg" xmlns:xlink="http://www.w3.org/1999/xlink">
    <g id="设计规范" stroke="none" stroke-width="1" fill="none" fill-rule="evenodd">
        <g id="ICON" transform="translate(-962.000000, -551.000000)" fill-rule="nonzero">
            <g id="编组-6" transform="translate(962.000000, 551.000000)">
                <rect id="矩形" fill="#000000" opacity="0" x="0" y="0" width="18" height="18"></rect>
                <path d="M15.7818371,8.01477522 L12.8676723,10.8820558 L13.5440067,14.8602695 C13.5878977,15.1156401 13.475509,15.3690187 13.253054,15.520977 C13.0252799,15.6739366 12.7180363,15.6902275 12.475633,15.5625422 L8.99985173,13.7180791 L5.52639618,15.5618747 C5.28133342,15.6908915 4.97375603,15.6735994 4.74897523,15.5219748 C4.52419443,15.368685 4.41180578,15.1149761 4.45569673,14.8596055 L5.13236489,10.8820593 L2.21853382,8.01477875 C2.03365644,7.8332249 1.97047779,7.57086996 2.05327438,7.33179377 C2.1393945,7.08706125 2.35985402,6.91082996 2.63018753,6.8719243 L6.610727,6.28769658 L8.34313173,2.74574333 C8.46084294,2.50500187 8.71887306,2.34938628 9.00018195,2.34938628 C9.28248859,2.34938628 9.54051873,2.50467163 9.65822994,2.74541309 L11.3903009,6.28736634 L15.3698461,6.87026605 C15.6398494,6.91016947 15.8613032,7.08706477 15.947093,7.33046576 C16.0298932,7.57086643 15.9667145,7.83289111 15.7818371,8.01477522 Z" id="路径" stroke="#AAADB8"></path>
            </g>
        </g>
    </g>
</svg>