<?xml version="1.0" encoding="UTF-8"?>
<svg width="18px" height="18px" viewBox="0 0 18 18" version="1.1" xmlns="http://www.w3.org/2000/svg" xmlns:xlink="http://www.w3.org/1999/xlink">
    <g id="设计规范" stroke="none" stroke-width="1" fill="none" fill-rule="evenodd">
        <g id="ICON" transform="translate(-1017.000000, -551.000000)" fill-rule="nonzero">
            <g id="收藏复制-2" transform="translate(1017.000000, 551.000000)">
                <rect id="矩形" fill="#000000" opacity="0" x="0" y="0" width="18" height="18"></rect>
                <path d="M16.5742175,7.11100048 C16.4056345,6.63284459 15.9810099,6.28869081 15.4659439,6.21287503 L11.8328817,5.68051682 L10.2550983,2.4537893 C10.026994,1.98660528 9.53420546,1.68468068 8.99951799,1.68468068 C8.46616554,1.68468068 7.97404099,1.98660528 7.74526915,2.4537893 L6.16681825,5.68085057 L2.53408983,6.21387278 C2.01869005,6.28802329 1.59373521,6.63184331 1.42515223,7.11266222 C1.25689952,7.5981362 1.38225904,8.1255056 1.75201383,8.48894356 L4.41845286,11.1124894 L3.79997453,14.7478809 C3.71318688,15.2546346 3.9386317,15.7743556 4.37588993,16.0726194 C4.80350431,16.3602451 5.37676017,16.3918327 5.83729363,16.1497632 L9.00017849,14.4708933 L12.1650589,16.1500935 C12.369888,16.2581608 12.5996576,16.3153564 12.8300877,16.3153564 C13.1140561,16.3153564 13.3890481,16.2315621 13.6267928,16.0716252 C14.0620555,15.7746859 14.2871666,15.2552986 14.2003824,14.7485449 L13.5822343,11.1128232 L16.2490071,8.48927733 C16.6181119,8.12517186 16.7434715,7.59780246 16.5742175,7.11100048 Z" id="路径" fill="#FF7D00"></path>
                <path d="M15.7818371,8.01477522 L12.8676723,10.8820558 L13.5440067,14.8602695 C13.5878977,15.1156401 13.475509,15.3690187 13.253054,15.520977 C13.0252799,15.6739366 12.7180363,15.6902275 12.475633,15.5625422 L8.99985173,13.7180791 L5.52639618,15.5618747 C5.28133342,15.6908915 4.97375603,15.6735994 4.74897523,15.5219748 C4.52419443,15.368685 4.41180578,15.1149761 4.45569673,14.8596055 L5.13236489,10.8820593 L2.21853382,8.01477875 C2.03365644,7.8332249 1.97047779,7.57086996 2.05327438,7.33179377 C2.1393945,7.08706125 2.35985402,6.91082996 2.63018753,6.8719243 L6.610727,6.28769658 L8.34313173,2.74574333 C8.46084294,2.50500187 8.71887306,2.34938628 9.00018195,2.34938628 C9.28248859,2.34938628 9.54051873,2.50467163 9.65822994,2.74541309 L11.3903009,6.28736634 L15.3698461,6.87026605 C15.6398494,6.91016947 15.8613032,7.08706477 15.947093,7.33046576 C16.0298932,7.57086643 15.9667145,7.83289111 15.7818371,8.01477522 Z" id="路径" fill="#FF7D00"></path>
                <path d="M8.95563054,6.3166211 C8.27464108,6.3166211 7.72598846,6.52444348 7.32564037,6.93376791 C6.65728453,7.61708665 6.67158342,8.60964455 6.67258119,8.65187374 C6.67657223,8.8327636 6.82453949,8.97640956 7.00476534,8.97640956 C7.00676086,8.97640956 7.00908662,8.97640956 7.01108214,8.97640956 C7.19429776,8.97308603 7.33993926,8.82145798 7.33727972,8.63824235 C7.33727972,8.63059402 7.33129316,7.87545404 7.80412999,7.39563288 C8.0744635,7.12097457 8.46217798,6.98198365 8.95529677,6.98198365 C9.13884615,6.98198365 9.28781118,6.83301864 9.28781118,6.64946924 C9.28781118,6.46591987 9.13917994,6.3166211 8.95563054,6.3166211 Z" id="路径" fill="#FF7D00"></path>
            </g>
        </g>
    </g>
</svg>