<?xml version="1.0" encoding="UTF-8"?>
<svg width="24px" height="24px" viewBox="0 0 24 24" version="1.1" xmlns="http://www.w3.org/2000/svg" xmlns:xlink="http://www.w3.org/1999/xlink">
    <defs>
        <linearGradient x1="11.7361222%" y1="19.3567071%" x2="83.7571153%" y2="77.0759415%" id="linearGradient-1">
            <stop stop-color="#DAE2EA" offset="0%"></stop>
            <stop stop-color="#A0A1A2" offset="100%"></stop>
        </linearGradient>
    </defs>
    <g id="设计规范" stroke="none" stroke-width="1" fill="none" fill-rule="evenodd">
        <g id="ICON" transform="translate(-572.000000, -309.000000)">
            <g id="信号管理复制备份-3" transform="translate(572.000000, 309.000000)">
                <rect id="矩形" fill="#5F6472" fill-rule="nonzero" opacity="0" x="0" y="0" width="24" height="24"></rect>
                <path d="M18.5226328,17.8666667 L5.63579676,17.8666667 C4.22240185,17.8666667 3.1,16.6291667 3.1,15.0708333 L3.1,7.41666667 C3.1,5.85833335 4.22240185,4.62083333 5.63579676,4.62083333 L18.5642032,4.62083333 C19.9775982,4.62083333 21.1,5.85833333 21.1,7.41666667 L21.1,15.0708333 C21.1,16.6291667 19.9360277,17.8666667 18.5226328,17.8666667 Z" id="路径" fill="url(#linearGradient-1)"></path>
                <path d="M18.5226328,17.8666667 L5.63579676,17.8666667 C4.22240185,17.8666667 3.1,16.6291667 3.1,15.0708333 L3.1,7.41666667 C3.1,5.85833335 4.22240185,4.62083333 5.63579676,4.62083333 L18.5642032,4.62083333 C19.9775982,4.62083333 21.1,5.85833333 21.1,7.41666667 L21.1,15.0708333 C21.1,16.6291667 19.9360277,17.8666667 18.5226328,17.8666667 Z" id="路径" stroke-opacity="0.352100317" stroke="#FFFFFF" stroke-width="1.3"></path>
                <path d="M17.0633171,15.4583415 C17.0633171,15.6038049 17.1821463,15.7246829 17.3296585,15.7246829 L18.016,15.7246829 C18.52,15.7246829 18.9297561,15.2800976 18.9297561,14.7310244 L18.9297561,12.1331707 C18.9297561,12.0594146 18.8682927,12 18.7965854,12 L18.5281951,12 C18.454439,12 18.3950244,12.0594146 18.3950244,12.1331707 L18.3950244,14.6613658 C18.3950244,15.0608781 18.2065366,15.1940488 17.8623415,15.1940488 L17.3296585,15.1940488 C17.1821463,15.192 17.0633171,15.3087805 17.0633171,15.4583415 L17.0633171,15.4583415 Z" id="路径" fill="#FFFFFF" fill-rule="nonzero"></path>
                <path d="M16,15.4583415 C16,15.6038049 16.1188293,15.7246829 16.2663415,15.7246829 C16.4138537,15.7246829 16.5326829,15.6058537 16.5326829,15.4583415 C16.5326829,15.3108293 16.4138537,15.192 16.2663415,15.192 C16.1188293,15.192 16,15.3087805 16,15.4583415 Z" id="路径" fill="#FFFFFF" fill-rule="nonzero"></path>
                <path d="M16.8125,21.075 L7.1875,21.075 C6.82083333,21.075 6.5,20.7541667 6.5,20.3875 C6.5,20.0208333 6.82083333,19.7 7.1875,19.7 L16.8583333,19.7 C17.225,19.7 17.5458333,20.0208333 17.5458333,20.3875 C17.5458333,20.7541667 17.225,21.075 16.8125,21.075 Z" id="路径" fill="#9B9FAA" fill-rule="nonzero"></path>
            </g>
            <g id="信号管理复制备份-3" transform="translate(572.000000, 309.000000)">
                <rect id="矩形" fill="#5F6472" fill-rule="nonzero" opacity="0" x="0" y="0" width="24" height="24"></rect>
                <path d="M18.5226328,17.8666667 L5.63579676,17.8666667 C4.22240185,17.8666667 3.1,16.6291667 3.1,15.0708333 L3.1,7.41666667 C3.1,5.85833335 4.22240185,4.62083333 5.63579676,4.62083333 L18.5642032,4.62083333 C19.9775982,4.62083333 21.1,5.85833333 21.1,7.41666667 L21.1,15.0708333 C21.1,16.6291667 19.9360277,17.8666667 18.5226328,17.8666667 Z" id="路径" fill="url(#linearGradient-1)"></path>
                <path d="M18.5226328,17.8666667 L5.63579676,17.8666667 C4.22240185,17.8666667 3.1,16.6291667 3.1,15.0708333 L3.1,7.41666667 C3.1,5.85833335 4.22240185,4.62083333 5.63579676,4.62083333 L18.5642032,4.62083333 C19.9775982,4.62083333 21.1,5.85833333 21.1,7.41666667 L21.1,15.0708333 C21.1,16.6291667 19.9360277,17.8666667 18.5226328,17.8666667 Z" id="路径" stroke-opacity="0.352100317" stroke="#FFFFFF" stroke-width="1.3"></path>
                <path d="M17.0633171,15.4583415 C17.0633171,15.6038049 17.1821463,15.7246829 17.3296585,15.7246829 L18.016,15.7246829 C18.52,15.7246829 18.9297561,15.2800976 18.9297561,14.7310244 L18.9297561,12.1331707 C18.9297561,12.0594146 18.8682927,12 18.7965854,12 L18.5281951,12 C18.454439,12 18.3950244,12.0594146 18.3950244,12.1331707 L18.3950244,14.6613658 C18.3950244,15.0608781 18.2065366,15.1940488 17.8623415,15.1940488 L17.3296585,15.1940488 C17.1821463,15.192 17.0633171,15.3087805 17.0633171,15.4583415 L17.0633171,15.4583415 Z" id="路径" fill="#FFFFFF" fill-rule="nonzero"></path>
                <path d="M16,15.4583415 C16,15.6038049 16.1188293,15.7246829 16.2663415,15.7246829 C16.4138537,15.7246829 16.5326829,15.6058537 16.5326829,15.4583415 C16.5326829,15.3108293 16.4138537,15.192 16.2663415,15.192 C16.1188293,15.192 16,15.3087805 16,15.4583415 Z" id="路径" fill="#FFFFFF" fill-rule="nonzero"></path>
                <path d="M16.8125,21.075 L7.1875,21.075 C6.82083333,21.075 6.5,20.7541667 6.5,20.3875 C6.5,20.0208333 6.82083333,19.7 7.1875,19.7 L16.8583333,19.7 C17.225,19.7 17.5458333,20.0208333 17.5458333,20.3875 C17.5458333,20.7541667 17.225,21.075 16.8125,21.075 Z" id="路径" fill="#9B9FAA" fill-rule="nonzero"></path>
            </g>
        </g>
    </g>
</svg>