<?xml version="1.0" encoding="UTF-8"?>
<svg width="24px" height="24px" viewBox="0 0 24 24" version="1.1" xmlns="http://www.w3.org/2000/svg" xmlns:xlink="http://www.w3.org/1999/xlink">
    <title>v备份 18</title>
    <defs>
        <linearGradient x1="11.7361222%" y1="19.3567071%" x2="83.7571153%" y2="77.0759415%" id="linearGradient-1">
            <stop stop-color="#DAE2EA" offset="0%"></stop>
            <stop stop-color="#A0A1A2" offset="100%"></stop>
        </linearGradient>
    </defs>
    <g id="设计规范" stroke="none" stroke-width="1" fill="none" fill-rule="evenodd">
        <g id="ICON" transform="translate(-572.000000, -363.000000)">
            <g id="信号管理复制备份-6" transform="translate(572.000000, 363.000000)">
                <rect id="矩形" fill="#5F6472" fill-rule="nonzero" opacity="0" x="0" y="0" width="24" height="24"></rect>
                <path d="M18.5226328,17.8666667 L5.63579676,17.8666667 C4.22240185,17.8666667 3.1,16.6291667 3.1,15.0708333 L3.1,7.41666667 C3.1,5.85833335 4.22240185,4.62083333 5.63579676,4.62083333 L18.5642032,4.62083333 C19.9775982,4.62083333 21.1,5.85833333 21.1,7.41666667 L21.1,15.0708333 C21.1,16.6291667 19.9360277,17.8666667 18.5226328,17.8666667 Z" id="路径" fill="url(#linearGradient-1)"></path>
                <path d="M18.5226328,17.8666667 L5.63579676,17.8666667 C4.22240185,17.8666667 3.1,16.6291667 3.1,15.0708333 L3.1,7.41666667 C3.1,5.85833335 4.22240185,4.62083333 5.63579676,4.62083333 L18.5642032,4.62083333 C19.9775982,4.62083333 21.1,5.85833333 21.1,7.41666667 L21.1,15.0708333 C21.1,16.6291667 19.9360277,17.8666667 18.5226328,17.8666667 Z" id="路径" stroke-opacity="0.352100317" stroke="#FFFFFF" stroke-width="1.3"></path>
                <path d="M16.8125,21.075 L7.1875,21.075 C6.82083333,21.075 6.5,20.7541667 6.5,20.3875 C6.5,20.0208333 6.82083333,19.7 7.1875,19.7 L16.8583333,19.7 C17.225,19.7 17.5458333,20.0208333 17.5458333,20.3875 C17.5458333,20.7541667 17.225,21.075 16.8125,21.075 Z" id="路径" fill="#9B9FAA" fill-rule="nonzero"></path>
                <rect id="矩形" fill="#2D3D5C" fill-rule="nonzero" x="6.5" y="8" width="11" height="2" rx="1"></rect>
                <rect id="矩形备份-9" fill="#2D3D5C" fill-rule="nonzero" x="6.5" y="12" width="8" height="2" rx="1"></rect>
            </g>
            <g id="信号管理复制备份-6" transform="translate(572.000000, 363.000000)">
                <rect id="矩形" fill="#5F6472" fill-rule="nonzero" opacity="0" x="0" y="0" width="24" height="24"></rect>
                <path d="M18.5226328,17.8666667 L5.63579676,17.8666667 C4.22240185,17.8666667 3.1,16.6291667 3.1,15.0708333 L3.1,7.41666667 C3.1,5.85833335 4.22240185,4.62083333 5.63579676,4.62083333 L18.5642032,4.62083333 C19.9775982,4.62083333 21.1,5.85833333 21.1,7.41666667 L21.1,15.0708333 C21.1,16.6291667 19.9360277,17.8666667 18.5226328,17.8666667 Z" id="路径" fill="url(#linearGradient-1)"></path>
                <path d="M18.5226328,17.8666667 L5.63579676,17.8666667 C4.22240185,17.8666667 3.1,16.6291667 3.1,15.0708333 L3.1,7.41666667 C3.1,5.85833335 4.22240185,4.62083333 5.63579676,4.62083333 L18.5642032,4.62083333 C19.9775982,4.62083333 21.1,5.85833333 21.1,7.41666667 L21.1,15.0708333 C21.1,16.6291667 19.9360277,17.8666667 18.5226328,17.8666667 Z" id="路径" stroke-opacity="0.352100317" stroke="#FFFFFF" stroke-width="1.3"></path>
                <path d="M16.8125,21.075 L7.1875,21.075 C6.82083333,21.075 6.5,20.7541667 6.5,20.3875 C6.5,20.0208333 6.82083333,19.7 7.1875,19.7 L16.8583333,19.7 C17.225,19.7 17.5458333,20.0208333 17.5458333,20.3875 C17.5458333,20.7541667 17.225,21.075 16.8125,21.075 Z" id="路径" fill="#9B9FAA" fill-rule="nonzero"></path>
                <rect id="矩形" fill="#2D3D5C" fill-rule="nonzero" x="6.5" y="8" width="11" height="2" rx="1"></rect>
                <rect id="矩形备份-9" fill="#2D3D5C" fill-rule="nonzero" x="6.5" y="12" width="8" height="2" rx="1"></rect>
            </g>
        </g>
    </g>
</svg>