<?xml version="1.0" encoding="UTF-8"?>
<svg width="24px" height="24px" viewBox="0 0 24 24" version="1.1" xmlns="http://www.w3.org/2000/svg" xmlns:xlink="http://www.w3.org/1999/xlink">
    <title>ICON备份 25</title>
    <g id="设计规范" stroke="none" stroke-width="1" fill="none" fill-rule="evenodd">
        <g id="ICON" transform="translate(-572.000000, -399.000000)" fill-rule="nonzero">
            <g id="信号管理复制备份-3" transform="translate(572.000000, 399.000000)">
                <rect id="矩形" fill="#5F6472" opacity="0" x="0" y="0" width="24" height="24"></rect>
                <path d="M16.8583333,19.7 C17.225,19.7 17.5458333,20.0208333 17.5458333,20.3875 C17.5458333,20.7541667 17.225,21.075 16.8125,21.075 L7.1875,21.075 C6.82083333,21.075 6.5,20.7541667 6.5,20.3875 C6.5,20.0208333 6.82083333,19.7 7.1875,19.7 L16.8583333,19.7 Z M18.5642032,4.02083333 C20.3227437,4.02083333 21.7,5.53932216 21.7,7.41666667 L21.7,7.41666667 L21.7,15.0708333 C21.7,16.9422262 20.2859217,18.4666667 18.5226328,18.4666667 L18.5226328,18.4666667 L5.63579676,18.4666667 C3.8772563,18.4666667 2.5,16.9481778 2.5,15.0708333 L2.5,15.0708333 L2.5,7.41666667 C2.5,5.53932218 3.8772563,4.02083333 5.63579676,4.02083333 L5.63579676,4.02083333 Z M18.5642032,5.22083333 L5.63579676,5.22083333 C4.5675474,5.22083333 3.7,6.17734451 3.7,7.41666667 L3.7,7.41666667 L3.7,15.0708333 C3.7,16.3101555 4.56754739,17.2666667 5.63579676,17.2666667 L5.63579676,17.2666667 L18.5226328,17.2666667 C19.602195,17.2666667 20.5,16.2987923 20.5,15.0708333 L20.5,15.0708333 L20.5,7.41666667 C20.5,6.17734449 19.6324526,5.22083333 18.5642032,5.22083333 L18.5642032,5.22083333 Z M18.7965854,12 C18.8682927,12 18.9297561,12.0594146 18.9297561,12.1331707 L18.9297561,12.1331707 L18.9297561,14.7310244 C18.9297561,15.2800976 18.52,15.7246829 18.016,15.7246829 L18.016,15.7246829 L17.3296585,15.7246829 C17.1821463,15.7246829 17.0633171,15.6038049 17.0633171,15.4583415 C17.0633171,15.3087805 17.1821463,15.192 17.3296585,15.1940488 L17.3296585,15.1940488 L17.8623415,15.1940488 C18.2065366,15.1940488 18.3950244,15.0608781 18.3950244,14.6613658 L18.3950244,14.6613658 L18.3950244,12.1331707 C18.3950244,12.0594146 18.454439,12 18.5281951,12 L18.5281951,12 Z M16.2663415,15.192 C16.4138537,15.192 16.5326829,15.3108293 16.5326829,15.4583415 C16.5326829,15.6058537 16.4138537,15.7246829 16.2663415,15.7246829 C16.1188293,15.7246829 16,15.6038049 16,15.4583415 C16,15.3087805 16.1188293,15.192 16.2663415,15.192 Z" id="形状结合" fill="#AAADB8"></path>
            </g>
            <g id="信号管理复制备份-3" transform="translate(572.000000, 399.000000)">
                <rect id="矩形" fill="#5F6472" opacity="0" x="0" y="0" width="24" height="24"></rect>
                <path d="M16.8583333,19.7 C17.225,19.7 17.5458333,20.0208333 17.5458333,20.3875 C17.5458333,20.7541667 17.225,21.075 16.8125,21.075 L7.1875,21.075 C6.82083333,21.075 6.5,20.7541667 6.5,20.3875 C6.5,20.0208333 6.82083333,19.7 7.1875,19.7 L16.8583333,19.7 Z M18.5642032,4.02083333 C20.3227437,4.02083333 21.7,5.53932216 21.7,7.41666667 L21.7,7.41666667 L21.7,15.0708333 C21.7,16.9422262 20.2859217,18.4666667 18.5226328,18.4666667 L18.5226328,18.4666667 L5.63579676,18.4666667 C3.8772563,18.4666667 2.5,16.9481778 2.5,15.0708333 L2.5,15.0708333 L2.5,7.41666667 C2.5,5.53932218 3.8772563,4.02083333 5.63579676,4.02083333 L5.63579676,4.02083333 Z M18.5642032,5.22083333 L5.63579676,5.22083333 C4.5675474,5.22083333 3.7,6.17734451 3.7,7.41666667 L3.7,7.41666667 L3.7,15.0708333 C3.7,16.3101555 4.56754739,17.2666667 5.63579676,17.2666667 L5.63579676,17.2666667 L18.5226328,17.2666667 C19.602195,17.2666667 20.5,16.2987923 20.5,15.0708333 L20.5,15.0708333 L20.5,7.41666667 C20.5,6.17734449 19.6324526,5.22083333 18.5642032,5.22083333 L18.5642032,5.22083333 Z M18.7965854,12 C18.8682927,12 18.9297561,12.0594146 18.9297561,12.1331707 L18.9297561,12.1331707 L18.9297561,14.7310244 C18.9297561,15.2800976 18.52,15.7246829 18.016,15.7246829 L18.016,15.7246829 L17.3296585,15.7246829 C17.1821463,15.7246829 17.0633171,15.6038049 17.0633171,15.4583415 C17.0633171,15.3087805 17.1821463,15.192 17.3296585,15.1940488 L17.3296585,15.1940488 L17.8623415,15.1940488 C18.2065366,15.1940488 18.3950244,15.0608781 18.3950244,14.6613658 L18.3950244,14.6613658 L18.3950244,12.1331707 C18.3950244,12.0594146 18.454439,12 18.5281951,12 L18.5281951,12 Z M16.2663415,15.192 C16.4138537,15.192 16.5326829,15.3108293 16.5326829,15.4583415 C16.5326829,15.6058537 16.4138537,15.7246829 16.2663415,15.7246829 C16.1188293,15.7246829 16,15.6038049 16,15.4583415 C16,15.3087805 16.1188293,15.192 16.2663415,15.192 Z" id="形状结合" fill="#AAADB8"></path>
            </g>
        </g>
    </g>
</svg>