<?xml version="1.0" encoding="UTF-8"?>
<svg width="24px" height="24px" viewBox="0 0 24 24" version="1.1" xmlns="http://www.w3.org/2000/svg" xmlns:xlink="http://www.w3.org/1999/xlink">
    <title>瑞典</title>
    <defs>
        <path d="M0.282166863,7.34118519 C1.19783741,3.55944618 4.30568312,0.704444879 8.15136264,0.11220208 C11.9970422,-0.480040719 15.8198681,1.30762246 17.8309182,4.63864028 C19.8419684,7.9696581 19.6434509,12.1851448 17.3282635,15.3124295 C15.0130761,18.4397143 11.0391701,19.8602103 7.26616686,18.9091852 C4.80388079,18.3048819 2.68341867,16.7452988 1.37303324,14.5748323 C0.0626478048,12.4043657 -0.329866767,9.80156119 0.282166863,7.34118519" id="path-1"></path>
    </defs>
    <g id="设计规范" stroke="none" stroke-width="1" fill="none" fill-rule="evenodd">
        <g id="ICON" transform="translate(-216.000000, -1078.000000)">
            <g id="瑞典" transform="translate(216.000000, 1078.000000)">
                <rect id="矩形" fill="#000000" fill-rule="nonzero" opacity="0" x="0" y="0" width="24" height="24"></rect>
                <g id="国旗" transform="translate(2.441833, 2.366815)">
                    <mask id="mask-2" fill="white">
                        <use xlink:href="#path-1"></use>
                    </mask>
                    <use id="蒙版" fill="#E72D14" fill-rule="nonzero" xlink:href="#path-1"></use>
                    <g id="瑞典" mask="url(#mask-2)" fill-rule="nonzero">
                        <g transform="translate(-0.441833, -0.366815)">
                            <rect id="矩形" fill="#000000" opacity="0" x="0" y="0" width="19.9804878" height="20"></rect>
                            <path d="M9.99038049,0 C15.508722,0 19.980761,4.47685547 19.980761,9.99992188 C19.980761,15.5231641 15.508722,20 9.99038049,20 C4.47319024,20 0,15.5231445 0,9.99992188 C0,4.47685547 4.47317073,0 9.99038049,0" id="路径" fill="#FFDA44"></path>
                            <path d="M7.81900488,8.69585938 L19.8963902,8.69585938 C19.2573659,3.78876953 15.0664195,0 9.99038049,0 C9.24460488,0 8.51826341,0.081875 7.81853659,0.237558594 L7.81853659,8.69585938 L7.81902439,8.69585938 L7.81900488,8.69585938 Z M5.2126439,8.69585938 L5.2126439,1.21591797 C2.4692878,2.71398437 0.505385366,5.46210938 0.0843707317,8.69585938 L5.2126439,8.69585938 Z M5.2126439,11.3041406 L0.0843707317,11.3041406 C0.505385366,14.5378906 2.4692878,17.2853125 5.2126439,18.7840625 L5.2126439,11.3041406 Z M7.81849756,11.3041406 L7.81849756,19.7624414 C8.51826341,19.9174219 9.24462439,19.9993555 9.9904,19.9993555 C15.0664195,19.9993555 19.2573659,16.21125 19.8963902,11.3041406 L7.81849756,11.3041406 L7.81849756,11.3041406 Z" id="形状" fill="#0052B4"></path>
                        </g>
                    </g>
                </g>
            </g>
        </g>
    </g>
</svg>