<?xml version="1.0" encoding="UTF-8"?>
<svg width="24px" height="24px" viewBox="0 0 24 24" version="1.1" xmlns="http://www.w3.org/2000/svg" xmlns:xlink="http://www.w3.org/1999/xlink">
    <title>svip</title>
    <g id="设计规范" stroke="none" stroke-width="1" fill="none" fill-rule="evenodd">
        <g id="ICON" transform="translate(-294.000000, -273.000000)" fill-rule="nonzero">
            <g id="编组-23" transform="translate(294.000000, 273.000000)">
                <rect id="矩形" fill="#000000" opacity="0" x="0" y="0" width="24" height="24"></rect>
                <g id="编组-22" transform="translate(3.000000, 0.179739)">
                    <path d="M7.79261016,22.1712819 L0.519140792,14.2855676 C-0.154328599,13.5508737 -0.178818396,12.4243431 0.482406096,11.6651594 L3.23750813,8.49373083 C3.60485506,8.06515941 4.14363057,7.82026144 4.71914079,7.82026144 L13.7926102,7.82026144 C14.3558755,7.82026144 14.894651,8.06515941 15.2619979,8.49373083 L18.0293449,11.6651594 C18.6905693,12.4243431 18.6783244,13.5508737 17.9926102,14.2855676 L10.6701612,22.1712819 C10.3028143,22.5753635 9.77628364,22.8080166 9.23750813,22.8080166 C8.68648772,22.8080166 8.17220201,22.5753635 7.79261016,22.1712819 Z" id="路径" fill="#FFE09E"></path>
                    <path d="M3.70588235,2.19607844 L12.4341176,6.62964706 C12.5729118,6.70022546 12.640985,6.84492938 12.6000266,6.98232151 C12.5590682,7.11971364 12.4193124,7.21546426 12.2594118,7.2156863 L5.03505882,7.2156863 C4.67899794,7.21575521 4.37862213,6.98009512 4.33447059,6.66603922 L3.70588235,2.19607844 Z" id="路径" fill="#F5C164"></path>
                    <path d="M14.2941176,2.19607844 L13.6655294,6.66603922 C13.6213779,6.98009512 13.3210021,7.21575521 12.9649412,7.21568631 L5.74094118,7.21568631 C5.58090937,7.2157483 5.44085835,7.12009257 5.39971173,6.98262442 C5.35856511,6.84515627 5.42662177,6.70028354 5.56552941,6.62964706 L14.2941176,2.19607844 Z" id="路径" fill="#F5C164"></path>
                    <path d="M9,0.941176469 L12.8795294,6.24627451 C13.0206103,6.43919975 13.0315729,6.68529088 12.9080954,6.88752798 C12.7846179,7.08976508 12.546511,7.21568628 12.2876471,7.21568628 L5.71235295,7.21568628 C5.45348896,7.21568628 5.21538212,7.08976508 5.09190459,6.88752798 C4.96842706,6.68529088 4.97938972,6.43919975 5.12047059,6.24627451 L9,0.941176469 Z" id="路径" fill="#FFE09E"></path>
                    <path d="M9,0.941176469 L12.8795294,6.24627451 C13.0206103,6.43919975 13.0315729,6.68529088 12.9080954,6.88752798 C12.7846179,7.08976508 12.546511,7.21568628 12.2876471,7.21568628 L9,7.21568628 L9,0.941176469 Z" id="路径" fill="#F9CF7E"></path>
                    <path d="M8.29411765,0.7 C8.29411765,1.08659932 8.61015194,1.4 9,1.4 C9.38984806,1.4 9.70588235,1.08659932 9.70588235,0.7 C9.70588235,0.313400675 9.38984806,5.75095527e-14 9,5.75095527e-14 C8.61015194,5.75095527e-14 8.29411765,0.313400675 8.29411765,0.7 L8.29411765,0.7 Z" id="路径" fill="#FFE19F"></path>
                    <path d="M13.5882353,1.95490195 C13.5882353,2.20498787 13.7227757,2.43607679 13.9411765,2.56111975 C14.1595772,2.68616271 14.4286581,2.68616271 14.6470588,2.56111975 C14.8654596,2.43607679 15,2.20498787 15,1.95490195 C15,1.56830264 14.6839657,1.25490197 14.2941176,1.25490197 C13.9042696,1.25490197 13.5882353,1.56830264 13.5882353,1.95490195 Z" id="路径" fill="#FFE19F"></path>
                    <path d="M3,1.95490197 C3,2.34150129 3.31603429,2.65490197 3.70588235,2.65490197 C4.09573041,2.65490197 4.4117647,2.34150129 4.4117647,1.95490197 C4.4117647,1.56830264 4.09573041,1.25490197 3.70588235,1.25490197 C3.31603429,1.25490197 3,1.56830264 3,1.95490197 Z" id="路径" fill="#FFE19F"></path>
                    <path d="M18.399,7.82026144 L18.3995229,22.801021 C18.3457414,22.805664 18.2916867,22.8080166 18.2375081,22.8080166 C17.6864877,22.8080166 17.172202,22.5753635 16.7926102,22.1712819 L9.51914079,14.2855676 C8.8456714,13.5508737 8.8211816,12.4243431 9.4824061,11.6651594 L12.2375081,8.49373083 C12.6048551,8.06515941 13.1436306,7.82026144 13.7191408,7.82026144 L18.399,7.82026144 Z" id="形状结合" fill="#F9CF7E" transform="translate(13.700000, 15.314139) scale(-1, 1) translate(-13.700000, -15.314139) "></path>
                    <path d="M8.87755102,17.8814859 C8.75510203,17.8814859 8.62040815,17.8325063 8.52244898,17.7345472 L3.74693878,12.836588 C3.5632653,12.6406696 3.5632653,12.3345472 3.75918368,12.1386288 C3.95510205,11.9549553 4.26122449,11.9549553 4.45714287,12.1508737 L8.88979591,16.6937308 L13.555102,12.1386288 C13.7510204,11.9549553 14.0571428,11.9549553 14.2530612,12.1508737 C14.4367347,12.3467921 14.4367347,12.6529145 14.2408163,12.8488329 L9.22040817,17.7467921 C9.12244898,17.8325063 9,17.8814859 8.87755102,17.8814859 L8.87755102,17.8814859 Z" id="路径" fill="#E2A600"></path>
                    <path d="M8.87755102,16.8791187 C8.75510203,16.8791187 8.62040815,16.8301391 8.52244898,16.7321799 L3.74693878,11.8342207 C3.5632653,11.6383023 3.5632653,11.3321799 3.75918368,11.1362615 C3.95510205,10.9525881 4.26122449,10.9525881 4.45714287,11.1485064 L8.88979591,15.6913636 L13.555102,11.1362615 C13.7510204,10.9525881 14.0571428,10.9525881 14.2530612,11.1485064 C14.4367347,11.3444248 14.4367347,11.6505472 14.2408163,11.8464656 L9.22040817,16.7444248 C9.12244898,16.8301391 9,16.8791187 8.87755102,16.8791187 L8.87755102,16.8791187 Z" id="路径复制-2" fill="#FFF7E1"></path>
                </g>
            </g>
        </g>
    </g>
</svg>