<?xml version="1.0" encoding="UTF-8"?>
<svg width="18px" height="18px" viewBox="0 0 18 18" version="1.1" xmlns="http://www.w3.org/2000/svg" xmlns:xlink="http://www.w3.org/1999/xlink">
    <g id="设计规范" stroke="none" stroke-width="1" fill="none" fill-rule="evenodd">
        <g id="ICON" transform="translate(-786.000000, -607.000000)" fill-rule="nonzero">
            <g id="编组" transform="translate(786.000000, 607.000000)">
                <rect id="矩形" fill="#000000" opacity="0" x="0" y="0" width="18" height="18"></rect>
                <path d="M13.23,6.615 L9.6075,3.56625 C9.27,3.285 8.71875,3.285 8.38125,3.56625 L4.75875,6.615 C4.21875,7.07625 4.60125,7.86375 5.36625,7.86375 L6.75,7.86375 C6.75,7.86375 6.75,7.875 6.75,7.875 L6.75,13.5 C6.75,14.11875 7.25625,14.625 7.875,14.625 L10.125,14.625 C10.74375,14.625 11.25,14.11875 11.25,13.5 L11.25,7.875 C11.25,7.875 11.25,7.86375 11.25,7.86375 L12.6225,7.86375 C13.3875,7.86375 13.77,7.07625 13.23,6.615 Z" id="路径" fill="#F6665D"></path>
            </g>
        </g>
    </g>
</svg>