<?xml version="1.0" encoding="UTF-8"?>
<svg width="18px" height="18px" viewBox="0 0 18 18" version="1.1" xmlns="http://www.w3.org/2000/svg" xmlns:xlink="http://www.w3.org/1999/xlink">
    <title>显示/隐藏账户</title>
    <g id="设计规范" stroke="none" stroke-width="1" fill="none" fill-rule="evenodd">
        <g id="ICON" transform="translate(-264.000000, -659.000000)" fill-rule="nonzero">
            <g id="编组" transform="translate(264.000000, 659.000000)">
                <rect id="矩形" fill="#000000" opacity="0" x="0" y="0" width="18" height="18"></rect>
                <path d="M9,0 C4.02943725,0 0,4.02943725 0,9 C0,13.9705627 4.02943725,18 9,18 C13.9705627,18 18,13.9705627 18,9 C17.9932585,4.03223233 13.9677677,0.0067414525 9,0 Z M14.6589611,14.5635029 L14.4288822,14.8082676 L14.3676911,14.4851781 C14.1979989,13.5623534 13.7943146,12.6985194 13.1952679,11.9763394 C13.0044311,11.7669736 12.6824851,11.7452336 12.4652334,11.9270424 C12.2479818,12.1088512 12.2126413,12.4295892 12.3850965,12.6543378 C13.0426011,13.4450191 13.4028103,14.4407897 13.4033179,15.4691324 C13.4045194,15.485428 13.4045194,15.5017899 13.4033179,15.5180854 L13.4033179,15.611096 L13.3249932,15.6624966 C10.6935523,17.3789094 7.29665708,17.3789094 4.66521622,15.6624966 L4.58689148,15.611096 L4.58689148,15.4715801 C4.58689148,13.038343 6.55941992,11.0658145 8.99265705,11.0658145 C10.8467045,11.07071 12.4327061,9.73484321 12.7430143,7.90694151 C13.0533225,6.07903981 11.9970283,4.29461165 10.2452359,3.68737269 C8.49344345,3.08013373 6.55936405,3.82798279 5.67179249,5.45578269 C4.78422092,7.08358259 5.20318324,9.11444741 6.6624966,10.2580908 L6.88033723,10.4269785 L6.63557247,10.546912 C5.06763001,11.3041688 3.95284996,12.7614689 3.63230895,14.4729399 L3.57111775,14.7960294 L3.34103889,14.5512646 C1.87556549,13.0757128 1.05442521,11.079629 1.05737577,9 C1.05297464,5.41142876 3.45535473,2.26566017 6.91850835,1.32521876 C10.381662,0.384777359 14.0452288,1.88329946 15.85657,4.98118677 C17.6679113,8.07907408 17.1770308,12.0067103 14.6589611,14.5635029 L14.6589611,14.5635029 Z M6.27332064,7.27440848 C6.27467216,5.77017622 7.49495005,4.55172411 8.99918265,4.55262441 C10.5034153,4.55352572 11.7222329,5.77343848 11.721783,7.27767128 C11.7213327,8.78190409 10.5017852,10.0010878 8.99755235,10.0010878 C7.49260488,9.9997369 6.27332064,8.77935656 6.27332064,7.27440848 L6.27332064,7.27440848 Z" id="形状" fill="#AAADB8"></path>
            </g>
        </g>
    </g>
</svg>