<?xml version="1.0" encoding="UTF-8"?>
<svg width="12px" height="12px" viewBox="0 0 12 12" version="1.1" xmlns="http://www.w3.org/2000/svg" xmlns:xlink="http://www.w3.org/1999/xlink">
    <title>虚拟账户</title>
    <g id="设计规范" stroke="none" stroke-width="1" fill="none" fill-rule="evenodd">
        <g id="ICON" transform="translate(-150.000000, -776.000000)" fill-rule="nonzero">
            <g id="Icon/12/虚拟账户" transform="translate(150.000000, 776.000000)">
                <rect id="矩形" fill="#000000" opacity="0" x="0" y="0" width="12" height="12"></rect>
                <path d="M7.05054797,7.04726562 C7.89065321,7.04726562 8.65241639,7.38332463 9.204193,7.92658822 C9.75342692,8.46734834 10.0945767,9.21376596 10.0950781,10.0371094 C9.03438789,10.7596928 8.08226124,10.75 7.05171972,10.75 L7.05171972,10.75 L4.63273744,10.7501035 C3.69806056,10.750142 2.88063557,10.7424956 2.32810759,10.5857095 C1.90507813,9.23414212 2.23870515,8.4744203 2.79486731,7.92665775 C3.34651119,7.38334524 4.10830283,7.04726562 4.94843653,7.04726563 L4.94843653,7.04726563 Z M5.89403516,1.25 C6.53083464,1.25 7.10831116,1.50489778 7.52648908,1.91701008 C7.94211657,2.32660894 8.20036564,2.89187297 8.20036564,3.515625 C8.20036564,4.13972931 7.94227591,4.70492347 7.52678188,5.1143908 C7.10857154,5.52653505 6.53096407,5.78125 5.89403516,5.78125 C5.25759087,5.78125 4.68004256,5.52619846 4.26173203,5.11395548 C3.8461368,4.70438841 3.58770467,4.13925242 3.58770467,3.515625 C3.58770467,2.89187297 3.84595374,2.32660894 4.26158124,1.91701008 C4.67975915,1.50489778 5.25723567,1.25 5.89403516,1.25 Z" id="形状" stroke="#AAADB8"></path>
            </g>
        </g>
    </g>
</svg>