<?xml version="1.0" encoding="UTF-8"?>
<svg width="18px" height="18px" viewBox="0 0 18 18" version="1.1" xmlns="http://www.w3.org/2000/svg" xmlns:xlink="http://www.w3.org/1999/xlink">
    <title>wechatpay</title>
    <g id="设计规范" stroke="none" stroke-width="1" fill="none" fill-rule="evenodd">
        <g id="ICON" transform="translate(-548.000000, -607.000000)" fill-rule="nonzero">
            <g id="微信支付" transform="translate(548.000000, 607.000000)">
                <rect id="矩形" fill="#000000" opacity="0" x="0" y="0" width="18" height="18"></rect>
                <path d="M-8.8817842e-16,8.595 L-8.8817842e-16,8.055 C0.045,7.56 0.135,7.11 0.27,6.66 C0.63,5.49 1.215,4.5 2.025,3.645 C3.15,2.43 4.5,1.665 5.985,1.17 C6.84,0.9 7.695,0.765 8.55,0.72 C9.27,0.675 9.945,0.72 10.665,0.855 C11.25,0.945 11.79,1.08 12.375,1.305 C13.77,1.8 14.985,2.565 16.02,3.645 C16.155,3.78 16.245,3.915 16.38,4.05 C16.335,4.05 16.335,4.095 16.29,4.095 C15.93,4.275 15.57,4.455 15.21,4.59 C12.69,5.76 10.17,6.93 7.65,8.055 C7.155,8.28 6.66,8.235 6.21,7.965 C5.85,7.74 5.535,7.515 5.175,7.29 C4.95,7.11 4.725,6.975 4.455,6.795 C4.23,6.66 4.095,6.75 4.095,7.02 L4.095,7.065 C4.14,7.29 4.185,7.515 4.275,7.74 C4.725,8.82 5.175,9.855 5.625,10.935 C5.76,11.25 5.985,11.385 6.255,11.34 C6.435,11.34 6.615,11.295 6.75,11.205 C7.29,10.935 7.785,10.62 8.28,10.305 C11.025,8.685 13.725,7.065 16.47,5.445 C16.65,5.31 16.875,5.22 17.055,5.085 C17.055,5.13 17.1,5.13 17.1,5.175 C17.19,5.355 17.28,5.49 17.325,5.67 C17.82,6.75 18.045,7.875 17.955,9.045 C17.91,9.54 17.82,10.035 17.685,10.53 C17.37,11.61 16.83,12.555 16.065,13.41 C15.165,14.4 14.04,15.165 12.825,15.66 C12.105,15.93 11.385,16.155 10.665,16.29 C10.17,16.38 9.675,16.425 9.225,16.425 L8.415,16.425 C8.055,16.38 7.695,16.38 7.38,16.335 C6.84,16.245 6.3,16.11 5.805,15.93 L5.67,15.93 C5.445,16.065 5.265,16.2 5.04,16.335 C4.545,16.65 4.095,16.92 3.6,17.19 C3.51,17.235 3.375,17.28 3.285,17.28 C3.195,17.28 3.105,17.235 3.105,17.1 C3.105,17.01 3.105,16.875 3.15,16.785 C3.24,16.11 3.375,15.48 3.51,14.805 C3.51,14.715 3.51,14.67 3.42,14.625 C3.15,14.4 2.88,14.22 2.61,13.95 C1.71,13.14 0.99,12.15 0.54,11.025 C0.36,10.53 0.225,9.99 0.135,9.45 C0.09,9.225 0.09,9 0.09,8.73 C-8.8817842e-16,8.73 -8.8817842e-16,8.685 -8.8817842e-16,8.595 Z" id="路径" fill="#6BCC03"></path>
            </g>
        </g>
    </g>
</svg>