<?xml version="1.0" encoding="UTF-8"?>
<svg width="24px" height="24px" viewBox="0 0 24 24" version="1.1" xmlns="http://www.w3.org/2000/svg" xmlns:xlink="http://www.w3.org/1999/xlink">
    <title>中国</title>
    <g id="设计规范" stroke="none" stroke-width="1" fill="none" fill-rule="evenodd">
        <g id="ICON" transform="translate(-150.000000, -982.000000)" fill-rule="nonzero">
            <g id="中国" transform="translate(150.000000, 982.000000)">
                <rect id="矩形" fill="#000000" opacity="0" x="0" y="0" width="24" height="24"></rect>
                <path d="M2.724,9.708 C3.63967055,5.92626099 6.74751626,3.07125969 10.5931958,2.47901689 C14.4388753,1.88677409 18.2617012,3.67443727 20.2727514,7.00545509 C22.2838015,10.3364729 22.085284,14.5519596 19.7700966,17.6792444 C17.4549092,20.8065291 13.4810033,22.2270252 9.708,21.276 C7.24571392,20.6716967 5.12525181,19.1121137 3.81486637,16.9416471 C2.50448094,14.7711805 2.11196637,12.168376 2.724,9.708" id="路径" fill="#E72D14"></path>
                <path d="M12.6,11.688 L12.156,12.228 L11.508,12 L11.88,12.588 L11.436,13.128 L12.108,12.96 L12.492,13.548 L12.492,12.852 L13.176,12.672 L12.528,12.42 L12.6,11.688 Z M15.192,10.224 L14.496,10.224 L14.28,9.6 L14.064,10.272 L13.368,10.272 L13.932,10.68 L13.716,11.352 L14.28,10.932 L14.844,11.352 L14.628,10.68 L15.192,10.224 Z M14.052,7.656 L14.16,8.4 L14.484,7.776 L15.18,7.884 L14.676,7.392 L15,6.768 L14.4,7.032 L13.908,6.54 L14.016,7.236 L13.392,7.548 L14.052,7.656 Z M12.612,4.452 L12.168,4.992 L11.508,4.728 L11.892,5.328 L11.436,5.856 L12.12,5.688 L12.492,6.276 L12.492,5.58 L13.2,5.412 L12.552,5.148 L12.612,4.452 Z M7.728,7.536 L7.068,5.508 L6.408,7.536 L4.284,7.536 L6,8.784 L5.34,10.8 L7.068,9.6 L8.784,10.8 L8.124,8.784 L9.852,7.584 L7.728,7.536 Z" id="形状" fill="#FFD700"></path>
            </g>
        </g>
    </g>
</svg>