<?xml version="1.0" encoding="UTF-8"?>
<svg width="18px" height="18px" viewBox="0 0 18 18" version="1.1" xmlns="http://www.w3.org/2000/svg" xmlns:xlink="http://www.w3.org/1999/xlink">
    <title>主展示</title>
    <g id="设计规范" stroke="none" stroke-width="1" fill="none" fill-rule="evenodd">
        <g id="ICON" transform="translate(-492.000000, -659.000000)" fill-rule="nonzero">
            <g id="置顶" transform="translate(492.000000, 659.000000)">
                <rect id="矩形" fill="#000000" opacity="0" x="0" y="0" width="18" height="18"></rect>
                <path d="M14.7415492,1 C15.8258541,1 16.7046483,1.87877619 16.7046483,2.96308104 L16.7046483,2.96308104 L16.7046483,14.7415492 C16.7046483,15.8258721 15.8258361,16.7046483 14.7415492,16.7046483 L14.7415492,16.7046483 L2.96308104,16.7046483 C1.87877619,16.7046483 1,15.8258541 1,14.7415492 L1,14.7415492 L1,2.96308104 C1,1.87877619 1.87879419,1 2.96308104,1 L2.96308104,1 Z M8.94140625,3 L7.3359375,3.7265625 C7.58203125,4.1015625 7.80944824,4.48095703 8.01818848,4.86474609 L8.22070313,5.25 L3.6796875,5.25 L3.6796875,6.796875 L7.8515625,6.796875 L7.8515625,8.91796875 L4.2421875,8.91796875 L4.2421875,10.4414063 L7.8515625,10.4414063 L7.8515625,12.6328125 L3,12.6328125 L3,14.203125 L14.484375,14.203125 L14.484375,12.6328125 L9.62109375,12.6328125 L9.62109375,10.4414063 L13.3125,10.4414063 L13.3125,8.91796875 L9.62109375,8.91796875 L9.62109375,6.796875 L13.8515625,6.796875 L13.8515625,5.25 L8.86523438,5.25 L9.99609375,4.72265625 C9.71484375,4.21640625 9.43359375,3.74765625 9.15234375,3.31640625 L8.94140625,3 Z" id="形状结合" fill="#FFFFFF"></path>
            </g>
        </g>
    </g>
</svg>